shantell--extrabold_Italic.ufo
<glyph name="parenright" format="2">
	<unicode hex="0029"/>
	<advance width="494"/>
	<outline>
		<contour>
			<point x="-8" y="-111" type="curve" smooth="yes"/>
			<point x="-41" y="-133"/>
			<point x="-54" y="-153"/>
			<point x="-59" y="-181" type="curve" smooth="yes"/>
			<point x="-70" y="-238"/>
			<point x="-9" y="-259"/>
			<point x="32" y="-259" type="curve" smooth="yes"/>
			<point x="71" y="-259"/>
			<point x="106" y="-248"/>
			<point x="146" y="-223" type="curve" smooth="yes"/>
			<point x="298.355" y="-129.015"/>
			<point x="399.849" y="33.31"/>
			<point x="440" y="237" type="curve" smooth="yes"/>
			<point x="488.383" y="478.916"/>
			<point x="429" y="684"/>
			<point x="297" y="779" type="curve" smooth="yes"/>
			<point x="266" y="802"/>
			<point x="244" y="812"/>
			<point x="204" y="812" type="curve" smooth="yes"/>
			<point x="160.331" y="812"/>
			<point x="124.561" y="783.64"/>
			<point x="117" y="743" type="curve" smooth="yes"/>
			<point x="109.718" y="706.588"/>
			<point x="124.884" y="673.351"/>
			<point x="164.34" y="643" type="curve" smooth="yes"/>
			<point x="262.34" y="568"/>
			<point x="307.34" y="450"/>
			<point x="270.34" y="267" type="curve" smooth="yes"/>
			<point x="239" y="108"/>
			<point x="155" y="-9"/>
		</contour>
	</outline>
</glyph>
<glyph name="asterisk" format="2">
	<unicode hex="002A"/>
	<advance width="516"/>
	<outline>
		<contour>
			<point x="329" y="766" type="curve" smooth="yes"/>
			<point x="294" y="766"/>
			<point x="276" y="749"/>
			<point x="270" y="721" type="curve" smooth="yes"/>
			<point x="262" y="680"/>
			<point x="284.372" y="677"/>
			<point x="263.372" y="570" type="curve" smooth="yes"/>
			<point x="248.372" y="493"/>
			<point x="217.372" y="367"/>
			<point x="218.372" y="274" type="curve" smooth="yes"/>
			<point x="218.372" y="246"/>
			<point x="233.372" y="226"/>
			<point x="268.372" y="226" type="curve" smooth="yes"/>
			<point x="316.372" y="226"/>
			<point x="340.372" y="254"/>
			<point x="341.372" y="298" type="curve" smooth="yes"/>
			<point x="342.372" y="385"/>
			<point x="369.372" y="499"/>
			<point x="383.372" y="570" type="curve" smooth="yes"/>
			<point x="411.372" y="708"/>
			<point x="387" y="766"/>
		</contour>
		<contour>
			<point x="516" y="596" type="curve" smooth="yes"/>
			<point x="529.295" y="611.194"/>
			<point x="539" y="627"/>
			<point x="543" y="649" type="curve" smooth="yes"/>
			<point x="549" y="682"/>
			<point x="533" y="706"/>
			<point x="501" y="706" type="curve" smooth="yes"/>
			<point x="474" y="706"/>
			<point x="452.351" y="696.543"/>
			<point x="430" y="671" type="curve" smooth="yes"/>
			<point x="371" y="604"/>
			<point x="188" y="505"/>
			<point x="111" y="424" type="curve" smooth="yes"/>
			<point x="87" y="399"/>
			<point x="83" y="386"/>
			<point x="81" y="375" type="curve" smooth="yes"/>
			<point x="74.979" y="342.886"/>
			<point x="101" y="314"/>
			<point x="136" y="314" type="curve" smooth="yes"/>
			<point x="160" y="314"/>
			<point x="176.619" y="319.717"/>
			<point x="195" y="341" type="curve" smooth="yes"/>
			<point x="279" y="440"/>
			<point x="445" y="519"/>
		</contour>
		<contour>
			<point x="212" y="638" type="curve" smooth="yes"/>
			<point x="186" y="653"/>
			<point x="177" y="659"/>
			<point x="156" y="659" type="curve" smooth="yes"/>
			<point x="129" y="659"/>
			<point x="107" y="643"/>
			<point x="100" y="612" type="curve" smooth="yes"/>
			<point x="96" y="591"/>
			<point x="99" y="559"/>
			<point x="133" y="536" type="curve" smooth="yes"/>
			<point x="192.837" y="497.395"/>
			<point x="315.166" y="437.124"/>
			<point x="393" y="391" type="curve" smooth="yes"/>
			<point x="427" y="370"/>
			<point x="435" y="366"/>
			<point x="454" y="366" type="curve" smooth="yes"/>
			<point x="490" y="366"/>
			<point x="511" y="395"/>
			<point x="518" y="426" type="curve" smooth="yes"/>
			<point x="523" y="451"/>
			<point x="516" y="470"/>
			<point x="498" y="480" type="curve" smooth="yes"/>
			<point x="394.789" y="541.734"/>
			<point x="273.786" y="600.349"/>
		</contour>
	</outline>
</glyph>
<glyph name="period" format="2">
	<unicode hex="002E"/>
	<advance width="329"/>
	<outline>
		<contour>
			<point x="132.38" y="-16" type="curve" smooth="yes"/>
			<point x="196.38" y="-16"/>
			<point x="236.38" y="18"/>
			<point x="245.38" y="65" type="curve" smooth="yes"/>
			<point x="258.38" y="128"/>
			<point x="230.38" y="197"/>
			<point x="126.38" y="197" type="curve" smooth="yes"/>
			<point x="67.38" y="197"/>
			<point x="25.38" y="159"/>
			<point x="13.38" y="101" type="curve" smooth="yes"/>
			<point x="-2.62" y="22"/>
			<point x="38.38" y="-16"/>
		</contour>
	</outline>
</glyph>
<glyph name="three" format="2">
	<unicode hex="0033"/>
	<advance width="700"/>
	<outline>
		<contour>
			<point x="443" y="712" type="curve" smooth="yes"/>
			<point x="280.529" y="712"/>
			<point x="115.13" y="640.775"/>
			<point x="102" y="576" type="curve" smooth="yes"/>
			<point x="93" y="526"/>
			<point x="124" y="495"/>
			<point x="164" y="495" type="curve" smooth="yes"/>
			<point x="224" y="495"/>
			<point x="277.734" y="547"/>
			<point x="440.734" y="547" type="curve" smooth="yes"/>
			<point x="479.734" y="547"/>
			<point x="489.734" y="540"/>
			<point x="485.734" y="522" type="curve" smooth="yes"/>
			<point x="477.734" y="481"/>
			<point x="411.734" y="452"/>
			<point x="286.734" y="427" type="curve" smooth="yes"/>
			<point x="250.043" y="419.899"/>
			<point x="231.408" y="401.766"/>
			<point x="225" y="374" type="curve" smooth="yes"/>
			<point x="216.226" y="326.23"/>
			<point x="234.277" y="282"/>
			<point x="295.734" y="282" type="curve" smooth="yes"/>
			<point x="457.848" y="282"/>
			<point x="496" y="267"/>
			<point x="486" y="222" type="curve" smooth="yes"/>
			<point x="478" y="187"/>
			<point x="403" y="161"/>
			<point x="260" y="161" type="curve" smooth="yes"/>
			<point x="148" y="161"/>
			<point x="152.609" y="189"/>
			<point x="102" y="189" type="curve" smooth="yes"/>
			<point x="57" y="189"/>
			<point x="31.716" y="158.722"/>
			<point x="24" y="121" type="curve" smooth="yes"/>
			<point x="9.833" y="55.223"/>
			<point x="63" y="-12"/>
			<point x="260" y="-12" type="curve" smooth="yes"/>
			<point x="482" y="-12"/>
			<point x="627" y="67"/>
			<point x="654" y="201" type="curve" smooth="yes"/>
			<point x="676" y="309"/>
			<point x="629" y="402"/>
			<point x="447" y="404" type="curve"/>
			<point x="444.734" y="365" type="line"/>
			<point x="596.734" y="389"/>
			<point x="654.734" y="462"/>
			<point x="668.734" y="532" type="curve" smooth="yes"/>
			<point x="690.822" y="641.434"/>
			<point x="622.943" y="712"/>
		</contour>
	</outline>
</glyph>
<glyph name="five" format="2">
	<unicode hex="0035"/>
	<advance width="700"/>
	<outline>
		<contour>
			<point x="659.165" y="543" type="curve" smooth="yes"/>
			<point x="695.165" y="543"/>
			<point x="724.165" y="567"/>
			<point x="733.165" y="603" type="curve" smooth="yes"/>
			<point x="747.165" y="662"/>
			<point x="712.165" y="716"/>
			<point x="626.165" y="716" type="curve" smooth="yes"/>
			<point x="484.165" y="716"/>
			<point x="413" y="700"/>
			<point x="240" y="700" type="curve" smooth="yes"/>
			<point x="195" y="700"/>
			<point x="170" y="685"/>
			<point x="151" y="647" type="curve" smooth="yes"/>
			<point x="121" y="591"/>
			<point x="103.165" y="544"/>
			<point x="95.165" y="507" type="curve" smooth="yes"/>
			<point x="72.165" y="392"/>
			<point x="106" y="349"/>
			<point x="375" y="309" type="curve" smooth="yes"/>
			<point x="455" y="298"/>
			<point x="462.848" y="275.409"/>
			<point x="457" y="245" type="curve" smooth="yes"/>
			<point x="446.262" y="189.523"/>
			<point x="340.247" y="158"/>
			<point x="264" y="158" type="curve" smooth="yes"/>
			<point x="173.884" y="158"/>
			<point x="178.545" y="195"/>
			<point x="124.165" y="195" type="curve" smooth="yes"/>
			<point x="79.165" y="195"/>
			<point x="50.165" y="161"/>
			<point x="42.165" y="118" type="curve" smooth="yes"/>
			<point x="25.928" y="38.844"/>
			<point x="78.874" y="-12"/>
			<point x="249" y="-12" type="curve" smooth="yes"/>
			<point x="450.913" y="-12"/>
			<point x="609" y="85"/>
			<point x="639" y="233" type="curve" smooth="yes"/>
			<point x="663" y="355"/>
			<point x="616" y="442"/>
			<point x="422" y="465" type="curve" smooth="yes"/>
			<point x="276" y="480"/>
			<point x="270.165" y="495"/>
			<point x="274.165" y="517" type="curve" smooth="yes"/>
			<point x="278.165" y="537"/>
			<point x="284.165" y="549"/>
			<point x="304.165" y="578" type="curve"/>
			<point x="224.165" y="527" type="line"/>
			<point x="416.165" y="524"/>
			<point x="496.165" y="543"/>
		</contour>
	</outline>
</glyph>
<glyph name="semicolon" format="2">
	<unicode hex="003B"/>
	<advance width="318"/>
	<outline>
		<contour>
			<point x="168.337" y="335" type="curve" smooth="yes"/>
			<point x="252.337" y="335"/>
			<point x="304.337" y="378"/>
			<point x="314.337" y="428" type="curve" smooth="yes"/>
			<point x="324.337" y="479"/>
			<point x="304.337" y="528"/>
			<point x="229.337" y="528" type="curve" smooth="yes"/>
			<point x="154.337" y="528"/>
			<point x="87.337" y="490"/>
			<point x="73.337" y="422" type="curve" smooth="yes"/>
			<point x="62.337" y="364"/>
			<point x="94.337" y="335"/>
		</contour>
		<component base="comma" xOffset="-2.463"/>
	</outline>
</glyph>
<glyph name="question" format="2">
	<unicode hex="003F"/>
	<advance width="541"/>
	<outline>
		<contour>
			<point x="146" y="678" type="curve" smooth="yes"/>
			<point x="109" y="661"/>
			<point x="82.226" y="636"/>
			<point x="75.226" y="599" type="curve" smooth="yes"/>
			<point x="64.226" y="543"/>
			<point x="95.226" y="516"/>
			<point x="141.226" y="516" type="curve" smooth="yes"/>
			<point x="187.226" y="516"/>
			<point x="220.226" y="550"/>
			<point x="320.226" y="550" type="curve" smooth="yes"/>
			<point x="370.226" y="550"/>
			<point x="386.226" y="540"/>
			<point x="383.226" y="523" type="curve" smooth="yes"/>
			<point x="380.226" y="509"/>
			<point x="370.226" y="497"/>
			<point x="299.226" y="469" type="curve" smooth="yes"/>
			<point x="204.226" y="432"/>
			<point x="171.226" y="394"/>
			<point x="162.226" y="350" type="curve" smooth="yes"/>
			<point x="149.226" y="287"/>
			<point x="185.226" y="231"/>
			<point x="262.226" y="231" type="curve" smooth="yes"/>
			<point x="304.226" y="231"/>
			<point x="331.226" y="259"/>
			<point x="336.226" y="283" type="curve" smooth="yes"/>
			<point x="340.226" y="305"/>
			<point x="326.226" y="319"/>
			<point x="327.226" y="327" type="curve" smooth="yes"/>
			<point x="329.226" y="336"/>
			<point x="344.226" y="345"/>
			<point x="420.226" y="379" type="curve" smooth="yes"/>
			<point x="489.226" y="408"/>
			<point x="543" y="443"/>
			<point x="559" y="522" type="curve" smooth="yes"/>
			<point x="582" y="640"/>
			<point x="512.226" y="720"/>
			<point x="343.226" y="720" type="curve" smooth="yes"/>
			<point x="281.226" y="720"/>
			<point x="202" y="705"/>
		</contour>
		<contour>
			<point x="201.226" y="-13" type="curve" smooth="yes"/>
			<point x="265.226" y="-13"/>
			<point x="305.226" y="18"/>
			<point x="314.226" y="67" type="curve" smooth="yes"/>
			<point x="324.226" y="117"/>
			<point x="296.226" y="165"/>
			<point x="214.226" y="165" type="curve" smooth="yes"/>
			<point x="161.226" y="165"/>
			<point x="118" y="138"/>
			<point x="107" y="83" type="curve" smooth="yes"/>
			<point x="95" y="22"/>
			<point x="131.226" y="-13"/>
		</contour>
	</outline>
</glyph>
<glyph name="at" format="2">
	<unicode hex="0040"/>
	<advance width="924"/>
	<outline>
		<contour>
			<point x="557.015" y="297" type="curve" smooth="yes"/>
			<point x="577.015" y="303"/>
			<point x="615.015" y="335"/>
			<point x="622.015" y="370" type="curve" smooth="yes"/>
			<point x="632.015" y="421"/>
			<point x="594.015" y="451"/>
			<point x="531.015" y="451" type="curve" smooth="yes"/>
			<point x="454.015" y="451"/>
			<point x="317.015" y="343"/>
			<point x="294.015" y="228" type="curve" smooth="yes"/>
			<point x="276.015" y="138"/>
			<point x="324.015" y="92"/>
			<point x="399.015" y="92" type="curve" smooth="yes"/>
			<point x="481.318" y="92"/>
			<point x="542.163" y="130.771"/>
			<point x="590" y="201" type="curve"/>
			<point x="505" y="191" type="line"/>
			<point x="543" y="183"/>
			<point x="561" y="171"/>
			<point x="590" y="136" type="curve" smooth="yes"/>
			<point x="621" y="96"/>
			<point x="660.329" y="85"/>
			<point x="698" y="85" type="curve" smooth="yes"/>
			<point x="782" y="85"/>
			<point x="863" y="132"/>
			<point x="888" y="253" type="curve" smooth="yes"/>
			<point x="919" y="410"/>
			<point x="849.4" y="713"/>
			<point x="586" y="713" type="curve" smooth="yes"/>
			<point x="341.899" y="713"/>
			<point x="81.942" y="496.706"/>
			<point x="37" y="268" type="curve" smooth="yes"/>
			<point x="-16.123" y="6.396"/>
			<point x="174.658" y="-174"/>
			<point x="451" y="-174" type="curve" smooth="yes"/>
			<point x="552.717" y="-174"/>
			<point x="616.125" y="-163.787"/>
			<point x="680" y="-139" type="curve" smooth="yes"/>
			<point x="731" y="-119"/>
			<point x="770" y="-84"/>
			<point x="778" y="-42" type="curve" smooth="yes"/>
			<point x="788" y="7"/>
			<point x="763.203" y="35"/>
			<point x="724.015" y="35" type="curve" smooth="yes"/>
			<point x="663.015" y="35"/>
			<point x="609.015" y="-5"/>
			<point x="462.015" y="-5" type="curve" smooth="yes"/>
			<point x="305.015" y="-5"/>
			<point x="168.015" y="79"/>
			<point x="202.015" y="248" type="curve" smooth="yes"/>
			<point x="231.015" y="397"/>
			<point x="411.015" y="543"/>
			<point x="572.015" y="543" type="curve" smooth="yes"/>
			<point x="692.015" y="543"/>
			<point x="743.015" y="373"/>
			<point x="722.015" y="268" type="curve" smooth="yes"/>
			<point x="720.015" y="262"/>
			<point x="716.015" y="254"/>
			<point x="711.015" y="254" type="curve"/>
			<point x="703.015" y="254"/>
			<point x="693.015" y="254"/>
			<point x="671.015" y="300" type="curve" smooth="yes"/>
			<point x="655.015" y="332"/>
			<point x="627.015" y="345"/>
			<point x="592.015" y="345" type="curve" smooth="yes"/>
			<point x="540.015" y="345"/>
			<point x="501.015" y="320"/>
			<point x="464.015" y="283" type="curve" smooth="yes"/>
			<point x="434.015" y="255"/>
			<point x="423.015" y="242"/>
			<point x="407.015" y="242" type="curve" smooth="yes"/>
			<point x="389.015" y="242"/>
			<point x="373.015" y="245"/>
			<point x="353.015" y="259" type="curve"/>
			<point x="455.015" y="160" type="line"/>
			<point x="443.015" y="172"/>
			<point x="440.015" y="188"/>
			<point x="443.015" y="206" type="curve" smooth="yes"/>
			<point x="450.015" y="240"/>
			<point x="497.015" y="278"/>
		</contour>
	</outline>
</glyph>
<glyph name="M" format="2">
	<unicode hex="004D"/>
	<advance width="1050"/>
	<outline>
		<contour>
			<point x="274.579" y="529" type="line"/>
			<point x="284.579" y="581"/>
			<point x="257.579" y="642"/>
			<point x="192.579" y="642" type="curve" smooth="yes"/>
			<point x="143.579" y="642"/>
			<point x="121.579" y="613"/>
			<point x="112.579" y="572" type="curve" smooth="yes"/>
			<point x="105.579" y="536"/>
			<point x="108.579" y="490"/>
			<point x="99.579" y="444" type="curve" smooth="yes"/>
			<point x="86.579" y="382"/>
			<point x="65.579" y="313"/>
			<point x="51.579" y="243" type="curve" smooth="yes"/>
			<point x="11.579" y="45"/>
			<point x="30.579" y="-12"/>
			<point x="102.579" y="-12" type="curve" smooth="yes"/>
			<point x="152" y="-12"/>
			<point x="188" y="12"/>
			<point x="205" y="77" type="curve" smooth="yes"/>
			<point x="246" y="232"/>
			<point x="291" y="364"/>
			<point x="391.579" y="485" type="curve"/>
			<point x="377.579" y="487" type="line"/>
			<point x="390.579" y="431"/>
			<point x="387.579" y="379"/>
			<point x="383.579" y="300" type="curve" smooth="yes"/>
			<point x="378.579" y="180"/>
			<point x="384.579" y="101"/>
			<point x="409.579" y="37" type="curve" smooth="yes"/>
			<point x="422.579" y="4"/>
			<point x="441.579" y="-10"/>
			<point x="480.579" y="-10" type="curve" smooth="yes"/>
			<point x="519.579" y="-10"/>
			<point x="550" y="8"/>
			<point x="576" y="54" type="curve" smooth="yes"/>
			<point x="709" y="282"/>
			<point x="760" y="444"/>
			<point x="851" y="528" type="curve"/>
			<point x="796" y="555" type="line"/>
			<point x="814" y="510"/>
			<point x="813" y="462"/>
			<point x="807" y="407" type="curve" smooth="yes"/>
			<point x="799" y="309"/>
			<point x="769.579" y="150"/>
			<point x="797.579" y="67" type="curve" smooth="yes"/>
			<point x="814.579" y="17"/>
			<point x="843.579" y="-9"/>
			<point x="897.579" y="-9" type="curve" smooth="yes"/>
			<point x="966.579" y="-9"/>
			<point x="1000.579" y="42"/>
			<point x="988.579" y="104" type="curve" smooth="yes"/>
			<point x="970.579" y="194"/>
			<point x="980.579" y="338"/>
			<point x="993.579" y="486" type="curve" smooth="yes"/>
			<point x="1008.579" y="649"/>
			<point x="966.579" y="716"/>
			<point x="877.579" y="716" type="curve" smooth="yes"/>
			<point x="793.579" y="716"/>
			<point x="728" y="643"/>
			<point x="672" y="565" type="curve" smooth="yes"/>
			<point x="605" y="468"/>
			<point x="553" y="338"/>
			<point x="505" y="253" type="curve"/>
			<point x="562" y="215" type="line"/>
			<point x="543" y="298"/>
			<point x="558" y="363"/>
			<point x="556" y="504" type="curve" smooth="yes"/>
			<point x="555" y="668"/>
			<point x="531.579" y="709"/>
			<point x="466.579" y="709" type="curve" smooth="yes"/>
			<point x="392.579" y="709"/>
			<point x="308" y="627"/>
			<point x="241" y="516" type="curve"/>
		</contour>
	</outline>
	<anchor name="bottom" x="482.579" y="0"/>
	<anchor name="top" x="642.58" y="700"/>
</glyph>
<glyph name="W" format="2">
	<unicode hex="0057"/>
	<advance width="1005"/>
	<outline>
		<contour>
			<point x="298" y="599" type="curve" smooth="yes"/>
			<point x="306" y="660"/>
			<point x="281" y="712"/>
			<point x="211" y="712" type="curve" smooth="yes"/>
			<point x="145" y="712"/>
			<point x="114.924" y="676"/>
			<point x="108.924" y="631" type="curve" smooth="yes"/>
			<point x="84.924" y="450"/>
			<point x="95.924" y="255"/>
			<point x="128.924" y="84" type="curve" smooth="yes"/>
			<point x="144.924" y="3"/>
			<point x="182.924" y="-8"/>
			<point x="209.924" y="-8" type="curve" smooth="yes"/>
			<point x="252.924" y="-8"/>
			<point x="278.924" y="13"/>
			<point x="301.924" y="59" type="curve" smooth="yes"/>
			<point x="384.924" y="222"/>
			<point x="466.924" y="352"/>
			<point x="560.924" y="441" type="curve"/>
			<point x="506.924" y="460" type="line"/>
			<point x="553.924" y="375"/>
			<point x="549" y="169"/>
			<point x="610" y="60" type="curve" smooth="yes"/>
			<point x="638" y="10"/>
			<point x="665.924" y="-12"/>
			<point x="718.924" y="-12" type="curve" smooth="yes"/>
			<point x="743.924" y="-12"/>
			<point x="771.924" y="-1"/>
			<point x="797.924" y="42" type="curve" smooth="yes"/>
			<point x="889.924" y="193"/>
			<point x="951.924" y="415"/>
			<point x="1020.924" y="559" type="curve" smooth="yes"/>
			<point x="1056.924" y="634"/>
			<point x="1050" y="712"/>
			<point x="960" y="712" type="curve" smooth="yes"/>
			<point x="916" y="712"/>
			<point x="884" y="692"/>
			<point x="856" y="645" type="curve" smooth="yes"/>
			<point x="809" y="570"/>
			<point x="759" y="367"/>
			<point x="692" y="242" type="curve"/>
			<point x="756" y="245" type="line"/>
			<point x="708" y="336"/>
			<point x="722" y="492"/>
			<point x="696" y="572" type="curve" smooth="yes"/>
			<point x="676" y="631"/>
			<point x="649" y="651"/>
			<point x="608" y="651" type="curve" smooth="yes"/>
			<point x="556" y="651"/>
			<point x="520" y="632"/>
			<point x="474" y="590" type="curve" smooth="yes"/>
			<point x="386" y="509"/>
			<point x="310" y="407"/>
			<point x="248" y="280" type="curve"/>
			<point x="288" y="294" type="line"/>
			<point x="278" y="405"/>
			<point x="281" y="475"/>
		</contour>
	</outline>
	<anchor name="bottom" x="465.924" y="0"/>
	<anchor name="top" x="605.925" y="700"/>
</glyph>
<glyph name="a" format="2">
	<unicode hex="0061"/>
	<advance width="704"/>
	<outline>
		<contour>
			<point x="388.401" y="392" type="curve" smooth="yes"/>
			<point x="335.401" y="238"/>
			<point x="256.401" y="158"/>
			<point x="194.401" y="158" type="curve" smooth="yes"/>
			<point x="162.401" y="158"/>
			<point x="141.401" y="164"/>
			<point x="112.401" y="187" type="curve"/>
			<point x="164.401" y="73" type="line"/>
			<point x="161.401" y="95"/>
			<point x="162.401" y="108"/>
			<point x="165.401" y="127" type="curve" smooth="yes"/>
			<point x="188.401" y="242"/>
			<point x="301.401" y="358"/>
			<point x="429.401" y="381" type="curve" smooth="yes"/>
			<point x="447.401" y="385"/>
			<point x="464.401" y="397"/>
			<point x="469.401" y="420" type="curve" smooth="yes"/>
			<point x="483.401" y="488"/>
			<point x="446.401" y="526"/>
			<point x="390.401" y="526" type="curve" smooth="yes"/>
			<point x="239.401" y="526"/>
			<point x="41" y="338"/>
			<point x="6" y="163" type="curve" smooth="yes"/>
			<point x="-13" y="71"/>
			<point x="45.401" y="-10"/>
			<point x="153.401" y="-10" type="curve" smooth="yes"/>
			<point x="261.401" y="-10"/>
			<point x="390" y="44"/>
			<point x="482.401" y="255" type="curve"/>
			<point x="421.401" y="249" type="line"/>
			<point x="438.401" y="141"/>
			<point x="458" y="87"/>
			<point x="495" y="22" type="curve" smooth="yes"/>
			<point x="505" y="4"/>
			<point x="524" y="-7"/>
			<point x="549.401" y="-7" type="curve" smooth="yes"/>
			<point x="640" y="-7"/>
			<point x="675" y="95"/>
			<point x="644" y="137" type="curve" smooth="yes"/>
			<point x="589" y="213"/>
			<point x="585" y="275"/>
			<point x="562" y="362" type="curve" smooth="yes"/>
			<point x="554" y="403"/>
			<point x="521" y="446"/>
			<point x="469.401" y="446" type="curve" smooth="yes"/>
			<point x="436.401" y="446"/>
			<point x="400.401" y="426"/>
		</contour>
	</outline>
	<anchor name="bottom" x="295.401" y="0"/>
	<anchor name="ogonek" x="570.401" y="0"/>
	<anchor name="top" x="389.402" y="515"/>
</glyph>
<glyph name="f" format="2">
	<unicode hex="0066"/>
	<advance width="417"/>
	<outline>
		<contour>
			<point x="367" y="376" type="curve" smooth="yes"/>
			<point x="400" y="379"/>
			<point x="420" y="405"/>
			<point x="426" y="434" type="curve" smooth="yes"/>
			<point x="437" y="488"/>
			<point x="389.248" y="516"/>
			<point x="348.248" y="516" type="curve" smooth="yes"/>
			<point x="312.248" y="516"/>
			<point x="266.248" y="508"/>
			<point x="206.248" y="488" type="curve" smooth="yes"/>
			<point x="156" y="471"/>
			<point x="119" y="434"/>
			<point x="109" y="387" type="curve" smooth="yes"/>
			<point x="102" y="350"/>
			<point x="135" y="324"/>
			<point x="178" y="324" type="curve" smooth="yes"/>
			<point x="208" y="324"/>
			<point x="243" y="365"/>
		</contour>
		<contour>
			<point x="126.248" y="-10" type="curve" smooth="yes"/>
			<point x="174.248" y="-10"/>
			<point x="202.248" y="14"/>
			<point x="220.248" y="104" type="curve" smooth="yes"/>
			<point x="246.248" y="236"/>
			<point x="231.248" y="310"/>
			<point x="247.248" y="390" type="curve" smooth="yes"/>
			<point x="275.248" y="530"/>
			<point x="299.248" y="562"/>
			<point x="429.248" y="606" type="curve" smooth="yes"/>
			<point x="461.248" y="617"/>
			<point x="483.248" y="638"/>
			<point x="490.248" y="673" type="curve" smooth="yes"/>
			<point x="502.248" y="736"/>
			<point x="457" y="760"/>
			<point x="402" y="760" type="curve" smooth="yes"/>
			<point x="274" y="760"/>
			<point x="127" y="646"/>
			<point x="87" y="444" type="curve" smooth="yes"/>
			<point x="65" y="334"/>
			<point x="79.248" y="271"/>
			<point x="54.248" y="145" type="curve" smooth="yes"/>
			<point x="34.248" y="45"/>
			<point x="74.248" y="-10"/>
		</contour>
	</outline>
	<anchor name="bottom" x="120.248" y="0"/>
	<anchor name="top" x="387.249" y="750"/>
</glyph>
<glyph name="o" format="2">
	<unicode hex="006F"/>
	<advance width="664"/>
	<outline>
		<contour>
			<point x="314" y="-12" type="curve" smooth="yes"/>
			<point x="463" y="-12"/>
			<point x="594" y="88"/>
			<point x="625" y="246" type="curve" smooth="yes"/>
			<point x="656" y="400"/>
			<point x="571" y="516"/>
			<point x="382" y="516" type="curve" smooth="yes"/>
			<point x="302" y="516"/>
			<point x="188" y="438"/>
			<point x="171" y="355" type="curve" smooth="yes"/>
			<point x="159" y="295"/>
			<point x="190.63" y="269"/>
			<point x="215.63" y="269" type="curve" smooth="yes"/>
			<point x="247.63" y="269"/>
			<point x="266.63" y="279"/>
			<point x="299.63" y="307" type="curve" smooth="yes"/>
			<point x="332.63" y="334"/>
			<point x="350.63" y="351"/>
			<point x="377.63" y="351" type="curve" smooth="yes"/>
			<point x="434.63" y="351"/>
			<point x="466.63" y="314"/>
			<point x="455.63" y="258" type="curve" smooth="yes"/>
			<point x="442.63" y="193"/>
			<point x="386.63" y="149"/>
			<point x="320.63" y="149" type="curve" smooth="yes"/>
			<point x="240.63" y="149"/>
			<point x="199.63" y="193"/>
			<point x="212.63" y="259" type="curve" smooth="yes"/>
			<point x="220.63" y="300"/>
			<point x="268.63" y="341"/>
			<point x="307.63" y="352" type="curve" smooth="yes"/>
			<point x="380.63" y="373"/>
			<point x="405.63" y="416"/>
			<point x="416.63" y="470" type="curve" smooth="yes"/>
			<point x="425.63" y="515"/>
			<point x="379" y="533"/>
			<point x="340" y="533" type="curve" smooth="yes"/>
			<point x="219" y="533"/>
			<point x="69" y="417"/>
			<point x="43" y="286" type="curve" smooth="yes"/>
			<point x="11" y="124"/>
			<point x="121" y="-12"/>
		</contour>
	</outline>
	<anchor name="bottom" x="294.63" y="0"/>
	<anchor name="ogonek" x="458.03" y="37"/>
	<anchor name="top" x="397.631" y="515"/>
</glyph>
<glyph name="r" format="2">
	<unicode hex="0072"/>
	<advance width="558"/>
	<outline>
		<contour>
			<point x="128.873" y="-12" type="curve" smooth="yes"/>
			<point x="174.873" y="-12"/>
			<point x="189.873" y="12"/>
			<point x="221.873" y="96" type="curve" smooth="yes"/>
			<point x="260.873" y="202"/>
			<point x="304" y="285"/>
			<point x="482" y="337" type="curve" smooth="yes"/>
			<point x="532" y="351"/>
			<point x="556" y="376"/>
			<point x="562" y="406" type="curve" smooth="yes"/>
			<point x="575" y="473"/>
			<point x="563" y="521"/>
			<point x="487" y="521" type="curve" smooth="yes"/>
			<point x="388" y="521"/>
			<point x="250" y="418"/>
			<point x="165" y="265" type="curve"/>
			<point x="244" y="303" type="line"/>
			<point x="248" y="461"/>
			<point x="219" y="511"/>
			<point x="127.873" y="511" type="curve" smooth="yes"/>
			<point x="95.873" y="511"/>
			<point x="67.873" y="494"/>
			<point x="62.873" y="468" type="curve" smooth="yes"/>
			<point x="58.873" y="449"/>
			<point x="58.873" y="437"/>
			<point x="68.873" y="403" type="curve" smooth="yes"/>
			<point x="85.873" y="336"/>
			<point x="79.873" y="254"/>
			<point x="51.873" y="115" type="curve" smooth="yes"/>
			<point x="37.873" y="45"/>
			<point x="76.873" y="-12"/>
		</contour>
	</outline>
	<anchor name="bottom" x="123.873" y="0"/>
	<anchor name="top" x="340.874" y="515"/>
</glyph>
<glyph name="t" format="2">
	<unicode hex="0074"/>
	<advance width="503"/>
	<outline>
		<contour>
			<point x="232.527" y="298" type="curve" smooth="yes"/>
			<point x="254.527" y="412"/>
			<point x="290.527" y="490"/>
			<point x="304.527" y="558" type="curve" smooth="yes"/>
			<point x="327.527" y="675"/>
			<point x="289.527" y="716"/>
			<point x="217.527" y="716" type="curve" smooth="yes"/>
			<point x="165.527" y="716"/>
			<point x="141.527" y="693"/>
			<point x="133.527" y="654" type="curve" smooth="yes"/>
			<point x="126.527" y="619"/>
			<point x="134.527" y="588"/>
			<point x="122.527" y="530" type="curve" smooth="yes"/>
			<point x="105.527" y="446"/>
			<point x="77.527" y="389"/>
			<point x="57.527" y="292" type="curve" smooth="yes"/>
			<point x="22" y="110"/>
			<point x="84" y="-13"/>
			<point x="273" y="-13" type="curve" smooth="yes"/>
			<point x="368" y="-13"/>
			<point x="427" y="20"/>
			<point x="442" y="96" type="curve" smooth="yes"/>
			<point x="451" y="140"/>
			<point x="434" y="181"/>
			<point x="391" y="181" type="curve" smooth="yes"/>
			<point x="362" y="181"/>
			<point x="341" y="161"/>
			<point x="294" y="161" type="curve" smooth="yes"/>
			<point x="236" y="161"/>
			<point x="211.527" y="196"/>
		</contour>
		<contour>
			<point x="213.527" y="327" type="curve" smooth="yes"/>
			<point x="298.527" y="358"/>
			<point x="360.527" y="368"/>
			<point x="464.527" y="374" type="curve" smooth="yes"/>
			<point x="490.527" y="376"/>
			<point x="510.527" y="398"/>
			<point x="514.527" y="422" type="curve" smooth="yes"/>
			<point x="525.527" y="477"/>
			<point x="480.527" y="525"/>
			<point x="410.527" y="525" type="curve" smooth="yes"/>
			<point x="353.527" y="525"/>
			<point x="277.527" y="512"/>
			<point x="217.527" y="492" type="curve" smooth="yes"/>
			<point x="151.527" y="469"/>
			<point x="138.527" y="433"/>
			<point x="129.527" y="391" type="curve" smooth="yes"/>
			<point x="119.527" y="338"/>
			<point x="147.527" y="302"/>
		</contour>
	</outline>
	<anchor name="bottom" x="221.527" y="0"/>
	<anchor name="top" x="240.528" y="700"/>
</glyph>
<glyph name="v" format="2">
	<unicode hex="0076"/>
	<advance width="632"/>
	<outline>
		<contour>
			<point x="155.938" y="67" type="curve" smooth="yes"/>
			<point x="180.938" y="13"/>
			<point x="209.938" y="-10"/>
			<point x="260.938" y="-10" type="curve" smooth="yes"/>
			<point x="291.938" y="-10"/>
			<point x="309.938" y="3"/>
			<point x="331.938" y="39" type="curve" smooth="yes"/>
			<point x="425.938" y="189"/>
			<point x="511" y="241"/>
			<point x="614" y="363" type="curve" smooth="yes"/>
			<point x="628" y="380"/>
			<point x="636" y="396"/>
			<point x="639" y="412" type="curve" smooth="yes"/>
			<point x="650" y="470"/>
			<point x="619" y="526"/>
			<point x="568" y="526" type="curve" smooth="yes"/>
			<point x="541" y="526"/>
			<point x="521" y="517"/>
			<point x="498" y="493" type="curve" smooth="yes"/>
			<point x="404" y="398"/>
			<point x="324" y="324"/>
			<point x="246" y="200" type="curve"/>
			<point x="293" y="190" type="line"/>
			<point x="279" y="256"/>
			<point x="265" y="327"/>
			<point x="255" y="392" type="curve" smooth="yes"/>
			<point x="244" y="474"/>
			<point x="203" y="524"/>
			<point x="132" y="524" type="curve" smooth="yes"/>
			<point x="92" y="524"/>
			<point x="67" y="504"/>
			<point x="62" y="474" type="curve" smooth="yes"/>
			<point x="51" y="416"/>
			<point x="81.938" y="374"/>
			<point x="104.938" y="252" type="curve" smooth="yes"/>
			<point x="115.938" y="197"/>
			<point x="137.938" y="108"/>
		</contour>
	</outline>
	<anchor name="bottom" x="253.938" y="0"/>
	<anchor name="top" x="356.939" y="515"/>
</glyph>
<glyph name="x" format="2">
	<unicode hex="0078"/>
	<advance width="589"/>
	<outline>
		<contour>
			<point x="530.63" y="365" type="curve" smooth="yes"/>
			<point x="559.63" y="381"/>
			<point x="584.63" y="403"/>
			<point x="591.63" y="439" type="curve" smooth="yes"/>
			<point x="602.63" y="495"/>
			<point x="566" y="522"/>
			<point x="527" y="522" type="curve" smooth="yes"/>
			<point x="495" y="522"/>
			<point x="463.63" y="513"/>
			<point x="422.63" y="490" type="curve" smooth="yes"/>
			<point x="246.63" y="390"/>
			<point x="94" y="242"/>
			<point x="24" y="125" type="curve" smooth="yes"/>
			<point x="-30" y="37"/>
			<point x="-3" y="-17"/>
			<point x="49" y="-17" type="curve" smooth="yes"/>
			<point x="93" y="-17"/>
			<point x="121" y="0"/>
			<point x="163" y="48" type="curve" smooth="yes"/>
			<point x="272" y="172"/>
			<point x="393" y="291"/>
		</contour>
		<contour>
			<point x="497.63" y="146" type="curve" smooth="yes"/>
			<point x="450.63" y="235"/>
			<point x="301.63" y="433"/>
			<point x="240.63" y="486" type="curve" smooth="yes"/>
			<point x="208.63" y="516"/>
			<point x="188.63" y="525"/>
			<point x="161.63" y="525" type="curve" smooth="yes"/>
			<point x="116.63" y="525"/>
			<point x="84" y="498"/>
			<point x="74" y="451" type="curve" smooth="yes"/>
			<point x="66" y="408"/>
			<point x="82.63" y="380"/>
			<point x="111.63" y="353" type="curve" smooth="yes"/>
			<point x="193" y="276"/>
			<point x="306" y="145"/>
			<point x="354" y="46" type="curve" smooth="yes"/>
			<point x="378" y="-2"/>
			<point x="406" y="-16"/>
			<point x="444" y="-16" type="curve" smooth="yes"/>
			<point x="486" y="-16"/>
			<point x="517" y="5"/>
			<point x="523.63" y="42" type="curve" smooth="yes"/>
			<point x="527.63" y="61"/>
			<point x="527.63" y="88"/>
		</contour>
	</outline>
	<anchor name="bottom" x="236.63" y="0"/>
	<anchor name="top" x="325.631" y="515"/>
</glyph>
<glyph name="braceleft" format="2">
	<unicode hex="007B"/>
	<advance width="553"/>
	<outline>
		<contour>
			<point x="524.234" y="638" type="curve" smooth="yes"/>
			<point x="572.234" y="644"/>
			<point x="604.234" y="671"/>
			<point x="614.234" y="719" type="curve" smooth="yes"/>
			<point x="623.275" y="766.214"/>
			<point x="586.188" y="812"/>
			<point x="520" y="812" type="curve" smooth="yes"/>
			<point x="359.503" y="812"/>
			<point x="235.328" y="710.508"/>
			<point x="218" y="623" type="curve" smooth="yes"/>
			<point x="199.829" y="532.143"/>
			<point x="244.005" y="475.996"/>
			<point x="229.234" y="401" type="curve" smooth="yes"/>
			<point x="226.234" y="383"/>
			<point x="189.234" y="353"/>
			<point x="77.234" y="319" type="curve" smooth="yes"/>
			<point x="33.234" y="305"/>
			<point x="13.234" y="277"/>
			<point x="8.234" y="251" type="curve" smooth="yes"/>
			<point x="-2.766" y="195"/>
			<point x="14.234" y="158"/>
			<point x="60.234" y="151" type="curve" smooth="yes"/>
			<point x="172.234" y="133"/>
			<point x="188.234" y="121"/>
			<point x="181.234" y="87" type="curve" smooth="yes"/>
			<point x="173.323" y="47.45"/>
			<point x="126.824" y="22.482"/>
			<point x="111" y="-54" type="curve" smooth="yes"/>
			<point x="90.091" y="-158.544"/>
			<point x="192" y="-264"/>
			<point x="317" y="-264" type="curve" smooth="yes"/>
			<point x="387" y="-264"/>
			<point x="441" y="-224"/>
			<point x="451" y="-169" type="curve" smooth="yes"/>
			<point x="461" y="-120"/>
			<point x="440.077" y="-95.991"/>
			<point x="406.234" y="-94" type="curve" smooth="yes"/>
			<point x="321.234" y="-88"/>
			<point x="288.234" y="-69"/>
			<point x="294.234" y="-38" type="curve" smooth="yes"/>
			<point x="302.664" y="0.407"/>
			<point x="348.826" y="45.129"/>
			<point x="361" y="106" type="curve" smooth="yes"/>
			<point x="377.938" y="190.692"/>
			<point x="345.238" y="264.144"/>
			<point x="139.234" y="279" type="curve"/>
			<point x="123" y="207" type="line"/>
			<point x="305" y="232"/>
			<point x="386.592" y="302.143"/>
			<point x="399" y="368" type="curve" smooth="yes"/>
			<point x="422" y="483"/>
			<point x="372.728" y="519.566"/>
			<point x="384.234" y="575" type="curve" smooth="yes"/>
			<point x="391.234" y="609"/>
			<point x="419.234" y="624"/>
		</contour>
	</outline>
</glyph>
<glyph name="bar" format="2">
	<unicode hex="007C"/>
	<advance width="349"/>
	<outline>
		<contour>
			<point x="346.03" y="680" type="curve" smooth="yes"/>
			<point x="366.03" y="778"/>
			<point x="334.03" y="818"/>
			<point x="269.03" y="818" type="curve" smooth="yes"/>
			<point x="220.03" y="818"/>
			<point x="199.03" y="788"/>
			<point x="192.03" y="743" type="curve" smooth="yes"/>
			<point x="165.03" y="585"/>
			<point x="125.03" y="484"/>
			<point x="87.03" y="294" type="curve" smooth="yes"/>
			<point x="58.03" y="152"/>
			<point x="47.03" y="64"/>
			<point x="46.03" y="-72" type="curve" smooth="yes"/>
			<point x="45.03" y="-135"/>
			<point x="69.03" y="-164"/>
			<point x="113.03" y="-164" type="curve" smooth="yes"/>
			<point x="159.03" y="-164"/>
			<point x="194.03" y="-136"/>
			<point x="205.03" y="-78" type="curve" smooth="yes"/>
			<point x="224.03" y="14"/>
			<point x="211.03" y="80"/>
			<point x="258.03" y="317" type="curve" smooth="yes"/>
			<point x="287.03" y="459"/>
			<point x="325.03" y="577"/>
		</contour>
	</outline>
</glyph>
<glyph name="sterling" format="2">
	<unicode hex="00A3"/>
	<advance width="700"/>
	<outline>
		<contour>
			<point x="406" y="715" type="curve" smooth="yes"/>
			<point x="251.092" y="715"/>
			<point x="152" y="641"/>
			<point x="136" y="562" type="curve" smooth="yes"/>
			<point x="110" y="434"/>
			<point x="263.739" y="354.093"/>
			<point x="240.358" y="234" type="curve" smooth="yes"/>
			<point x="229.358" y="182"/>
			<point x="182.358" y="124"/>
			<point x="148.358" y="124" type="curve" smooth="yes"/>
			<point x="147.358" y="124"/>
			<point x="144.358" y="107"/>
			<point x="142.358" y="96" type="curve" smooth="yes"/>
			<point x="140.358" y="86"/>
			<point x="137.358" y="77"/>
			<point x="138.358" y="77" type="curve" smooth="yes"/>
			<point x="211.658" y="77"/>
			<point x="264.477" y="-19"/>
			<point x="410" y="-19" type="curve" smooth="yes"/>
			<point x="541.441" y="-19"/>
			<point x="620.397" y="42.194"/>
			<point x="633.358" y="107" type="curve" smooth="yes"/>
			<point x="643.358" y="156"/>
			<point x="623.358" y="188"/>
			<point x="578.358" y="188" type="curve" smooth="yes"/>
			<point x="530.358" y="188"/>
			<point x="489.358" y="152"/>
			<point x="424.358" y="152" type="curve" smooth="yes"/>
			<point x="343.358" y="152"/>
			<point x="294.358" y="207"/>
			<point x="143.358" y="207" type="curve" smooth="yes"/>
			<point x="67.358" y="207"/>
			<point x="15.358" y="168"/>
			<point x="3.358" y="112" type="curve" smooth="yes"/>
			<point x="-9.642" y="45"/>
			<point x="31.358" y="-12"/>
			<point x="120.358" y="-12" type="curve" smooth="yes"/>
			<point x="245.301" y="-12"/>
			<point x="375.029" y="95.062"/>
			<point x="399" y="213" type="curve" smooth="yes"/>
			<point x="439.223" y="416.176"/>
			<point x="299.107" y="479.748"/>
			<point x="307.358" y="521" type="curve" smooth="yes"/>
			<point x="312.049" y="542.108"/>
			<point x="337.748" y="554"/>
			<point x="387" y="554" type="curve" smooth="yes"/>
			<point x="437.69" y="554"/>
			<point x="449.491" y="543.944"/>
			<point x="447" y="529" type="curve" smooth="yes"/>
			<point x="446" y="524"/>
			<point x="441" y="518"/>
			<point x="439" y="507" type="curve" smooth="yes"/>
			<point x="435" y="485"/>
			<point x="449" y="462"/>
			<point x="491" y="462" type="curve" smooth="yes"/>
			<point x="564" y="462"/>
			<point x="608" y="505"/>
			<point x="622" y="573" type="curve" smooth="yes"/>
			<point x="632.021" y="625.112"/>
			<point x="607.32" y="715"/>
		</contour>
		<contour>
			<point x="139.358" y="402" type="curve" smooth="yes"/>
			<point x="92.358" y="398"/>
			<point x="65.358" y="376"/>
			<point x="59.358" y="343" type="curve" smooth="yes"/>
			<point x="46.358" y="282"/>
			<point x="89.358" y="253"/>
			<point x="137.358" y="253" type="curve" smooth="yes"/>
			<point x="219.358" y="253"/>
			<point x="385.358" y="265"/>
			<point x="446.358" y="265" type="curve" smooth="yes"/>
			<point x="484.358" y="265"/>
			<point x="509.358" y="262"/>
			<point x="522.358" y="262" type="curve" smooth="yes"/>
			<point x="576.358" y="262"/>
			<point x="621.358" y="299"/>
			<point x="630.358" y="344" type="curve" smooth="yes"/>
			<point x="639.358" y="389"/>
			<point x="597.358" y="414"/>
			<point x="511.358" y="414" type="curve" smooth="yes"/>
			<point x="385.358" y="414"/>
			<point x="240.358" y="409"/>
		</contour>
	</outline>
</glyph>
<glyph name="plusminus" format="2">
	<unicode hex="00B1"/>
	<advance width="700"/>
	<outline>
		<contour>
			<point x="474.767" y="470" type="curve" smooth="yes"/>
			<point x="494.767" y="568"/>
			<point x="462.767" y="608"/>
			<point x="397.767" y="608" type="curve" smooth="yes"/>
			<point x="348.767" y="608"/>
			<point x="327.767" y="578"/>
			<point x="320.767" y="533" type="curve" smooth="yes"/>
			<point x="307.767" y="454"/>
			<point x="290.767" y="402"/>
			<point x="277.767" y="306" type="curve" smooth="yes"/>
			<point x="270.767" y="243"/>
			<point x="301.767" y="214"/>
			<point x="345.767" y="214" type="curve" smooth="yes"/>
			<point x="391.767" y="214"/>
			<point x="425.767" y="242"/>
			<point x="437.767" y="300" type="curve" smooth="yes"/>
			<point x="443.767" y="329"/>
			<point x="463.767" y="414"/>
		</contour>
		<contour>
			<point x="582.767" y="344" type="curve" smooth="yes"/>
			<point x="636.767" y="344"/>
			<point x="656.767" y="368"/>
			<point x="662.767" y="402" type="curve" smooth="yes"/>
			<point x="674.767" y="459"/>
			<point x="635.767" y="495"/>
			<point x="556.767" y="495" type="curve" smooth="yes"/>
			<point x="438.767" y="495"/>
			<point x="293.767" y="486"/>
			<point x="168.767" y="459" type="curve" smooth="yes"/>
			<point x="95.767" y="443"/>
			<point x="75.767" y="411"/>
			<point x="67.767" y="371" type="curve" smooth="yes"/>
			<point x="58.767" y="325"/>
			<point x="77.767" y="286"/>
			<point x="127.767" y="286" type="curve" smooth="yes"/>
			<point x="201.767" y="286"/>
			<point x="287.767" y="344"/>
		</contour>
		<contour>
			<point x="492.767" y="50" type="curve" smooth="yes"/>
			<point x="565.767" y="50"/>
			<point x="591.767" y="77"/>
			<point x="599.767" y="115" type="curve" smooth="yes"/>
			<point x="610.767" y="172"/>
			<point x="568.767" y="197"/>
			<point x="486.767" y="197" type="curve" smooth="yes"/>
			<point x="371.767" y="197"/>
			<point x="248.767" y="181"/>
			<point x="115.767" y="153" type="curve" smooth="yes"/>
			<point x="34.767" y="135"/>
			<point x="9.767" y="105"/>
			<point x="2.767" y="71" type="curve" smooth="yes"/>
			<point x="-7.233" y="22"/>
			<point x="25.767" y="-12"/>
			<point x="87.767" y="-12" type="curve" smooth="yes"/>
			<point x="174.767" y="-12"/>
			<point x="231.767" y="50"/>
		</contour>
	</outline>
</glyph>
<glyph name="mu.math" format="2">
	<unicode hex="00B5"/>
	<advance width="700"/>
	<outline>
		<contour>
			<point x="258.768" y="379" type="curve" smooth="yes"/>
			<point x="278.768" y="478"/>
			<point x="244.768" y="518"/>
			<point x="176.768" y="518" type="curve" smooth="yes"/>
			<point x="122.768" y="518"/>
			<point x="74.768" y="453"/>
			<point x="46.768" y="317" type="curve" smooth="yes"/>
			<point x="38.768" y="274"/>
			<point x="40.768" y="225"/>
			<point x="53.768" y="178" type="curve"/>
			<point x="37.768" y="112"/>
			<point x="17" y="41"/>
			<point x="3" y="-31" type="curve" smooth="yes"/>
			<point x="-16" y="-137"/>
			<point x="23.768" y="-158"/>
			<point x="67.768" y="-158" type="curve" smooth="yes"/>
			<point x="113.768" y="-158"/>
			<point x="148.768" y="-130"/>
			<point x="160.768" y="-72" type="curve" smooth="yes"/>
			<point x="164.768" y="-50"/>
			<point x="171.768" y="-21"/>
			<point x="178.768" y="13" type="curve"/>
			<point x="207.768" y="-1"/>
			<point x="241.768" y="-10"/>
			<point x="279.768" y="-10" type="curve" smooth="yes"/>
			<point x="354.768" y="-10"/>
			<point x="414.768" y="23"/>
			<point x="449.768" y="96" type="curve"/>
			<point x="456.768" y="67"/>
			<point x="466" y="43"/>
			<point x="479" y="22" type="curve" smooth="yes"/>
			<point x="490" y="4"/>
			<point x="505" y="-7"/>
			<point x="530" y="-7" type="curve" smooth="yes"/>
			<point x="618" y="-7"/>
			<point x="672" y="98"/>
			<point x="635" y="147" type="curve" smooth="yes"/>
			<point x="595" y="202"/>
			<point x="588.768" y="277"/>
			<point x="611.768" y="422" type="curve" smooth="yes"/>
			<point x="621.768" y="486"/>
			<point x="588.768" y="517"/>
			<point x="533.768" y="517" type="curve" smooth="yes"/>
			<point x="479.768" y="517"/>
			<point x="459.768" y="488"/>
			<point x="449.768" y="439" type="curve" smooth="yes"/>
			<point x="442.768" y="407"/>
			<point x="441.768" y="382"/>
			<point x="433.768" y="342" type="curve" smooth="yes"/>
			<point x="416.768" y="256"/>
			<point x="365.768" y="165"/>
			<point x="302.768" y="165" type="curve" smooth="yes"/>
			<point x="272.768" y="165"/>
			<point x="242.768" y="195"/>
			<point x="227.768" y="234" type="curve"/>
			<point x="238.768" y="283"/>
			<point x="248.768" y="332"/>
		</contour>
	</outline>
</glyph>
<glyph name="questiondown" format="2">
	<unicode hex="00BF"/>
	<advance width="452"/>
	<outline>
		<contour>
			<point x="340" y="-231" type="curve" smooth="yes"/>
			<point x="381.858" y="-210.637"/>
			<point x="416.191" y="-178.622"/>
			<point x="424" y="-134" type="curve" smooth="yes"/>
			<point x="435" y="-78"/>
			<point x="405" y="-53"/>
			<point x="363" y="-53" type="curve" smooth="yes"/>
			<point x="313.121" y="-53"/>
			<point x="285.759" y="-91"/>
			<point x="186" y="-91" type="curve" smooth="yes"/>
			<point x="134.841" y="-91"/>
			<point x="116.203" y="-65.851"/>
			<point x="123" y="-33" type="curve" smooth="yes"/>
			<point x="127.605" y="-8.132"/>
			<point x="139" y="9"/>
			<point x="219" y="43" type="curve" smooth="yes"/>
			<point x="316.229" y="83.836"/>
			<point x="340.72" y="113.519"/>
			<point x="349" y="154" type="curve" smooth="yes"/>
			<point x="361.965" y="222.067"/>
			<point x="326.558" y="283"/>
			<point x="251.428" y="283" type="curve" smooth="yes"/>
			<point x="209.428" y="283"/>
			<point x="184" y="264"/>
			<point x="178" y="235" type="curve" smooth="yes"/>
			<point x="173" y="209"/>
			<point x="187.428" y="195"/>
			<point x="185.428" y="187" type="curve" smooth="yes"/>
			<point x="184.428" y="178"/>
			<point x="171" y="166"/>
			<point x="89" y="132" type="curve" smooth="yes"/>
			<point x="12" y="100"/>
			<point x="-34" y="54"/>
			<point x="-51" y="-28" type="curve" smooth="yes"/>
			<point x="-78" y="-158"/>
			<point x="1" y="-261"/>
			<point x="189" y="-261" type="curve" smooth="yes"/>
			<point x="237.77" y="-261"/>
			<point x="295.191" y="-252.182"/>
		</contour>
		<contour>
			<point x="311" y="527" type="curve" smooth="yes"/>
			<point x="250" y="527"/>
			<point x="212.03" y="499.246"/>
			<point x="203" y="455" type="curve" smooth="yes"/>
			<point x="192.232" y="401.159"/>
			<point x="221.14" y="349"/>
			<point x="299.428" y="349" type="curve" smooth="yes"/>
			<point x="351.225" y="349"/>
			<point x="393" y="375"/>
			<point x="404" y="428" type="curve" smooth="yes"/>
			<point x="416" y="489"/>
			<point x="377" y="527"/>
		</contour>
	</outline>
</glyph>
<glyph name="AE" format="2">
	<unicode hex="00C6"/>
	<advance width="1117"/>
	<outline>
		<contour>
			<point x="652.48" y="502" type="curve" smooth="yes"/>
			<point x="711.48" y="502"/>
			<point x="903.48" y="545"/>
			<point x="1096.48" y="545" type="curve" smooth="yes"/>
			<point x="1127.48" y="545"/>
			<point x="1142.48" y="568"/>
			<point x="1147.48" y="597" type="curve" smooth="yes"/>
			<point x="1160.48" y="661"/>
			<point x="1104.48" y="712"/>
			<point x="993.48" y="712" type="curve" smooth="yes"/>
			<point x="910.48" y="712"/>
			<point x="739.48" y="697"/>
			<point x="592.48" y="652" type="curve" smooth="yes"/>
			<point x="556.48" y="641"/>
			<point x="545.48" y="622"/>
			<point x="540.48" y="597" type="curve" smooth="yes"/>
			<point x="530.48" y="546"/>
			<point x="566.48" y="502"/>
		</contour>
		<contour>
			<point x="114.48" y="160" type="curve" smooth="yes"/>
			<point x="267.48" y="157"/>
			<point x="489.48" y="252"/>
			<point x="894.48" y="276" type="curve" smooth="yes"/>
			<point x="951.48" y="280"/>
			<point x="1009" y="304"/>
			<point x="1022" y="368" type="curve" smooth="yes"/>
			<point x="1032" y="422"/>
			<point x="1009.48" y="444"/>
			<point x="939.48" y="444" type="curve" smooth="yes"/>
			<point x="798.48" y="444"/>
			<point x="359.48" y="366"/>
			<point x="101.48" y="300" type="curve" smooth="yes"/>
			<point x="33.48" y="283"/>
			<point x="18.48" y="270"/>
			<point x="14.48" y="248" type="curve" smooth="yes"/>
			<point x="3.48" y="196"/>
			<point x="55.48" y="160"/>
		</contour>
		<contour>
			<point x="762" y="-7" type="curve" smooth="yes"/>
			<point x="934" y="-7"/>
			<point x="1035" y="45"/>
			<point x="1053.48" y="139" type="curve" smooth="yes"/>
			<point x="1062" y="183"/>
			<point x="1040" y="211"/>
			<point x="992" y="211" type="curve" smooth="yes"/>
			<point x="954" y="211"/>
			<point x="879" y="168"/>
			<point x="767.48" y="168" type="curve" smooth="yes"/>
			<point x="677.48" y="168"/>
			<point x="663.48" y="250"/>
			<point x="673.48" y="357" type="curve" smooth="yes"/>
			<point x="695.48" y="610"/>
			<point x="669" y="711"/>
			<point x="503" y="711" type="curve" smooth="yes"/>
			<point x="415" y="711"/>
			<point x="321" y="642"/>
			<point x="248.48" y="517" type="curve"/>
			<point x="334.48" y="535" type="line"/>
			<point x="303.48" y="570"/>
			<point x="283.48" y="585"/>
			<point x="254.48" y="585" type="curve" smooth="yes"/>
			<point x="220.48" y="585"/>
			<point x="202.48" y="569"/>
			<point x="197.48" y="544" type="curve" smooth="yes"/>
			<point x="173.48" y="423"/>
			<point x="91.48" y="319"/>
			<point x="59.48" y="160" type="curve" smooth="yes"/>
			<point x="38.48" y="54"/>
			<point x="81.48" y="-8"/>
			<point x="130.48" y="-8" type="curve" smooth="yes"/>
			<point x="171.48" y="-10"/>
			<point x="194.48" y="10"/>
			<point x="208.48" y="57" type="curve" smooth="yes"/>
			<point x="305.48" y="354"/>
			<point x="423.48" y="538"/>
			<point x="481.48" y="538" type="curve" smooth="yes"/>
			<point x="499.48" y="538"/>
			<point x="509.48" y="530"/>
			<point x="490.48" y="362" type="curve" smooth="yes"/>
			<point x="465.48" y="137"/>
			<point x="518" y="-7"/>
		</contour>
	</outline>
	<anchor name="top" x="681.481" y="700"/>
</glyph>
<glyph name="germandbls" format="2">
	<unicode hex="00DF"/>
	<advance width="698"/>
	<outline>
		<contour>
			<point x="424.248" y="760" type="curve" smooth="yes"/>
			<point x="260.248" y="760"/>
			<point x="109" y="644"/>
			<point x="71" y="454" type="curve" smooth="yes"/>
			<point x="47" y="337"/>
			<point x="47" y="280"/>
			<point x="20" y="145" type="curve" smooth="yes"/>
			<point x="0" y="45"/>
			<point x="40" y="-10"/>
			<point x="92" y="-10" type="curve" smooth="yes"/>
			<point x="140" y="-10"/>
			<point x="168" y="14"/>
			<point x="186" y="104" type="curve" smooth="yes"/>
			<point x="214" y="245"/>
			<point x="214.248" y="324"/>
			<point x="231.248" y="410" type="curve" smooth="yes"/>
			<point x="255.248" y="531"/>
			<point x="311.248" y="589"/>
			<point x="414.248" y="589" type="curve" smooth="yes"/>
			<point x="463.248" y="589"/>
			<point x="489.248" y="566"/>
			<point x="499.248" y="527" type="curve"/>
			<point x="446.248" y="475"/>
			<point x="312.248" y="459"/>
			<point x="292.248" y="362" type="curve" smooth="yes"/>
			<point x="261.248" y="204"/>
			<point x="474.248" y="227"/>
			<point x="491.248" y="170" type="curve"/>
			<point x="475.248" y="162"/>
			<point x="453.248" y="154"/>
			<point x="422.248" y="154" type="curve" smooth="yes"/>
			<point x="382.248" y="154"/>
			<point x="359.248" y="167"/>
			<point x="332.248" y="167" type="curve" smooth="yes"/>
			<point x="288.248" y="167"/>
			<point x="259.248" y="136"/>
			<point x="252.248" y="100" type="curve" smooth="yes"/>
			<point x="239.248" y="33"/>
			<point x="282.248" y="-16"/>
			<point x="376.248" y="-16" type="curve" smooth="yes"/>
			<point x="502.248" y="-16"/>
			<point x="630" y="21"/>
			<point x="656" y="150" type="curve" smooth="yes"/>
			<point x="687" y="307"/>
			<point x="489" y="321"/>
			<point x="467" y="351" type="curve"/>
			<point x="491" y="373"/>
			<point x="641" y="396"/>
			<point x="666" y="522" type="curve" smooth="yes"/>
			<point x="692" y="650"/>
			<point x="614.248" y="760"/>
		</contour>
	</outline>
</glyph>
<glyph name="dcroat" format="2">
	<unicode hex="0111"/>
	<advance width="708"/>
	<outline>
		<contour>
			<point x="428.8" y="561" type="curve" smooth="yes"/>
			<point x="463.8" y="561"/>
			<point x="523.8" y="566"/>
			<point x="681.8" y="566" type="curve" smooth="yes"/>
			<point x="731.8" y="566"/>
			<point x="765.8" y="590"/>
			<point x="773.8" y="628" type="curve" smooth="yes"/>
			<point x="780.8" y="667"/>
			<point x="753.8" y="703"/>
			<point x="676.8" y="703" type="curve" smooth="yes"/>
			<point x="579.8" y="703"/>
			<point x="490.8" y="703"/>
			<point x="396.8" y="694" type="curve" smooth="yes"/>
			<point x="338.8" y="688"/>
			<point x="317.8" y="671"/>
			<point x="311.8" y="638" type="curve" smooth="yes"/>
			<point x="301.8" y="590"/>
			<point x="343.8" y="561"/>
		</contour>
		<component base="d"/>
	</outline>
	<anchor name="bottom" x="257.54" y="0"/>
	<anchor name="top" x="626.541" y="750"/>
</glyph>
<glyph name="hbar" format="2">
	<unicode hex="0127"/>
	<advance width="693"/>
	<outline>
		<contour>
			<point x="208.388" y="569" type="curve" smooth="yes"/>
			<point x="259.388" y="569"/>
			<point x="344.388" y="579"/>
			<point x="572.388" y="579" type="curve" smooth="yes"/>
			<point x="603.388" y="579"/>
			<point x="625.388" y="600"/>
			<point x="632.388" y="633" type="curve" smooth="yes"/>
			<point x="640.388" y="677"/>
			<point x="607.388" y="710"/>
			<point x="489.388" y="710" type="curve" smooth="yes"/>
			<point x="396.388" y="710"/>
			<point x="290.388" y="702"/>
			<point x="159.388" y="688" type="curve" smooth="yes"/>
			<point x="123.388" y="684"/>
			<point x="103.388" y="669"/>
			<point x="98.388" y="645" type="curve" smooth="yes"/>
			<point x="89.388" y="601"/>
			<point x="118.388" y="569"/>
		</contour>
		<component base="h" xOffset="-2.412"/>
	</outline>
	<anchor name="bottom" x="295.976" y="0"/>
	<anchor name="top" x="238.977" y="750"/>
</glyph>
<glyph name="ohorn" format="2">
	<unicode hex="01A1"/>
	<advance width="674"/>
	<outline>
		<contour>
			<point x="540.8" y="480" type="curve" smooth="yes"/>
			<point x="503.8" y="480"/>
			<point x="473.8" y="464"/>
			<point x="463.8" y="417" type="curve" smooth="yes"/>
			<point x="458.8" y="388"/>
			<point x="478.8" y="367"/>
			<point x="535.8" y="367" type="curve" smooth="yes"/>
			<point x="647.8" y="367"/>
			<point x="712" y="403"/>
			<point x="727" y="477" type="curve" smooth="yes"/>
			<point x="740.067" y="544.346"/>
			<point x="713.167" y="590"/>
			<point x="644" y="590" type="curve" smooth="yes"/>
			<point x="600.649" y="590"/>
			<point x="573.782" y="559.903"/>
			<point x="568.8" y="533" type="curve" smooth="yes"/>
			<point x="565.8" y="520"/>
			<point x="566.8" y="513"/>
			<point x="563.8" y="499" type="curve" smooth="yes"/>
			<point x="560.8" y="487"/>
			<point x="551.8" y="480"/>
		</contour>
		<component base="o"/>
	</outline>
	<anchor name="bottom" x="296.8" y="0"/>
	<anchor name="ogonek" x="458.03" y="37"/>
	<anchor name="top" x="369.801" y="515"/>
</glyph>
<glyph name="Djecyr" format="2">
	<unicode hex="0402"/>
	<advance width="794"/>
	<outline>
		<contour>
			<point x="720.638" y="146" type="curve" smooth="yes"/>
			<point x="748.638" y="287"/>
			<point x="730.638" y="428"/>
			<point x="593.638" y="428" type="curve" smooth="yes"/>
			<point x="510.638" y="428"/>
			<point x="402.638" y="355"/>
			<point x="327.638" y="257" type="curve"/>
			<point x="340.638" y="192" type="line"/>
			<point x="354.638" y="261"/>
			<point x="356.638" y="344"/>
			<point x="408.638" y="514" type="curve" smooth="yes"/>
			<point x="434.638" y="602"/>
			<point x="411.638" y="640"/>
			<point x="328.638" y="640" type="curve" smooth="yes"/>
			<point x="287.638" y="640"/>
			<point x="253.638" y="610"/>
			<point x="242.638" y="568" type="curve" smooth="yes"/>
			<point x="161.638" y="286"/>
			<point x="140.638" y="195"/>
			<point x="147.638" y="85" type="curve" smooth="yes"/>
			<point x="155.638" y="10"/>
			<point x="191.638" y="-10"/>
			<point x="236.638" y="-10" type="curve" smooth="yes"/>
			<point x="270.638" y="-10"/>
			<point x="296.638" y="20"/>
			<point x="340.638" y="76" type="curve" smooth="yes"/>
			<point x="415.638" y="172"/>
			<point x="479.638" y="221"/>
			<point x="536.638" y="254" type="curve"/>
			<point x="549.638" y="229"/>
			<point x="549.638" y="184"/>
			<point x="539.638" y="136" type="curve" smooth="yes"/>
			<point x="517.638" y="25"/>
			<point x="471.638" y="-31"/>
			<point x="424.638" y="-52" type="curve" smooth="yes"/>
			<point x="381.638" y="-71"/>
			<point x="334.638" y="-81"/>
			<point x="325.638" y="-125" type="curve" smooth="yes"/>
			<point x="319.638" y="-155"/>
			<point x="332.638" y="-197"/>
			<point x="397.638" y="-197" type="curve" smooth="yes"/>
			<point x="534.638" y="-197"/>
			<point x="682.638" y="-46"/>
		</contour>
		<contour>
			<point x="183.638" y="543" type="curve" smooth="yes"/>
			<point x="291.638" y="532"/>
			<point x="406.638" y="532"/>
			<point x="513.638" y="532" type="curve" smooth="yes"/>
			<point x="610.638" y="532"/>
			<point x="688.638" y="566"/>
			<point x="705.638" y="649" type="curve" smooth="yes"/>
			<point x="712.638" y="686"/>
			<point x="697.638" y="711"/>
			<point x="655.638" y="711" type="curve" smooth="yes"/>
			<point x="592.638" y="711"/>
			<point x="521.638" y="700"/>
			<point x="457.638" y="700" type="curve" smooth="yes"/>
			<point x="365.638" y="700"/>
			<point x="259.638" y="710"/>
			<point x="158.638" y="710" type="curve" smooth="yes"/>
			<point x="120.638" y="710"/>
			<point x="100.638" y="683"/>
			<point x="93.638" y="651" type="curve" smooth="yes"/>
			<point x="80.638" y="585"/>
			<point x="100.638" y="551"/>
		</contour>
	</outline>
</glyph>
<glyph name="Njecyr" format="2">
	<unicode hex="040A"/>
	<advance width="1027"/>
	<outline>
		<contour>
			<point x="137.446" y="-12" type="curve" smooth="yes"/>
			<point x="183.446" y="-12"/>
			<point x="217.446" y="15"/>
			<point x="226.446" y="61" type="curve" smooth="yes"/>
			<point x="253.446" y="193"/>
			<point x="287.446" y="385"/>
			<point x="326.446" y="580" type="curve" smooth="yes"/>
			<point x="344.446" y="670"/>
			<point x="308.446" y="709"/>
			<point x="247.446" y="709" type="curve" smooth="yes"/>
			<point x="189.446" y="709"/>
			<point x="157.446" y="681"/>
			<point x="143.446" y="612" type="curve" smooth="yes"/>
			<point x="133.446" y="558"/>
			<point x="89.446" y="259"/>
			<point x="53.446" y="119" type="curve" smooth="yes"/>
			<point x="30.446" y="31"/>
			<point x="71.446" y="-12"/>
		</contour>
		<contour>
			<point x="802.446" y="313" type="curve" smooth="yes"/>
			<point x="839.446" y="313"/>
			<point x="851.446" y="295"/>
			<point x="847.446" y="274" type="curve" smooth="yes"/>
			<point x="834.446" y="208"/>
			<point x="746.446" y="148"/>
			<point x="682.446" y="148" type="curve" smooth="yes"/>
			<point x="595.446" y="148"/>
			<point x="614.446" y="220"/>
			<point x="628.446" y="291" type="curve" smooth="yes"/>
			<point x="643.446" y="365"/>
			<point x="687.446" y="509"/>
			<point x="705.446" y="598" type="curve" smooth="yes"/>
			<point x="720.446" y="674"/>
			<point x="679.446" y="709"/>
			<point x="621.446" y="709" type="curve" smooth="yes"/>
			<point x="570.446" y="709"/>
			<point x="545.446" y="684"/>
			<point x="536.446" y="641" type="curve" smooth="yes"/>
			<point x="530.446" y="611"/>
			<point x="534.446" y="579"/>
			<point x="527.446" y="545" type="curve" smooth="yes"/>
			<point x="512.446" y="468"/>
			<point x="478.446" y="374"/>
			<point x="458.446" y="274" type="curve" smooth="yes"/>
			<point x="429.446" y="128"/>
			<point x="446.446" y="-19"/>
			<point x="638.446" y="-19" type="curve" smooth="yes"/>
			<point x="793.446" y="-19"/>
			<point x="994.446" y="147"/>
			<point x="1022.446" y="284" type="curve" smooth="yes"/>
			<point x="1045.446" y="399"/>
			<point x="990.446" y="473"/>
			<point x="850.446" y="473" type="curve" smooth="yes"/>
			<point x="769.446" y="473"/>
			<point x="655.446" y="461"/>
			<point x="559.446" y="453" type="curve" smooth="yes"/>
			<point x="433.446" y="443"/>
			<point x="191.446" y="428"/>
			<point x="96.446" y="404" type="curve" smooth="yes"/>
			<point x="66.446" y="396"/>
			<point x="57.446" y="380"/>
			<point x="52.446" y="355" type="curve" smooth="yes"/>
			<point x="42.446" y="304"/>
			<point x="69.446" y="261"/>
			<point x="195.446" y="261" type="curve" smooth="yes"/>
			<point x="256.446" y="261"/>
			<point x="491.446" y="293"/>
			<point x="575.446" y="302" type="curve" smooth="yes"/>
			<point x="677.446" y="313"/>
			<point x="744.446" y="313"/>
		</contour>
	</outline>
</glyph>
<glyph name="Ushortcyr" format="2">
	<unicode hex="040E"/>
	<advance width="651"/>
	<outline>
		<contour>
			<point x="452" y="896" type="curve" smooth="yes"/>
			<point x="429" y="896"/>
			<point x="420" y="919"/>
			<point x="410" y="943" type="curve" smooth="yes"/>
			<point x="401" y="965"/>
			<point x="385" y="982"/>
			<point x="359" y="982" type="curve" smooth="yes"/>
			<point x="320" y="982"/>
			<point x="281" y="958"/>
			<point x="272" y="909" type="curve" smooth="yes"/>
			<point x="256" y="830"/>
			<point x="320" y="768"/>
			<point x="421" y="768" type="curve" smooth="yes"/>
			<point x="547" y="768"/>
			<point x="648" y="846"/>
			<point x="661" y="914" type="curve" smooth="yes"/>
			<point x="669" y="950"/>
			<point x="657" y="972"/>
			<point x="625" y="972" type="curve" smooth="yes"/>
			<point x="603" y="972"/>
			<point x="573" y="955"/>
			<point x="550" y="941" type="curve" smooth="yes"/>
			<point x="516" y="920"/>
			<point x="471" y="896"/>
		</contour>
		<component base="Ucyr" xOffset="-2.615"/>
	</outline>
	<anchor name="top" x="419.186" y="700"/>
</glyph>
<glyph name="Dzhecyr" format="2">
	<unicode hex="040F"/>
	<advance width="719"/>
	<outline>
		<contour>
			<point x="38" y="193" type="curve" smooth="yes"/>
			<point x="32" y="82"/>
			<point x="91" y="-10"/>
			<point x="233" y="-10" type="curve" smooth="yes"/>
			<point x="316" y="-10"/>
			<point x="414" y="-3"/>
			<point x="498" y="32" type="curve" smooth="yes"/>
			<point x="565" y="60"/>
			<point x="614" y="101"/>
			<point x="642" y="172" type="curve" smooth="yes"/>
			<point x="650" y="194"/>
			<point x="664" y="237"/>
			<point x="675" y="292" type="curve" smooth="yes"/>
			<point x="693" y="383"/>
			<point x="707" y="576"/>
			<point x="701" y="641" type="curve" smooth="yes"/>
			<point x="697" y="688"/>
			<point x="680" y="713"/>
			<point x="633" y="713" type="curve" smooth="yes"/>
			<point x="578" y="713"/>
			<point x="527" y="666"/>
			<point x="519" y="622" type="curve" smooth="yes"/>
			<point x="506" y="561"/>
			<point x="519" y="413"/>
			<point x="502" y="328" type="curve" smooth="yes"/>
			<point x="482" y="228"/>
			<point x="470" y="187"/>
			<point x="451" y="143" type="curve"/>
			<point x="505" y="203" type="line"/>
			<point x="444" y="180"/>
			<point x="368" y="161"/>
			<point x="308" y="161" type="curve" smooth="yes"/>
			<point x="248" y="161"/>
			<point x="214" y="196"/>
			<point x="226" y="256" type="curve" smooth="yes"/>
			<point x="252" y="385"/>
			<point x="297" y="515"/>
			<point x="313" y="596" type="curve" smooth="yes"/>
			<point x="323" y="645"/>
			<point x="295" y="714"/>
			<point x="240" y="714" type="curve" smooth="yes"/>
			<point x="206" y="714"/>
			<point x="172" y="695"/>
			<point x="152" y="650" type="curve" smooth="yes"/>
			<point x="121" y="577"/>
			<point x="45" y="320"/>
		</contour>
		<contour>
			<point x="220" y="-123" type="curve" smooth="yes"/>
			<point x="212" y="-163"/>
			<point x="237" y="-207"/>
			<point x="304" y="-207" type="curve" smooth="yes"/>
			<point x="347" y="-207"/>
			<point x="385" y="-168"/>
			<point x="393" y="-128" type="curve" smooth="yes"/>
			<point x="399" y="-95"/>
			<point x="405" y="-19"/>
			<point x="421" y="61" type="curve" smooth="yes"/>
			<point x="427" y="87"/>
			<point x="407" y="99"/>
			<point x="379" y="99" type="curve" smooth="yes"/>
			<point x="336" y="99"/>
			<point x="273" y="69"/>
			<point x="263" y="21" type="curve" smooth="yes"/>
			<point x="257" y="-10"/>
			<point x="227" y="-86"/>
		</contour>
	</outline>
</glyph>
<glyph name="Becyr" format="2">
	<unicode hex="0411"/>
	<advance width="676"/>
	<outline>
		<contour>
			<point x="204" y="702" type="curve" smooth="yes"/>
			<point x="130" y="690"/>
			<point x="101" y="662"/>
			<point x="94" y="623" type="curve" smooth="yes"/>
			<point x="83" y="572"/>
			<point x="110" y="533"/>
			<point x="178" y="533" type="curve" smooth="yes"/>
			<point x="221" y="533"/>
			<point x="288" y="553"/>
			<point x="401" y="553" type="curve" smooth="yes"/>
			<point x="517" y="553"/>
			<point x="563" y="539"/>
			<point x="611" y="539" type="curve" smooth="yes"/>
			<point x="659" y="539"/>
			<point x="690" y="553"/>
			<point x="698" y="592" type="curve" smooth="yes"/>
			<point x="712" y="663"/>
			<point x="652" y="720"/>
			<point x="500" y="720" type="curve" smooth="yes"/>
			<point x="366" y="720"/>
			<point x="237" y="707"/>
		</contour>
		<contour>
			<point x="340.436" y="615" type="curve"/>
			<point x="169.436" y="619" type="line"/>
			<point x="163.436" y="595"/>
			<point x="137.436" y="492"/>
			<point x="124.436" y="424" type="curve" smooth="yes"/>
			<point x="107.436" y="339"/>
			<point x="88.436" y="278"/>
			<point x="74.436" y="212" type="curve" smooth="yes"/>
			<point x="47.436" y="75"/>
			<point x="119" y="-18"/>
			<point x="261" y="-18" type="curve" smooth="yes"/>
			<point x="444" y="-18"/>
			<point x="606.436" y="128"/>
			<point x="630.436" y="252" type="curve" smooth="yes"/>
			<point x="671.436" y="455"/>
			<point x="466.436" y="453"/>
			<point x="268.436" y="451" type="curve" smooth="yes"/>
			<point x="232.436" y="451"/>
			<point x="183.436" y="415"/>
			<point x="173.436" y="366" type="curve" smooth="yes"/>
			<point x="166.436" y="332"/>
			<point x="199.436" y="303"/>
			<point x="242.436" y="303" type="curve" smooth="yes"/>
			<point x="361.436" y="303"/>
			<point x="465" y="302"/>
			<point x="454" y="248" type="curve" smooth="yes"/>
			<point x="444" y="196"/>
			<point x="367" y="141"/>
			<point x="291" y="141" type="curve" smooth="yes"/>
			<point x="255" y="141"/>
			<point x="237.436" y="163"/>
			<point x="245.436" y="204" type="curve" smooth="yes"/>
			<point x="251.436" y="237"/>
			<point x="271.436" y="298"/>
			<point x="278.436" y="334" type="curve" smooth="yes"/>
			<point x="291.436" y="402"/>
			<point x="330.436" y="565"/>
		</contour>
	</outline>
</glyph>
<glyph name="Decyr" format="2">
	<unicode hex="0414"/>
	<advance width="816"/>
	<outline>
		<contour>
			<point x="202" y="365" type="curve" smooth="yes"/>
			<point x="154" y="279"/>
			<point x="114" y="198"/>
			<point x="63" y="111" type="curve"/>
			<point x="226" y="95" type="line"/>
			<point x="257" y="148"/>
			<point x="309" y="239"/>
			<point x="354" y="319" type="curve" smooth="yes"/>
			<point x="400" y="402"/>
			<point x="446" y="481"/>
			<point x="490" y="548" type="curve"/>
			<point x="466" y="527" type="line"/>
			<point x="491" y="433"/>
			<point x="518" y="288"/>
			<point x="510" y="92" type="curve"/>
			<point x="676" y="106" type="line"/>
			<point x="684" y="320"/>
			<point x="648" y="503"/>
			<point x="617" y="614" type="curve" smooth="yes"/>
			<point x="600" y="677"/>
			<point x="538" y="708"/>
			<point x="491" y="708" type="curve" smooth="yes"/>
			<point x="428" y="708"/>
			<point x="390" y="661"/>
			<point x="355" y="612" type="curve" smooth="yes"/>
			<point x="312" y="551"/>
			<point x="266" y="479"/>
		</contour>
		<contour>
			<point x="596.282" y="5" type="line"/>
			<point x="590.282" y="-25"/>
			<point x="576.282" y="-82"/>
			<point x="570.282" y="-111" type="curve" smooth="yes"/>
			<point x="560.282" y="-160"/>
			<point x="588" y="-197"/>
			<point x="642" y="-197" type="curve" smooth="yes"/>
			<point x="684" y="-197"/>
			<point x="721.282" y="-176"/>
			<point x="735.282" y="-133" type="curve" smooth="yes"/>
			<point x="741.282" y="-113"/>
			<point x="760.282" y="-44"/>
			<point x="770.282" y="5" type="curve" smooth="yes"/>
			<point x="786.282" y="86"/>
			<point x="780.282" y="142"/>
			<point x="693.282" y="150" type="curve" smooth="yes"/>
			<point x="650.282" y="154"/>
			<point x="560.282" y="157"/>
			<point x="465.282" y="157" type="curve" smooth="yes"/>
			<point x="283.282" y="157"/>
			<point x="146.282" y="150"/>
			<point x="90.282" y="147" type="curve" smooth="yes"/>
			<point x="-16.718" y="140"/>
			<point x="-42.718" y="76"/>
			<point x="-56.718" y="5" type="curve" smooth="yes"/>
			<point x="-65.718" y="-42"/>
			<point x="-70" y="-117"/>
			<point x="-69" y="-140" type="curve" smooth="yes"/>
			<point x="-67" y="-167"/>
			<point x="-50" y="-197"/>
			<point x="-6" y="-197" type="curve" smooth="yes"/>
			<point x="34" y="-197"/>
			<point x="80" y="-178"/>
			<point x="91" y="-123" type="curve" smooth="yes"/>
			<point x="99" y="-84"/>
			<point x="107.282" y="-7"/>
			<point x="108.282" y="45" type="curve"/>
			<point x="54.282" y="-19" type="line"/>
			<point x="130.282" y="-1"/>
			<point x="246.282" y="0"/>
			<point x="394.282" y="0" type="curve" smooth="yes"/>
			<point x="473.282" y="0"/>
			<point x="578.282" y="-4"/>
			<point x="622.282" y="-6" type="curve"/>
		</contour>
	</outline>
</glyph>
<glyph name="Icyr" format="2">
	<unicode hex="0418"/>
	<advance width="742"/>
	<outline>
		<contour>
			<point x="109.178" y="-14" type="curve" smooth="yes"/>
			<point x="37" y="-14"/>
			<point x="12.178" y="27"/>
			<point x="33.178" y="129" type="curve" smooth="yes"/>
			<point x="48.178" y="204"/>
			<point x="102.178" y="369"/>
			<point x="129.178" y="505" type="curve" smooth="yes"/>
			<point x="138.178" y="551"/>
			<point x="139.178" y="585"/>
			<point x="147.178" y="626" type="curve" smooth="yes"/>
			<point x="159.178" y="686"/>
			<point x="182" y="717"/>
			<point x="226" y="717" type="curve" smooth="yes"/>
			<point x="283" y="717"/>
			<point x="342.178" y="685"/>
			<point x="322.178" y="585" type="curve" smooth="yes"/>
			<point x="298.178" y="463"/>
			<point x="254.178" y="329"/>
			<point x="234.178" y="230" type="curve" smooth="yes"/>
			<point x="220.178" y="159"/>
			<point x="209.178" y="134"/>
			<point x="200.178" y="88" type="curve"/>
			<point x="140" y="167" type="line"/>
			<point x="226" y="225"/>
			<point x="304" y="319"/>
			<point x="386" y="417" type="curve" smooth="yes"/>
			<point x="509" y="565"/>
			<point x="592" y="716"/>
			<point x="676.178" y="716" type="curve" smooth="yes"/>
			<point x="729.178" y="716"/>
			<point x="761.178" y="679"/>
			<point x="749.178" y="621" type="curve" smooth="yes"/>
			<point x="737.178" y="561"/>
			<point x="701.178" y="443"/>
			<point x="682.178" y="350" type="curve" smooth="yes"/>
			<point x="643.178" y="154"/>
			<point x="670.178" y="136"/>
			<point x="659.178" y="78" type="curve" smooth="yes"/>
			<point x="650.178" y="35"/>
			<point x="603" y="-14"/>
			<point x="551.178" y="-14" type="curve" smooth="yes"/>
			<point x="511" y="-14"/>
			<point x="484" y="13"/>
			<point x="479" y="53" type="curve" smooth="yes"/>
			<point x="470" y="120"/>
			<point x="492.178" y="245"/>
			<point x="509.178" y="328" type="curve" smooth="yes"/>
			<point x="528.178" y="426"/>
			<point x="568.178" y="539"/>
			<point x="586.178" y="582" type="curve"/>
			<point x="637" y="532" type="line"/>
			<point x="569" y="418"/>
			<point x="466.178" y="289"/>
			<point x="382.178" y="195" type="curve" smooth="yes"/>
			<point x="300.178" y="103"/>
			<point x="177" y="-14"/>
		</contour>
	</outline>
	<anchor name="top" x="457.179" y="700"/>
	<guideline x="305.8" y="447" angle="90" identifier="9d4iEHlV35"/>
</glyph>
<glyph name="Ishortcyr" format="2">
	<unicode hex="0419"/>
	<advance width="713"/>
	<outline>
		<contour>
			<point x="496" y="896" type="curve" smooth="yes"/>
			<point x="473" y="896"/>
			<point x="464" y="919"/>
			<point x="454" y="943" type="curve" smooth="yes"/>
			<point x="445" y="965"/>
			<point x="429" y="982"/>
			<point x="403" y="982" type="curve" smooth="yes"/>
			<point x="364" y="982"/>
			<point x="325" y="958"/>
			<point x="316" y="909" type="curve" smooth="yes"/>
			<point x="300" y="830"/>
			<point x="364" y="768"/>
			<point x="465" y="768" type="curve" smooth="yes"/>
			<point x="591" y="768"/>
			<point x="692" y="846"/>
			<point x="705" y="914" type="curve" smooth="yes"/>
			<point x="713" y="950"/>
			<point x="701" y="972"/>
			<point x="669" y="972" type="curve" smooth="yes"/>
			<point x="647" y="972"/>
			<point x="617" y="955"/>
			<point x="594" y="941" type="curve" smooth="yes"/>
			<point x="560" y="920"/>
			<point x="515" y="896"/>
		</contour>
		<component base="Icyr" xOffset="-2.622"/>
	</outline>
	<anchor name="top" x="457.179" y="700"/>
</glyph>
<glyph name="Elcyr" format="2">
	<unicode hex="041B"/>
	<advance width="719"/>
	<outline>
		<contour>
			<point x="-16.679" y="68" type="curve" smooth="yes"/>
			<point x="-24.679" y="28"/>
			<point x="4.321" y="-17"/>
			<point x="52.321" y="-17" type="curve" smooth="yes"/>
			<point x="85.321" y="-17"/>
			<point x="106" y="-7"/>
			<point x="130" y="19" type="curve" smooth="yes"/>
			<point x="168" y="61"/>
			<point x="225" y="150"/>
			<point x="284" y="257" type="curve" smooth="yes"/>
			<point x="347" y="369"/>
			<point x="409" y="472"/>
			<point x="440" y="515" type="curve"/>
			<point x="424" y="525" type="line"/>
			<point x="451" y="438"/>
			<point x="468" y="215"/>
			<point x="465" y="54" type="curve" smooth="yes"/>
			<point x="464" y="4"/>
			<point x="476" y="-17"/>
			<point x="527" y="-17" type="curve" smooth="yes"/>
			<point x="579" y="-17"/>
			<point x="630.321" y="30"/>
			<point x="639.321" y="76" type="curve" smooth="yes"/>
			<point x="663.321" y="194"/>
			<point x="605" y="554"/>
			<point x="589" y="610" type="curve" smooth="yes"/>
			<point x="572" y="670"/>
			<point x="520.321" y="712"/>
			<point x="457.321" y="712" type="curve" smooth="yes"/>
			<point x="410.321" y="712"/>
			<point x="379.321" y="695"/>
			<point x="331.321" y="629" type="curve" smooth="yes"/>
			<point x="303.321" y="591"/>
			<point x="208" y="448"/>
			<point x="131.321" y="313" type="curve" smooth="yes"/>
			<point x="73" y="211"/>
			<point x="-6.679" y="121"/>
		</contour>
	</outline>
	<guideline x="45.8" y="658" angle="0" identifier="b3w6f6co8h"/>
	<guideline x="45.8" y="658" angle="0" identifier="jdn5JLBvkG"/>
	<guideline x="45.8" y="658" angle="0" identifier="mF84iu6Knu"/>
</glyph>
<glyph name="Ucyr" format="2">
	<unicode hex="0423"/>
	<advance width="648"/>
	<outline>
		<contour>
			<point x="282" y="563" type="curve" smooth="yes"/>
			<point x="288" y="593"/>
			<point x="296" y="618"/>
			<point x="302" y="644" type="curve" smooth="yes"/>
			<point x="309" y="682"/>
			<point x="279" y="715"/>
			<point x="226" y="715" type="curve" smooth="yes"/>
			<point x="161" y="715"/>
			<point x="133" y="662"/>
			<point x="124" y="613" type="curve" smooth="yes"/>
			<point x="84" y="417"/>
			<point x="113" y="276"/>
			<point x="278" y="276" type="curve" smooth="yes"/>
			<point x="395" y="276"/>
			<point x="461" y="358"/>
			<point x="530" y="453" type="curve"/>
			<point x="517" y="591" type="line"/>
			<point x="504" y="546"/>
			<point x="441" y="343"/>
			<point x="418" y="275" type="curve" smooth="yes"/>
			<point x="394" y="204"/>
			<point x="351" y="133"/>
			<point x="274" y="133" type="curve" smooth="yes"/>
			<point x="165" y="133"/>
			<point x="167" y="225"/>
			<point x="111" y="225" type="curve" smooth="yes"/>
			<point x="71" y="225"/>
			<point x="44" y="193"/>
			<point x="37" y="157" type="curve" smooth="yes"/>
			<point x="19" y="69"/>
			<point x="113" y="-10"/>
			<point x="254" y="-10" type="curve" smooth="yes"/>
			<point x="431" y="-10"/>
			<point x="520" y="108"/>
			<point x="563" y="223" type="curve" smooth="yes"/>
			<point x="603" y="329"/>
			<point x="647" y="506"/>
			<point x="663" y="585" type="curve" smooth="yes"/>
			<point x="679" y="662"/>
			<point x="652" y="711"/>
			<point x="597" y="711" type="curve" smooth="yes"/>
			<point x="559" y="711"/>
			<point x="521" y="660"/>
			<point x="487" y="595" type="curve" smooth="yes"/>
			<point x="452" y="527"/>
			<point x="395" y="426"/>
			<point x="322" y="426" type="curve" smooth="yes"/>
			<point x="255" y="426"/>
			<point x="273" y="520"/>
		</contour>
	</outline>
	<anchor name="top" x="419.186" y="700"/>
</glyph>
<glyph name="Efcyr" format="2">
	<unicode hex="0424"/>
	<advance width="931"/>
	<outline>
		<contour>
			<point x="443" y="99" type="curve" smooth="yes"/>
			<point x="133" y="99"/>
			<point x="19" y="236"/>
			<point x="56" y="417" type="curve" smooth="yes"/>
			<point x="94" y="609"/>
			<point x="304" y="685"/>
			<point x="486" y="685" type="curve"/>
			<point x="500" y="538" type="line"/>
			<point x="346" y="537"/>
			<point x="246" y="494"/>
			<point x="226" y="396" type="curve" smooth="yes"/>
			<point x="203" y="282"/>
			<point x="336" y="247"/>
			<point x="461.807" y="247" type="curve" smooth="yes"/>
			<point x="616" y="247"/>
			<point x="742" y="287"/>
			<point x="767" y="415" type="curve" smooth="yes"/>
			<point x="783" y="492"/>
			<point x="729.807" y="563"/>
			<point x="579.807" y="563" type="curve"/>
			<point x="614" y="705" type="line"/>
			<point x="884" y="702"/>
			<point x="969" y="551"/>
			<point x="940" y="406" type="curve" smooth="yes"/>
			<point x="899" y="202"/>
			<point x="700" y="99"/>
		</contour>
		<contour>
			<point x="416.807" y="-14" type="curve" smooth="yes"/>
			<point x="368.807" y="-14"/>
			<point x="329.807" y="29"/>
			<point x="338.807" y="74" type="curve" smooth="yes"/>
			<point x="345.807" y="110"/>
			<point x="384.807" y="237"/>
			<point x="416.807" y="393" type="curve" smooth="yes"/>
			<point x="455.807" y="592"/>
			<point x="464.807" y="697"/>
			<point x="475.807" y="751" type="curve" smooth="yes"/>
			<point x="485.807" y="798"/>
			<point x="509.807" y="827"/>
			<point x="556.807" y="827" type="curve" smooth="yes"/>
			<point x="602.807" y="827"/>
			<point x="651.807" y="797"/>
			<point x="647.807" y="750" type="curve" smooth="yes"/>
			<point x="644.807" y="715"/>
			<point x="629.807" y="600"/>
			<point x="588.807" y="393" type="curve" smooth="yes"/>
			<point x="555.807" y="229"/>
			<point x="514.807" y="86"/>
			<point x="507.807" y="60" type="curve" smooth="yes"/>
			<point x="495.807" y="18"/>
			<point x="464.807" y="-14"/>
		</contour>
	</outline>
</glyph>
<glyph name="Tsecyr" format="2">
	<unicode hex="0426"/>
	<advance width="735"/>
	<outline>
		<contour>
			<point x="696" y="625" type="curve" smooth="yes"/>
			<point x="694" y="681"/>
			<point x="645" y="712"/>
			<point x="603" y="712" type="curve" smooth="yes"/>
			<point x="559" y="712"/>
			<point x="535" y="675"/>
			<point x="525" y="626" type="curve" smooth="yes"/>
			<point x="516" y="581"/>
			<point x="502" y="471"/>
			<point x="483" y="374" type="curve" smooth="yes"/>
			<point x="462" y="270"/>
			<point x="442" y="188"/>
			<point x="426" y="142" type="curve"/>
			<point x="588" y="118" type="line"/>
			<point x="627" y="250"/>
			<point x="651" y="354"/>
			<point x="671" y="453" type="curve" smooth="yes"/>
			<point x="686" y="532"/>
			<point x="697" y="591"/>
		</contour>
		<contour>
			<point x="308" y="606" type="curve" smooth="yes"/>
			<point x="320" y="666"/>
			<point x="268" y="715"/>
			<point x="215" y="715" type="curve" smooth="yes"/>
			<point x="169" y="715"/>
			<point x="150.544" y="677"/>
			<point x="141.544" y="631" type="curve" smooth="yes"/>
			<point x="118.544" y="514"/>
			<point x="83" y="349"/>
			<point x="50" y="185" type="curve" smooth="yes"/>
			<point x="26" y="65"/>
			<point x="89" y="-9"/>
			<point x="201" y="-9" type="curve" smooth="yes"/>
			<point x="298" y="-9"/>
			<point x="369.544" y="0"/>
			<point x="450.544" y="0" type="curve" smooth="yes"/>
			<point x="482.544" y="0"/>
			<point x="512.544" y="-1"/>
			<point x="537.544" y="-5" type="curve"/>
			<point x="516.544" y="17" type="line"/>
			<point x="516" y="4"/>
			<point x="515" y="-15"/>
			<point x="510" y="-36" type="curve" smooth="yes"/>
			<point x="501" y="-73"/>
			<point x="493" y="-93"/>
			<point x="487" y="-125" type="curve" smooth="yes"/>
			<point x="479" y="-167"/>
			<point x="518" y="-198"/>
			<point x="565" y="-198" type="curve" smooth="yes"/>
			<point x="603" y="-198"/>
			<point x="629" y="-175"/>
			<point x="647" y="-144" type="curve" smooth="yes"/>
			<point x="667" y="-107"/>
			<point x="678" y="-60"/>
			<point x="691" y="4" type="curve" smooth="yes"/>
			<point x="710" y="101"/>
			<point x="694" y="169"/>
			<point x="597" y="169" type="curve" smooth="yes"/>
			<point x="489" y="169"/>
			<point x="363" y="157"/>
			<point x="255" y="157" type="curve" smooth="yes"/>
			<point x="225" y="157"/>
			<point x="215" y="170"/>
			<point x="220" y="200" type="curve" smooth="yes"/>
			<point x="243" y="340"/>
			<point x="281" y="470"/>
		</contour>
	</outline>
</glyph>
<glyph name="Shacyr" format="2">
	<unicode hex="0428"/>
	<advance width="973"/>
	<outline>
		<contour>
			<point x="405" y="-10" type="curve" smooth="yes"/>
			<point x="54" y="-10"/>
			<point x="13" y="92"/>
			<point x="50.846" y="293" type="curve" smooth="yes"/>
			<point x="75" y="422"/>
			<point x="126.846" y="595"/>
			<point x="150.846" y="650" type="curve" smooth="yes"/>
			<point x="170.846" y="695"/>
			<point x="204.846" y="714"/>
			<point x="238.846" y="714" type="curve" smooth="yes"/>
			<point x="293.846" y="714"/>
			<point x="321.846" y="645"/>
			<point x="311.846" y="596" type="curve" smooth="yes"/>
			<point x="295.846" y="515"/>
			<point x="243" y="382"/>
			<point x="221" y="253" type="curve" smooth="yes"/>
			<point x="214" y="210"/>
			<point x="220" y="190"/>
			<point x="231" y="179" type="curve" smooth="yes"/>
			<point x="267" y="146"/>
			<point x="355.846" y="152"/>
			<point x="430.846" y="152" type="curve" smooth="yes"/>
			<point x="597.846" y="152"/>
			<point x="654" y="154"/>
			<point x="703" y="184" type="curve" smooth="yes"/>
			<point x="739" y="207"/>
			<point x="760.846" y="267"/>
			<point x="773.846" y="331" type="curve" smooth="yes"/>
			<point x="800.846" y="467"/>
			<point x="799.846" y="593"/>
			<point x="805.846" y="624" type="curve" smooth="yes"/>
			<point x="813.846" y="667"/>
			<point x="868.846" y="713"/>
			<point x="916.846" y="713" type="curve" smooth="yes"/>
			<point x="963.846" y="713"/>
			<point x="977.846" y="687"/>
			<point x="979.846" y="641" type="curve" smooth="yes"/>
			<point x="981.846" y="591"/>
			<point x="969.846" y="468"/>
			<point x="945.846" y="352" type="curve" smooth="yes"/>
			<point x="930.846" y="273"/>
			<point x="905" y="187"/>
			<point x="882" y="139" type="curve" smooth="yes"/>
			<point x="824" y="23"/>
			<point x="696" y="-10"/>
		</contour>
		<contour>
			<point x="366.846" y="96" type="line"/>
			<point x="367.846" y="149"/>
			<point x="378.846" y="213"/>
			<point x="391.846" y="278" type="curve" smooth="yes"/>
			<point x="412.846" y="383"/>
			<point x="442.846" y="510"/>
			<point x="457.846" y="584" type="curve" smooth="yes"/>
			<point x="470.846" y="648"/>
			<point x="485.846" y="701"/>
			<point x="545.846" y="701" type="curve" smooth="yes"/>
			<point x="630.846" y="701"/>
			<point x="638.846" y="639"/>
			<point x="611.846" y="507" type="curve" smooth="yes"/>
			<point x="599.846" y="447"/>
			<point x="580.846" y="366"/>
			<point x="566.846" y="293" type="curve" smooth="yes"/>
			<point x="552.846" y="225"/>
			<point x="540.846" y="157"/>
			<point x="538.846" y="98" type="curve"/>
		</contour>
	</outline>
</glyph>
<glyph name="Shchacyr" format="2">
	<unicode hex="0429"/>
	<advance width="1044"/>
	<outline>
		<contour>
			<point x="654.924" y="609" type="curve" smooth="yes"/>
			<point x="663.924" y="654"/>
			<point x="620.924" y="696"/>
			<point x="575.924" y="696" type="curve" smooth="yes"/>
			<point x="527.924" y="696"/>
			<point x="496" y="661"/>
			<point x="484" y="615" type="curve" smooth="yes"/>
			<point x="474" y="574"/>
			<point x="446.924" y="480"/>
			<point x="419.924" y="343" type="curve" smooth="yes"/>
			<point x="403.924" y="263"/>
			<point x="390.924" y="183"/>
			<point x="389.924" y="127" type="curve" smooth="yes"/>
			<point x="389.924" y="86"/>
			<point x="420.924" y="54"/>
			<point x="461.924" y="54" type="curve" smooth="yes"/>
			<point x="502.924" y="54"/>
			<point x="551.924" y="81"/>
			<point x="561.924" y="128" type="curve" smooth="yes"/>
			<point x="568.924" y="167"/>
			<point x="567.924" y="235"/>
			<point x="589.924" y="344" type="curve" smooth="yes"/>
			<point x="610.924" y="451"/>
			<point x="645.924" y="566"/>
		</contour>
		<contour>
			<point x="898.924" y="165" type="curve" smooth="yes"/>
			<point x="914.924" y="243"/>
			<point x="926.924" y="316"/>
			<point x="945.924" y="383" type="curve" smooth="yes"/>
			<point x="971.924" y="477"/>
			<point x="1005.924" y="567"/>
			<point x="1012.924" y="602" type="curve" smooth="yes"/>
			<point x="1022.924" y="649"/>
			<point x="1007.924" y="715"/>
			<point x="942.924" y="715" type="curve" smooth="yes"/>
			<point x="890.924" y="715"/>
			<point x="869.924" y="687"/>
			<point x="846.924" y="624" type="curve" smooth="yes"/>
			<point x="816.924" y="547"/>
			<point x="767.924" y="374"/>
			<point x="736.924" y="221" type="curve" smooth="yes"/>
			<point x="719.924" y="136"/>
			<point x="729.924" y="76"/>
			<point x="795.924" y="76" type="curve" smooth="yes"/>
			<point x="842.924" y="76"/>
			<point x="888.924" y="117"/>
		</contour>
		<contour>
			<point x="240.924" y="713" type="curve" smooth="yes"/>
			<point x="196.924" y="713"/>
			<point x="168.924" y="679"/>
			<point x="159.924" y="634" type="curve" smooth="yes"/>
			<point x="157.924" y="624"/>
			<point x="154.924" y="602"/>
			<point x="152.924" y="589" type="curve" smooth="yes"/>
			<point x="127.924" y="463"/>
			<point x="70" y="315"/>
			<point x="53" y="229" type="curve" smooth="yes"/>
			<point x="24" y="86"/>
			<point x="75" y="-10"/>
			<point x="351" y="-10" type="curve" smooth="yes"/>
			<point x="538" y="-10"/>
			<point x="678.924" y="18"/>
			<point x="778.924" y="18" type="curve" smooth="yes"/>
			<point x="800.924" y="18"/>
			<point x="820.924" y="17"/>
			<point x="838.924" y="13" type="curve"/>
			<point x="838.924" y="51" type="line"/>
			<point x="818" y="-15"/>
			<point x="779" y="-74"/>
			<point x="770" y="-121" type="curve" smooth="yes"/>
			<point x="762" y="-158"/>
			<point x="783" y="-197"/>
			<point x="840" y="-197" type="curve" smooth="yes"/>
			<point x="867" y="-197"/>
			<point x="897" y="-184"/>
			<point x="920" y="-156" type="curve" smooth="yes"/>
			<point x="968" y="-96"/>
			<point x="998.924" y="-9"/>
			<point x="1010.924" y="48" type="curve" smooth="yes"/>
			<point x="1026.924" y="132"/>
			<point x="990" y="184"/>
			<point x="894" y="184" type="curve" smooth="yes"/>
			<point x="772" y="184"/>
			<point x="531" y="159"/>
			<point x="326.924" y="159" type="curve" smooth="yes"/>
			<point x="251" y="159"/>
			<point x="216" y="179"/>
			<point x="227" y="237" type="curve" smooth="yes"/>
			<point x="241" y="303"/>
			<point x="299.924" y="459"/>
			<point x="324.924" y="583" type="curve" smooth="yes"/>
			<point x="340.924" y="667"/>
			<point x="300.924" y="713"/>
		</contour>
	</outline>
</glyph>
<glyph name="Yucyr" format="2">
	<unicode hex="042E"/>
	<advance width="968"/>
	<outline>
		<contour>
			<point x="303.957" y="646" type="curve" smooth="yes"/>
			<point x="303.957" y="686"/>
			<point x="278.957" y="714"/>
			<point x="239.957" y="714" type="curve" smooth="yes"/>
			<point x="186.957" y="714"/>
			<point x="139.957" y="674"/>
			<point x="130.957" y="628" type="curve" smooth="yes"/>
			<point x="127.957" y="615"/>
			<point x="126.957" y="496"/>
			<point x="108.957" y="404" type="curve" smooth="yes"/>
			<point x="85.957" y="292"/>
			<point x="17.957" y="122"/>
			<point x="8.957" y="73" type="curve" smooth="yes"/>
			<point x="-2.043" y="20"/>
			<point x="34.957" y="-10"/>
			<point x="78.957" y="-10" type="curve" smooth="yes"/>
			<point x="114.957" y="-10"/>
			<point x="154.957" y="15"/>
			<point x="169.957" y="62" type="curve" smooth="yes"/>
			<point x="188.957" y="118"/>
			<point x="206.957" y="194"/>
			<point x="248.957" y="241" type="curve" smooth="yes"/>
			<point x="280.957" y="277"/>
			<point x="326.957" y="286"/>
			<point x="373.957" y="286" type="curve" smooth="yes"/>
			<point x="457.957" y="286"/>
			<point x="522.957" y="439"/>
			<point x="643.957" y="510" type="curve"/>
			<point x="620.957" y="632" type="line"/>
			<point x="447.957" y="550"/>
			<point x="353.957" y="413"/>
			<point x="329.957" y="296" type="curve" smooth="yes"/>
			<point x="299.957" y="145"/>
			<point x="359.957" y="-12"/>
			<point x="569.957" y="-12" type="curve" smooth="yes"/>
			<point x="755.957" y="-12"/>
			<point x="919.957" y="130"/>
			<point x="950.957" y="286" type="curve" smooth="yes"/>
			<point x="1000.957" y="537"/>
			<point x="863.957" y="718"/>
			<point x="669.957" y="718" type="curve" smooth="yes"/>
			<point x="623.957" y="718"/>
			<point x="575.957" y="678"/>
			<point x="565.957" y="632" type="curve" smooth="yes"/>
			<point x="556.957" y="586"/>
			<point x="588.957" y="546"/>
			<point x="634.957" y="546" type="curve" smooth="yes"/>
			<point x="750.957" y="546"/>
			<point x="805.957" y="427"/>
			<point x="781.957" y="306" type="curve" smooth="yes"/>
			<point x="764.957" y="218"/>
			<point x="687.957" y="156"/>
			<point x="603.957" y="156" type="curve" smooth="yes"/>
			<point x="505.957" y="156"/>
			<point x="487.957" y="223"/>
			<point x="501.957" y="294" type="curve" smooth="yes"/>
			<point x="516.957" y="371"/>
			<point x="594.957" y="475"/>
			<point x="711.957" y="531" type="curve"/>
			<point x="634.957" y="629" type="line"/>
			<point x="602.957" y="565"/>
			<point x="460.957" y="449"/>
			<point x="400.957" y="449" type="curve" smooth="yes"/>
			<point x="273.957" y="449"/>
			<point x="237.957" y="408"/>
			<point x="175.957" y="352" type="curve" smooth="yes"/>
			<point x="97.957" y="278"/>
			<point x="35.957" y="102"/>
			<point x="35.957" y="102" type="curve"/>
			<point x="174.957" y="84" type="line"/>
			<point x="174.957" y="84"/>
			<point x="260.957" y="318"/>
			<point x="280.957" y="420" type="curve" smooth="yes"/>
			<point x="301.957" y="526"/>
			<point x="304.957" y="623"/>
		</contour>
	</outline>
</glyph>
<glyph name="Yacyr" format="2">
	<unicode hex="042F"/>
	<advance width="647"/>
	<outline>
		<contour>
			<point x="381.534" y="61" type="curve" smooth="yes"/>
			<point x="381.534" y="20"/>
			<point x="400.534" y="-10"/>
			<point x="440.534" y="-10" type="curve" smooth="yes"/>
			<point x="487.534" y="-10"/>
			<point x="547.534" y="25"/>
			<point x="556.534" y="70" type="curve" smooth="yes"/>
			<point x="561.534" y="94"/>
			<point x="557.534" y="175"/>
			<point x="578.534" y="278" type="curve" smooth="yes"/>
			<point x="603.534" y="405"/>
			<point x="653.534" y="567"/>
			<point x="660.534" y="600" type="curve" smooth="yes"/>
			<point x="676.534" y="680"/>
			<point x="615.534" y="712"/>
			<point x="489.534" y="712" type="curve" smooth="yes"/>
			<point x="194.534" y="712"/>
			<point x="84.534" y="552"/>
			<point x="65.534" y="455" type="curve" smooth="yes"/>
			<point x="50.534" y="381"/>
			<point x="89.534" y="268"/>
			<point x="296.534" y="245" type="curve"/>
			<point x="264.534" y="299" type="line"/>
			<point x="214.534" y="256"/>
			<point x="162.534" y="219"/>
			<point x="109.534" y="185" type="curve" smooth="yes"/>
			<point x="34.534" y="136"/>
			<point x="-19.466" y="107"/>
			<point x="-27.466" y="67" type="curve" smooth="yes"/>
			<point x="-32.466" y="38"/>
			<point x="-27.466" y="-13"/>
			<point x="21.534" y="-13" type="curve" smooth="yes"/>
			<point x="74.534" y="-13"/>
			<point x="140.534" y="25"/>
			<point x="258.534" y="111" type="curve" smooth="yes"/>
			<point x="319.534" y="156"/>
			<point x="446.534" y="257"/>
			<point x="454.534" y="296" type="curve" smooth="yes"/>
			<point x="461.534" y="329"/>
			<point x="459.534" y="344"/>
			<point x="405.534" y="355" type="curve" smooth="yes"/>
			<point x="298.534" y="377"/>
			<point x="232.534" y="409"/>
			<point x="241.534" y="454" type="curve" smooth="yes"/>
			<point x="249.534" y="497"/>
			<point x="326.534" y="546"/>
			<point x="409.534" y="546" type="curve" smooth="yes"/>
			<point x="445.534" y="546"/>
			<point x="472.534" y="541"/>
			<point x="488.534" y="537" type="curve"/>
			<point x="481.534" y="565" type="line"/>
			<point x="474.534" y="532"/>
			<point x="426.534" y="368"/>
			<point x="404.534" y="268" type="curve" smooth="yes"/>
			<point x="385.534" y="174"/>
			<point x="381.534" y="72"/>
		</contour>
	</outline>
</glyph>
<glyph name="becyr" format="2">
	<unicode hex="0431"/>
	<advance width="619"/>
	<outline>
		<contour>
			<point x="258.457" y="-15" type="curve" smooth="yes"/>
			<point x="56.457" y="-15"/>
			<point x="8.457" y="149"/>
			<point x="49.457" y="356" type="curve" smooth="yes"/>
			<point x="89.457" y="555"/>
			<point x="221.457" y="666"/>
			<point x="322.457" y="702" type="curve" smooth="yes"/>
			<point x="367.457" y="718"/>
			<point x="431.457" y="725"/>
			<point x="488.457" y="736" type="curve" smooth="yes"/>
			<point x="553.457" y="748"/>
			<point x="597.457" y="762"/>
			<point x="616.457" y="762" type="curve" smooth="yes"/>
			<point x="654.457" y="762"/>
			<point x="708.457" y="735"/>
			<point x="695.457" y="669" type="curve" smooth="yes"/>
			<point x="688.457" y="637"/>
			<point x="655.457" y="614"/>
			<point x="601.457" y="601" type="curve" smooth="yes"/>
			<point x="477.457" y="571"/>
			<point x="412.457" y="587"/>
			<point x="345.457" y="562" type="curve" smooth="yes"/>
			<point x="291.457" y="542"/>
			<point x="238.457" y="482"/>
			<point x="216.457" y="372" type="curve" smooth="yes"/>
			<point x="190.457" y="238"/>
			<point x="205.457" y="144"/>
			<point x="288.457" y="144" type="curve" smooth="yes"/>
			<point x="355.457" y="144"/>
			<point x="414.457" y="199"/>
			<point x="426.457" y="260" type="curve" smooth="yes"/>
			<point x="436.457" y="310"/>
			<point x="400.457" y="334"/>
			<point x="358.457" y="334" type="curve" smooth="yes"/>
			<point x="305.457" y="334"/>
			<point x="244.457" y="307"/>
			<point x="194.457" y="267" type="curve"/>
			<point x="135.457" y="307" type="line"/>
			<point x="186.457" y="399"/>
			<point x="302.457" y="485"/>
			<point x="414.457" y="485" type="curve" smooth="yes"/>
			<point x="534.457" y="485"/>
			<point x="630.457" y="413"/>
			<point x="601.457" y="270" type="curve" smooth="yes"/>
			<point x="576.457" y="143"/>
			<point x="415.457" y="-15"/>
		</contour>
	</outline>
	<guideline x="440.8" y="638" angle="90" identifier="1IemZ97HBj"/>
</glyph>
<glyph name="vecyr" format="2">
	<unicode hex="0432"/>
	<advance width="569"/>
	<outline>
		<contour>
			<point x="198.781" y="-20" type="curve" smooth="yes"/>
			<point x="54.781" y="-20"/>
			<point x="-7.219" y="69"/>
			<point x="18.781" y="198" type="curve" smooth="yes"/>
			<point x="35.781" y="286"/>
			<point x="73.781" y="419"/>
			<point x="127.781" y="485" type="curve" smooth="yes"/>
			<point x="151.781" y="514"/>
			<point x="205.781" y="534"/>
			<point x="251.781" y="534" type="curve" smooth="yes"/>
			<point x="282.781" y="534"/>
			<point x="301.781" y="515"/>
			<point x="293.781" y="473" type="curve" smooth="yes"/>
			<point x="282.781" y="422"/>
			<point x="208.781" y="322"/>
			<point x="182.781" y="191" type="curve" smooth="yes"/>
			<point x="173.781" y="147"/>
			<point x="183.781" y="108"/>
			<point x="227.781" y="108" type="curve" smooth="yes"/>
			<point x="281.781" y="108"/>
			<point x="335.781" y="146"/>
			<point x="365.781" y="198" type="curve"/>
			<point x="371.781" y="177" type="line"/>
			<point x="344.781" y="188"/>
			<point x="233.781" y="208"/>
			<point x="176.781" y="211" type="curve"/>
			<point x="205.781" y="299" type="line"/>
			<point x="263.781" y="302"/>
			<point x="373.781" y="349"/>
			<point x="379.781" y="379" type="curve" smooth="yes"/>
			<point x="381.781" y="391"/>
			<point x="366.781" y="397"/>
			<point x="338.781" y="397" type="curve" smooth="yes"/>
			<point x="258.781" y="397"/>
			<point x="197.781" y="362"/>
			<point x="164.781" y="362" type="curve" smooth="yes"/>
			<point x="134.781" y="362"/>
			<point x="115.781" y="380"/>
			<point x="122.781" y="414" type="curve" smooth="yes"/>
			<point x="129.781" y="451"/>
			<point x="167.781" y="481"/>
			<point x="215.781" y="494" type="curve" smooth="yes"/>
			<point x="294.781" y="516"/>
			<point x="364.781" y="520"/>
			<point x="421.781" y="520" type="curve" smooth="yes"/>
			<point x="523.781" y="520"/>
			<point x="581.781" y="490"/>
			<point x="568.781" y="426" type="curve" smooth="yes"/>
			<point x="551.781" y="339"/>
			<point x="419.781" y="255"/>
			<point x="256.781" y="222" type="curve"/>
			<point x="303.781" y="303" type="line"/>
			<point x="427.781" y="303"/>
			<point x="551.781" y="282"/>
			<point x="534.781" y="194" type="curve" smooth="yes"/>
			<point x="513.781" y="90"/>
			<point x="347.781" y="-20"/>
		</contour>
	</outline>
	<guideline x="127.8" y="150" angle="90" identifier="NQt60oWmSh"/>
</glyph>
<glyph name="zecyr" format="2">
	<unicode hex="0437"/>
	<advance width="546"/>
	<outline>
		<contour>
			<point x="56.122" y="398" type="curve" smooth="yes"/>
			<point x="49.122" y="364"/>
			<point x="66.122" y="333"/>
			<point x="102.122" y="333" type="curve" smooth="yes"/>
			<point x="143.122" y="333"/>
			<point x="190.122" y="387"/>
			<point x="274.122" y="387" type="curve" smooth="yes"/>
			<point x="328.122" y="387"/>
			<point x="356.122" y="380"/>
			<point x="352.122" y="362" type="curve" smooth="yes"/>
			<point x="349.122" y="346"/>
			<point x="319.122" y="336"/>
			<point x="255.122" y="327" type="curve" smooth="yes"/>
			<point x="192.122" y="318"/>
			<point x="162.122" y="300"/>
			<point x="154.122" y="259" type="curve" smooth="yes"/>
			<point x="147.122" y="223"/>
			<point x="169.122" y="207"/>
			<point x="228.122" y="198" type="curve" smooth="yes"/>
			<point x="293.122" y="187"/>
			<point x="329.122" y="176"/>
			<point x="325.122" y="156" type="curve" smooth="yes"/>
			<point x="322.122" y="138"/>
			<point x="284.122" y="128"/>
			<point x="231.122" y="128" type="curve" smooth="yes"/>
			<point x="126.122" y="128"/>
			<point x="119.122" y="195"/>
			<point x="71.122" y="195" type="curve" smooth="yes"/>
			<point x="38.122" y="195"/>
			<point x="7.122" y="176"/>
			<point x="-2.878" y="123" type="curve" smooth="yes"/>
			<point x="-21.878" y="32"/>
			<point x="90.122" y="-10"/>
			<point x="196.122" y="-10" type="curve" smooth="yes"/>
			<point x="347.122" y="-10"/>
			<point x="481.122" y="60"/>
			<point x="499.122" y="149" type="curve" smooth="yes"/>
			<point x="513.122" y="220"/>
			<point x="460.122" y="274"/>
			<point x="356.122" y="278" type="curve"/>
			<point x="356.122" y="262" type="line"/>
			<point x="446.122" y="281"/>
			<point x="515.122" y="316"/>
			<point x="531.122" y="394" type="curve" smooth="yes"/>
			<point x="547.122" y="475"/>
			<point x="484.122" y="530"/>
			<point x="330.122" y="530" type="curve"/>
			<point x="215.122" y="530"/>
			<point x="76.122" y="500"/>
		</contour>
	</outline>
	<anchor name="top" x="325.123" y="515"/>
	<guideline x="37.8" y="263" angle="90" identifier="5pv7sr0WZR"/>
	<guideline x="40.8" y="278" angle="90" identifier="ix0anRrM36"/>
	<guideline x="37.8" y="263" angle="90" identifier="AJVdwzBkqH"/>
	<guideline x="40.8" y="278" angle="90" identifier="B3eDkwXKdX"/>
</glyph>
<glyph name="elcyr" format="2">
	<unicode hex="043B"/>
	<advance width="624"/>
	<outline>
		<contour>
			<point x="63.384" y="-12" type="curve" smooth="yes"/>
			<point x="14.384" y="-12"/>
			<point x="-21.616" y="31"/>
			<point x="-12.616" y="75" type="curve" smooth="yes"/>
			<point x="-2.616" y="124"/>
			<point x="67.384" y="220"/>
			<point x="124.384" y="300" type="curve" smooth="yes"/>
			<point x="168.384" y="361"/>
			<point x="230.384" y="428"/>
			<point x="280.384" y="478" type="curve" smooth="yes"/>
			<point x="310.384" y="508"/>
			<point x="350.384" y="533"/>
			<point x="395.384" y="533" type="curve" smooth="yes"/>
			<point x="445.384" y="533"/>
			<point x="462.384" y="512"/>
			<point x="478.384" y="457" type="curve" smooth="yes"/>
			<point x="493.384" y="406"/>
			<point x="505.384" y="331"/>
			<point x="522.384" y="264" type="curve" smooth="yes"/>
			<point x="543.384" y="179"/>
			<point x="556.384" y="158"/>
			<point x="568.384" y="135" type="curve" smooth="yes"/>
			<point x="580.384" y="114"/>
			<point x="583.384" y="101"/>
			<point x="578.384" y="73" type="curve" smooth="yes"/>
			<point x="569.384" y="28"/>
			<point x="520.384" y="-11"/>
			<point x="475.384" y="-11" type="curve" smooth="yes"/>
			<point x="424.384" y="-11"/>
			<point x="397.384" y="24"/>
			<point x="380.384" y="72" type="curve" smooth="yes"/>
			<point x="360.384" y="131"/>
			<point x="329.384" y="284"/>
			<point x="323.384" y="351" type="curve"/>
			<point x="380.384" y="360" type="line"/>
			<point x="338.384" y="326"/>
			<point x="211.384" y="150"/>
			<point x="154.384" y="52" type="curve" smooth="yes"/>
			<point x="129.384" y="7"/>
			<point x="99.384" y="-12"/>
		</contour>
	</outline>
</glyph>
<glyph name="shacyr" format="2">
	<unicode hex="0448"/>
	<advance width="940"/>
	<outline>
		<contour>
			<point x="579.656" y="406" type="curve" smooth="yes"/>
			<point x="590.656" y="459"/>
			<point x="550.656" y="496"/>
			<point x="507.656" y="496" type="curve" smooth="yes"/>
			<point x="458.656" y="496"/>
			<point x="434.656" y="471"/>
			<point x="421.656" y="438" type="curve" smooth="yes"/>
			<point x="411.656" y="414"/>
			<point x="385.656" y="348"/>
			<point x="369.656" y="268" type="curve" smooth="yes"/>
			<point x="359.656" y="220"/>
			<point x="353.656" y="167"/>
			<point x="357.656" y="117" type="curve" smooth="yes"/>
			<point x="361.656" y="79"/>
			<point x="392.656" y="54"/>
			<point x="430.656" y="54" type="curve" smooth="yes"/>
			<point x="474.656" y="54"/>
			<point x="518.656" y="93"/>
			<point x="526.656" y="136" type="curve" smooth="yes"/>
			<point x="529.656" y="150"/>
			<point x="524.656" y="202"/>
			<point x="536.656" y="259" type="curve" smooth="yes"/>
			<point x="548.656" y="319"/>
			<point x="576.656" y="392"/>
		</contour>
		<contour>
			<point x="280.656" y="443" type="curve" smooth="yes"/>
			<point x="291.656" y="499"/>
			<point x="250.656" y="526"/>
			<point x="202.656" y="526" type="curve" smooth="yes"/>
			<point x="155.656" y="526"/>
			<point x="136.656" y="501"/>
			<point x="116.656" y="456" type="curve" smooth="yes"/>
			<point x="84.656" y="380"/>
			<point x="56.656" y="310"/>
			<point x="41.656" y="236" type="curve" smooth="yes"/>
			<point x="16.656" y="109"/>
			<point x="57.656" y="-9"/>
			<point x="240.656" y="-9" type="curve" smooth="yes"/>
			<point x="342.656" y="-9"/>
			<point x="635.656" y="-6"/>
			<point x="698.656" y="7" type="curve" smooth="yes"/>
			<point x="810.656" y="29"/>
			<point x="862.656" y="82"/>
			<point x="881.656" y="174" type="curve" smooth="yes"/>
			<point x="896.656" y="248"/>
			<point x="882.656" y="438"/>
			<point x="867.656" y="488" type="curve" smooth="yes"/>
			<point x="858.656" y="517"/>
			<point x="831.656" y="533"/>
			<point x="800.656" y="533" type="curve" smooth="yes"/>
			<point x="754.656" y="533"/>
			<point x="712.656" y="500"/>
			<point x="703.656" y="455" type="curve" smooth="yes"/>
			<point x="694.656" y="412"/>
			<point x="726.656" y="259"/>
			<point x="712.656" y="188" type="curve" smooth="yes"/>
			<point x="710.656" y="180"/>
			<point x="705.656" y="176"/>
			<point x="698.656" y="175" type="curve" smooth="yes"/>
			<point x="636.656" y="167"/>
			<point x="369.656" y="158"/>
			<point x="275.656" y="158" type="curve" smooth="yes"/>
			<point x="216.656" y="158"/>
			<point x="205.656" y="197"/>
			<point x="213.656" y="236" type="curve" smooth="yes"/>
			<point x="232.656" y="329"/>
			<point x="274.656" y="413"/>
		</contour>
	</outline>
	<guideline x="37.8" y="263" angle="90" identifier="rQENFQOEUJ"/>
	<guideline x="40.8" y="278" angle="90" identifier="rKZszPBnKc"/>
</glyph>
<glyph name="shchacyr" format="2">
	<unicode hex="0449"/>
	<advance width="991"/>
	<outline>
		<contour>
			<point x="279.65" y="446" type="curve" smooth="yes"/>
			<point x="288.65" y="488"/>
			<point x="246.65" y="527"/>
			<point x="199.65" y="527" type="curve" smooth="yes"/>
			<point x="153.65" y="527"/>
			<point x="128.65" y="504"/>
			<point x="110.65" y="459" type="curve" smooth="yes"/>
			<point x="84.65" y="390"/>
			<point x="43.65" y="244"/>
			<point x="29.65" y="175" type="curve" smooth="yes"/>
			<point x="7.65" y="67"/>
			<point x="48.65" y="-12"/>
			<point x="174.65" y="-12" type="curve" smooth="yes"/>
			<point x="259.65" y="-12"/>
			<point x="700.65" y="2"/>
			<point x="769.65" y="11" type="curve"/>
			<point x="758.65" y="32" type="line"/>
			<point x="735.65" y="-14"/>
			<point x="711.65" y="-57"/>
			<point x="704.65" y="-88" type="curve" smooth="yes"/>
			<point x="699.65" y="-116"/>
			<point x="731.65" y="-162"/>
			<point x="783.65" y="-162" type="curve" smooth="yes"/>
			<point x="826.65" y="-162"/>
			<point x="856.65" y="-137"/>
			<point x="878.65" y="-98" type="curve" smooth="yes"/>
			<point x="895.65" y="-69"/>
			<point x="924.65" y="-11"/>
			<point x="938.65" y="59" type="curve" smooth="yes"/>
			<point x="956.65" y="151"/>
			<point x="920.65" y="178"/>
			<point x="839.65" y="178" type="curve" smooth="yes"/>
			<point x="792.65" y="178"/>
			<point x="426.65" y="145"/>
			<point x="212.65" y="145" type="curve" smooth="yes"/>
			<point x="199.65" y="145"/>
			<point x="196.65" y="152"/>
			<point x="199.65" y="164" type="curve" smooth="yes"/>
			<point x="229.65" y="316"/>
			<point x="275.65" y="427"/>
		</contour>
		<contour>
			<point x="575.65" y="416" type="curve" smooth="yes"/>
			<point x="587.65" y="476"/>
			<point x="539.65" y="502"/>
			<point x="497.65" y="502" type="curve" smooth="yes"/>
			<point x="451.65" y="502"/>
			<point x="420.65" y="478"/>
			<point x="405.65" y="431" type="curve" smooth="yes"/>
			<point x="389.65" y="376"/>
			<point x="374.65" y="320"/>
			<point x="363.65" y="264" type="curve" smooth="yes"/>
			<point x="350.65" y="200"/>
			<point x="342.65" y="136"/>
			<point x="344.65" y="73" type="curve"/>
			<point x="517.65" y="82" type="line"/>
			<point x="522.65" y="107"/>
			<point x="511.65" y="151"/>
			<point x="531.65" y="252" type="curve" smooth="yes"/>
			<point x="543.65" y="311"/>
			<point x="573.65" y="403"/>
		</contour>
		<contour>
			<point x="884.65" y="447" type="curve" smooth="yes"/>
			<point x="890.65" y="501"/>
			<point x="844.65" y="526"/>
			<point x="797.65" y="526" type="curve" smooth="yes"/>
			<point x="752.65" y="526"/>
			<point x="719.65" y="491"/>
			<point x="711.65" y="451" type="curve" smooth="yes"/>
			<point x="707.65" y="429"/>
			<point x="714.65" y="388"/>
			<point x="691.65" y="277" type="curve" smooth="yes"/>
			<point x="682.65" y="230"/>
			<point x="662.65" y="156"/>
			<point x="656.65" y="127" type="curve"/>
			<point x="822.65" y="137" type="line"/>
			<point x="837.65" y="176"/>
			<point x="849.65" y="223"/>
			<point x="859.65" y="273" type="curve" smooth="yes"/>
			<point x="870.65" y="329"/>
			<point x="878.65" y="386"/>
		</contour>
	</outline>
	<guideline x="37.8" y="263" angle="90" identifier="rQENFQOEUJ"/>
	<guideline x="40.8" y="278" angle="90" identifier="rKZszPBnKc"/>
	<guideline x="37.8" y="263" angle="90" identifier="1iybDVN1wf"/>
	<guideline x="40.8" y="278" angle="90" identifier="NM7UBLP41W"/>
</glyph>
<glyph name="ylongcyr" format="2">
	<unicode hex="044B"/>
	<advance width="814"/>
	<outline>
		<contour>
			<point x="177.578" y="-18" type="curve" smooth="yes"/>
			<point x="73.578" y="-18"/>
			<point x="18.578" y="64"/>
			<point x="42.578" y="183" type="curve" smooth="yes"/>
			<point x="69.578" y="321"/>
			<point x="80.578" y="428"/>
			<point x="83.578" y="445" type="curve" smooth="yes"/>
			<point x="91.578" y="486"/>
			<point x="152.578" y="532"/>
			<point x="208.578" y="532" type="curve" smooth="yes"/>
			<point x="242.578" y="532"/>
			<point x="270.578" y="509"/>
			<point x="262.578" y="454" type="curve" smooth="yes"/>
			<point x="256.578" y="413"/>
			<point x="241.578" y="338"/>
			<point x="224.578" y="257" type="curve" smooth="yes"/>
			<point x="223.578" y="251"/>
			<point x="209.578" y="220"/>
			<point x="204.578" y="193" type="curve" smooth="yes"/>
			<point x="198.578" y="163"/>
			<point x="208.578" y="150"/>
			<point x="227.578" y="150" type="curve" smooth="yes"/>
			<point x="250.578" y="150"/>
			<point x="297.578" y="169"/>
			<point x="302.578" y="197" type="curve" smooth="yes"/>
			<point x="307.578" y="220"/>
			<point x="291.578" y="229"/>
			<point x="269.578" y="240" type="curve" smooth="yes"/>
			<point x="250.578" y="250"/>
			<point x="182.578" y="270"/>
			<point x="172.578" y="273" type="curve"/>
			<point x="200.578" y="399" type="line"/>
			<point x="272.578" y="418"/>
			<point x="367.578" y="440"/>
			<point x="453.578" y="464" type="curve" smooth="yes"/>
			<point x="551.578" y="491"/>
			<point x="633.578" y="527"/>
			<point x="683.578" y="527" type="curve" smooth="yes"/>
			<point x="767.578" y="527"/>
			<point x="804.578" y="482"/>
			<point x="789.578" y="404" type="curve" smooth="yes"/>
			<point x="784.578" y="378"/>
			<point x="775.578" y="343"/>
			<point x="766.578" y="301" type="curve" smooth="yes"/>
			<point x="756.578" y="249"/>
			<point x="745.578" y="179"/>
			<point x="745.578" y="117" type="curve" smooth="yes"/>
			<point x="745.578" y="101"/>
			<point x="746.578" y="93"/>
			<point x="744.578" y="86" type="curve" smooth="yes"/>
			<point x="734.578" y="37"/>
			<point x="683.578" y="-13"/>
			<point x="625.578" y="-13" type="curve" smooth="yes"/>
			<point x="580.578" y="-13"/>
			<point x="562.578" y="15"/>
			<point x="562.578" y="46" type="curve" smooth="yes"/>
			<point x="561.578" y="125"/>
			<point x="572.578" y="199"/>
			<point x="584.578" y="261" type="curve" smooth="yes"/>
			<point x="596.578" y="320"/>
			<point x="612.578" y="380"/>
			<point x="617.578" y="404" type="curve"/>
			<point x="650.578" y="380" type="line"/>
			<point x="604.578" y="359"/>
			<point x="358.578" y="291"/>
			<point x="208.578" y="272" type="curve"/>
			<point x="232.578" y="381" type="line"/>
			<point x="247.578" y="383"/>
			<point x="266.578" y="385"/>
			<point x="295.578" y="385" type="curve" smooth="yes"/>
			<point x="335.578" y="385"/>
			<point x="500.578" y="335"/>
			<point x="472.578" y="197" type="curve" smooth="yes"/>
			<point x="446.578" y="64"/>
			<point x="290.578" y="-18"/>
		</contour>
	</outline>
	<anchor name="top" x="446.579" y="515"/>
</glyph>
<glyph name="ereversedcyr" format="2">
	<unicode hex="044D"/>
	<advance width="586"/>
	<outline>
		<contour>
			<point x="340.215" y="532" type="curve" smooth="yes"/>
			<point x="209.215" y="532"/>
			<point x="84.215" y="449"/>
			<point x="67.215" y="365" type="curve" smooth="yes"/>
			<point x="60.215" y="329"/>
			<point x="71.215" y="305"/>
			<point x="109.215" y="305" type="curve" smooth="yes"/>
			<point x="135.215" y="305"/>
			<point x="166.215" y="333"/>
			<point x="207.215" y="362" type="curve" smooth="yes"/>
			<point x="241.215" y="385"/>
			<point x="274.215" y="396"/>
			<point x="321.215" y="396" type="curve" smooth="yes"/>
			<point x="377.215" y="396"/>
			<point x="426.215" y="370"/>
			<point x="414.215" y="310" type="curve" smooth="yes"/>
			<point x="391.215" y="194"/>
			<point x="310.215" y="130"/>
			<point x="207.215" y="130" type="curve" smooth="yes"/>
			<point x="143.215" y="130"/>
			<point x="145.215" y="196"/>
			<point x="104.215" y="196" type="curve" smooth="yes"/>
			<point x="71.215" y="196"/>
			<point x="28.215" y="168"/>
			<point x="16.215" y="108" type="curve" smooth="yes"/>
			<point x="1.215" y="36"/>
			<point x="63.215" y="-12"/>
			<point x="177.215" y="-12" type="curve" smooth="yes"/>
			<point x="319.215" y="-12"/>
			<point x="524.215" y="90"/>
			<point x="567.215" y="306" type="curve" smooth="yes"/>
			<point x="602.215" y="480"/>
			<point x="480.215" y="532"/>
		</contour>
		<contour>
			<point x="237.215" y="316" type="curve" smooth="yes"/>
			<point x="210.215" y="310"/>
			<point x="192.215" y="298"/>
			<point x="187.215" y="274" type="curve" smooth="yes"/>
			<point x="178.215" y="230"/>
			<point x="201.215" y="204"/>
			<point x="235.215" y="204" type="curve" smooth="yes"/>
			<point x="286.215" y="204"/>
			<point x="333.215" y="215"/>
			<point x="373.215" y="215" type="curve" smooth="yes"/>
			<point x="405.215" y="215"/>
			<point x="434.215" y="209"/>
			<point x="467.215" y="209" type="curve"/>
			<point x="494.215" y="327" type="line"/>
			<point x="461.215" y="330"/>
			<point x="428.215" y="332"/>
			<point x="395.215" y="332" type="curve" smooth="yes"/>
			<point x="343.215" y="332"/>
			<point x="292.215" y="327"/>
		</contour>
	</outline>
	<anchor name="top" x="350.216" y="515"/>
	<guideline x="37.8" y="263" angle="90" identifier="n4jm0tBg3Y"/>
	<guideline x="40.8" y="278" angle="90" identifier="a7QVIHyV5D"/>
	<guideline x="37.8" y="263" angle="90" identifier="JNJX8kAXkD"/>
	<guideline x="40.8" y="278" angle="90" identifier="GPS9Qb41By"/>
</glyph>
<glyph name="yucyr" format="2">
	<unicode hex="044E"/>
	<advance width="918"/>
	<outline>
		<contour>
			<point x="271.88" y="470" type="curve" smooth="yes"/>
			<point x="266.88" y="505"/>
			<point x="236.88" y="528"/>
			<point x="198.88" y="528" type="curve" smooth="yes"/>
			<point x="148.88" y="528"/>
			<point x="106.88" y="488"/>
			<point x="97.88" y="445" type="curve" smooth="yes"/>
			<point x="92.88" y="419"/>
			<point x="103.88" y="349"/>
			<point x="90.88" y="286" type="curve" smooth="yes"/>
			<point x="79.88" y="228"/>
			<point x="18.88" y="98"/>
			<point x="12.88" y="69" type="curve" smooth="yes"/>
			<point x="1.88" y="16"/>
			<point x="40.88" y="-12"/>
			<point x="84.88" y="-12" type="curve" smooth="yes"/>
			<point x="118.88" y="-12"/>
			<point x="149.88" y="5"/>
			<point x="171.88" y="47" type="curve" smooth="yes"/>
			<point x="188.88" y="79"/>
			<point x="215.88" y="140"/>
			<point x="257.88" y="170" type="curve" smooth="yes"/>
			<point x="287.88" y="191"/>
			<point x="314.88" y="192"/>
			<point x="358.88" y="192" type="curve" smooth="yes"/>
			<point x="454.88" y="192"/>
			<point x="548.88" y="283"/>
			<point x="632.88" y="370" type="curve" smooth="yes"/>
			<point x="660.88" y="398"/>
			<point x="678.88" y="424"/>
			<point x="684.88" y="453" type="curve" smooth="yes"/>
			<point x="690.88" y="483"/>
			<point x="671.88" y="529"/>
			<point x="627.88" y="529" type="curve" smooth="yes"/>
			<point x="484.88" y="529"/>
			<point x="362.88" y="320"/>
			<point x="344.88" y="232" type="curve" smooth="yes"/>
			<point x="323.88" y="123"/>
			<point x="350.88" y="-15"/>
			<point x="557.88" y="-15" type="curve" smooth="yes"/>
			<point x="735.88" y="-15"/>
			<point x="858.88" y="138"/>
			<point x="878.88" y="241" type="curve" smooth="yes"/>
			<point x="903.88" y="366"/>
			<point x="858.88" y="501"/>
			<point x="665.88" y="501" type="curve" smooth="yes"/>
			<point x="625.88" y="501"/>
			<point x="563.88" y="448"/>
			<point x="553.88" y="401" type="curve" smooth="yes"/>
			<point x="548.88" y="374"/>
			<point x="568.88" y="342"/>
			<point x="601.88" y="342" type="curve" smooth="yes"/>
			<point x="694.88" y="342"/>
			<point x="720.88" y="297"/>
			<point x="709.88" y="241" type="curve" smooth="yes"/>
			<point x="700.88" y="197"/>
			<point x="652.88" y="142"/>
			<point x="588.88" y="142" type="curve" smooth="yes"/>
			<point x="519.88" y="142"/>
			<point x="501.88" y="195"/>
			<point x="508.88" y="232" type="curve" smooth="yes"/>
			<point x="518.88" y="282"/>
			<point x="542.88" y="330"/>
			<point x="615.88" y="358" type="curve"/>
			<point x="499.88" y="357" type="line"/>
			<point x="462.88" y="357"/>
			<point x="426.88" y="356"/>
			<point x="403.88" y="356" type="curve" smooth="yes"/>
			<point x="297.88" y="356"/>
			<point x="237.88" y="341"/>
			<point x="172.88" y="294" type="curve" smooth="yes"/>
			<point x="99.88" y="242"/>
			<point x="50.88" y="128"/>
			<point x="36.88" y="94" type="curve"/>
			<point x="173.88" y="59" type="line"/>
			<point x="173.88" y="60"/>
			<point x="246.88" y="223"/>
			<point x="261.88" y="300" type="curve" smooth="yes"/>
			<point x="274.88" y="367"/>
			<point x="274.88" y="442"/>
		</contour>
	</outline>
	<guideline x="37.8" y="263" angle="90" identifier="rQENFQOEUJ"/>
	<guideline x="40.8" y="278" angle="90" identifier="rKZszPBnKc"/>
	<guideline x="37.8" y="263" angle="90" identifier="5E34WgFDuY"/>
	<guideline x="40.8" y="278" angle="90" identifier="Kcc90PHHKR"/>
</glyph>
<glyph name="yacyr" format="2">
	<unicode hex="044F"/>
	<advance width="605"/>
	<outline>
		<contour>
			<point x="369.498" y="165" type="curve"/>
			<point x="271.498" y="235" type="line"/>
			<point x="212.498" y="188"/>
			<point x="135.498" y="153"/>
			<point x="64.498" y="127" type="curve" smooth="yes"/>
			<point x="20.498" y="110"/>
			<point x="5.498" y="88"/>
			<point x="-0.502" y="62" type="curve" smooth="yes"/>
			<point x="-9.502" y="16"/>
			<point x="23.498" y="-12"/>
			<point x="59.498" y="-12" type="curve" smooth="yes"/>
			<point x="122.498" y="-12"/>
			<point x="279.498" y="94"/>
		</contour>
		<contour>
			<point x="333.498" y="54" type="curve" smooth="yes"/>
			<point x="337.498" y="14"/>
			<point x="362.498" y="-12"/>
			<point x="417.498" y="-12" type="curve" smooth="yes"/>
			<point x="457.498" y="-12"/>
			<point x="494.498" y="24"/>
			<point x="503.498" y="69" type="curve" smooth="yes"/>
			<point x="505.498" y="78"/>
			<point x="505.498" y="86"/>
			<point x="505.498" y="99" type="curve" smooth="yes"/>
			<point x="504.498" y="133"/>
			<point x="514.498" y="217"/>
			<point x="524.498" y="265" type="curve" smooth="yes"/>
			<point x="538.498" y="333"/>
			<point x="565.498" y="389"/>
			<point x="576.498" y="446" type="curve" smooth="yes"/>
			<point x="585.498" y="491"/>
			<point x="569.498" y="527"/>
			<point x="473.498" y="527" type="curve" smooth="yes"/>
			<point x="396.498" y="527"/>
			<point x="335.498" y="522"/>
			<point x="274.498" y="506" type="curve" smooth="yes"/>
			<point x="126.498" y="467"/>
			<point x="59.498" y="378"/>
			<point x="46.498" y="314" type="curve" smooth="yes"/>
			<point x="28.498" y="227"/>
			<point x="98.498" y="171"/>
			<point x="238.498" y="171" type="curve" smooth="yes"/>
			<point x="380.498" y="171" type="line" smooth="yes"/>
			<point x="465.498" y="171"/>
			<point x="555.498" y="190"/>
			<point x="567.498" y="248" type="curve" smooth="yes"/>
			<point x="575.498" y="292"/>
			<point x="551.498" y="302"/>
			<point x="513.498" y="302" type="curve" smooth="yes"/>
			<point x="487.498" y="302"/>
			<point x="371.498" y="284"/>
			<point x="318.498" y="284" type="curve" smooth="yes"/>
			<point x="251.498" y="284"/>
			<point x="208.498" y="290"/>
			<point x="214.498" y="321" type="curve" smooth="yes"/>
			<point x="218.498" y="340"/>
			<point x="258.498" y="360"/>
			<point x="290.498" y="371" type="curve" smooth="yes"/>
			<point x="315.498" y="379"/>
			<point x="351.498" y="386"/>
			<point x="373.498" y="386" type="curve" smooth="yes"/>
			<point x="394.498" y="386"/>
			<point x="397.498" y="378"/>
			<point x="391.498" y="352" type="curve" smooth="yes"/>
			<point x="383.498" y="310"/>
			<point x="353.498" y="223"/>
			<point x="344.498" y="181" type="curve" smooth="yes"/>
			<point x="335.498" y="134"/>
			<point x="330.498" y="85"/>
		</contour>
	</outline>
	<guideline x="127.8" y="150" angle="90" identifier="NQt60oWmSh"/>
	<guideline x="106.8" y="288" angle="90" identifier="PF625F3qAF"/>
	<guideline x="106.8" y="288" angle="90" identifier="ftLgu9qsNU"/>
</glyph>
<glyph name="yukrcyr" format="2">
	<unicode hex="0457"/>
	<advance width="314"/>
	<outline>
		<contour>
			<point x="135.571" y="571" type="curve" smooth="yes"/>
			<point x="195.571" y="571"/>
			<point x="224.571" y="608"/>
			<point x="232.571" y="650" type="curve" smooth="yes"/>
			<point x="242.571" y="699"/>
			<point x="222.571" y="762"/>
			<point x="156.571" y="762" type="curve" smooth="yes"/>
			<point x="104.571" y="762"/>
			<point x="67.571" y="730"/>
			<point x="57.571" y="678" type="curve" smooth="yes"/>
			<point x="46.571" y="625"/>
			<point x="74.571" y="571"/>
		</contour>
		<contour>
			<point x="323.571" y="572" type="curve" smooth="yes"/>
			<point x="374.571" y="572"/>
			<point x="413.571" y="613"/>
			<point x="422.571" y="662" type="curve" smooth="yes"/>
			<point x="432.571" y="708"/>
			<point x="414.571" y="767"/>
			<point x="356.571" y="767" type="curve" smooth="yes"/>
			<point x="297.571" y="767"/>
			<point x="264.571" y="730"/>
			<point x="254.571" y="679" type="curve" smooth="yes"/>
			<point x="242.571" y="619"/>
			<point x="268.571" y="572"/>
		</contour>
		<component base="idotless" xOffset="-2.229"/>
	</outline>
	<anchor name="bottom" x="110.571" y="0"/>
	<anchor name="ogonek" x="164.571" y="0"/>
	<anchor name="top" x="213.572" y="515"/>
</glyph>
<glyph name="Geupcyr" format="2">
	<unicode hex="0490"/>
	<advance width="533"/>
	<outline>
		<contour>
			<point x="553.09" y="542" type="curve" smooth="yes"/>
			<point x="613.09" y="542"/>
			<point x="642.09" y="584"/>
			<point x="657.09" y="661" type="curve" smooth="yes"/>
			<point x="666.09" y="706"/>
			<point x="671.09" y="756"/>
			<point x="661.09" y="776" type="curve" smooth="yes"/>
			<point x="650.09" y="799"/>
			<point x="634.09" y="810"/>
			<point x="605.09" y="810" type="curve" smooth="yes"/>
			<point x="581.09" y="810"/>
			<point x="560.09" y="800"/>
			<point x="547.09" y="779" type="curve" smooth="yes"/>
			<point x="538.09" y="765"/>
			<point x="531.09" y="739"/>
			<point x="523.09" y="720" type="curve" smooth="yes"/>
			<point x="519.09" y="708"/>
			<point x="515.09" y="703"/>
			<point x="506.09" y="703" type="curve" smooth="yes"/>
			<point x="394.09" y="703"/>
			<point x="264.09" y="708"/>
			<point x="225.09" y="705" type="curve" smooth="yes"/>
			<point x="140.09" y="698"/>
			<point x="107.09" y="677"/>
			<point x="97.09" y="627" type="curve" smooth="yes"/>
			<point x="88.09" y="581"/>
			<point x="125.09" y="532"/>
			<point x="171.09" y="532" type="curve" smooth="yes"/>
			<point x="209.09" y="532"/>
			<point x="307.09" y="551"/>
			<point x="408.09" y="551" type="curve" smooth="yes"/>
			<point x="457.09" y="551"/>
			<point x="501.09" y="542"/>
		</contour>
		<contour>
			<point x="345.09" y="625" type="curve"/>
			<point x="175.09" y="619" type="line"/>
			<point x="176.09" y="619"/>
			<point x="170.09" y="584"/>
			<point x="156.09" y="516" type="curve" smooth="yes"/>
			<point x="117.09" y="320"/>
			<point x="64.09" y="147"/>
			<point x="49.09" y="69" type="curve" smooth="yes"/>
			<point x="38.09" y="16"/>
			<point x="72.09" y="-16"/>
			<point x="114.09" y="-16" type="curve" smooth="yes"/>
			<point x="158.09" y="-16"/>
			<point x="202.09" y="10"/>
			<point x="217.09" y="56" type="curve" smooth="yes"/>
			<point x="233.09" y="104"/>
			<point x="292.09" y="349"/>
			<point x="326.09" y="518" type="curve" smooth="yes"/>
			<point x="340.09" y="589"/>
			<point x="346.09" y="625"/>
		</contour>
	</outline>
</glyph>
<glyph name="geupcyr" format="2">
	<unicode hex="0491"/>
	<advance width="530"/>
	<outline>
		<contour>
			<point x="98.67" y="-10" type="curve" smooth="yes"/>
			<point x="47.67" y="-10"/>
			<point x="24.67" y="32"/>
			<point x="29.67" y="79" type="curve" smooth="yes"/>
			<point x="34.67" y="139"/>
			<point x="62.67" y="290"/>
			<point x="74.67" y="352" type="curve" smooth="yes"/>
			<point x="92.67" y="440"/>
			<point x="122.67" y="505"/>
			<point x="186.67" y="516" type="curve" smooth="yes"/>
			<point x="207.67" y="520"/>
			<point x="234.67" y="521"/>
			<point x="262.67" y="521" type="curve" smooth="yes"/>
			<point x="307.67" y="521"/>
			<point x="358.67" y="518"/>
			<point x="404.67" y="518" type="curve" smooth="yes"/>
			<point x="419.67" y="518"/>
			<point x="419.67" y="571"/>
			<point x="437.67" y="597" type="curve" smooth="yes"/>
			<point x="453.67" y="619"/>
			<point x="480.67" y="626"/>
			<point x="505.67" y="626" type="curve" smooth="yes"/>
			<point x="538.67" y="626"/>
			<point x="559.67" y="610"/>
			<point x="566.67" y="593" type="curve" smooth="yes"/>
			<point x="578.67" y="562"/>
			<point x="577.67" y="507"/>
			<point x="564.67" y="438" type="curve" smooth="yes"/>
			<point x="554.67" y="391"/>
			<point x="511.67" y="361"/>
			<point x="457.67" y="361" type="curve" smooth="yes"/>
			<point x="415.67" y="361"/>
			<point x="371.67" y="367"/>
			<point x="312.67" y="367" type="curve" smooth="yes"/>
			<point x="259.67" y="367"/>
			<point x="219.67" y="358"/>
			<point x="169.67" y="348" type="curve"/>
			<point x="266.67" y="415" type="line"/>
			<point x="251.67" y="364"/>
			<point x="235.67" y="298"/>
			<point x="220.67" y="226" type="curve" smooth="yes"/>
			<point x="207.67" y="162"/>
			<point x="199.67" y="88"/>
			<point x="191.67" y="50" type="curve" smooth="yes"/>
			<point x="183.67" y="8"/>
			<point x="143.67" y="-10"/>
		</contour>
	</outline>
	<guideline x="37.8" y="263" angle="90" identifier="rQENFQOEUJ"/>
	<guideline x="40.8" y="278" angle="90" identifier="rKZszPBnKc"/>
	<guideline x="37.8" y="263" angle="90" identifier="1UpiQWPmoV"/>
	<guideline x="40.8" y="278" angle="90" identifier="pIIihmLULH"/>
	<guideline x="37.8" y="263" angle="90" identifier="vjTySaR57U"/>
	<guideline x="40.8" y="278" angle="90" identifier="PtsIxNZY3U"/>
</glyph>
<glyph name="gestrokecyr" format="2">
	<unicode hex="0493"/>
	<advance width="546"/>
	<outline>
		<contour>
			<point x="82.599" y="162" type="curve" smooth="yes"/>
			<point x="117.599" y="162"/>
			<point x="221.599" y="167"/>
			<point x="281.599" y="167" type="curve" smooth="yes"/>
			<point x="331.599" y="167"/>
			<point x="363.599" y="182"/>
			<point x="371.599" y="220" type="curve" smooth="yes"/>
			<point x="379.599" y="259"/>
			<point x="353.599" y="304"/>
			<point x="276.599" y="304" type="curve" smooth="yes"/>
			<point x="236.599" y="304"/>
			<point x="120.599" y="296"/>
			<point x="75.599" y="293" type="curve" smooth="yes"/>
			<point x="17.599" y="289"/>
			<point x="5.599" y="272"/>
			<point x="-0.401" y="239" type="curve" smooth="yes"/>
			<point x="-10.401" y="191"/>
			<point x="27.599" y="162"/>
		</contour>
		<component base="gecyr" xOffset="13.799"/>
	</outline>
	<anchor name="top" x="359.6" y="515"/>
</glyph>
<glyph name="Gehookcyr" format="2">
	<unicode hex="0494"/>
	<advance width="707"/>
	<outline>
		<contour>
			<point x="235.094" y="705" type="curve" smooth="yes"/>
			<point x="150.094" y="698"/>
			<point x="117.094" y="677"/>
			<point x="107.094" y="627" type="curve" smooth="yes"/>
			<point x="98.094" y="581"/>
			<point x="135.094" y="532"/>
			<point x="181.094" y="532" type="curve" smooth="yes"/>
			<point x="219.094" y="532"/>
			<point x="307.094" y="551"/>
			<point x="408.094" y="551" type="curve" smooth="yes"/>
			<point x="457.094" y="551"/>
			<point x="517.094" y="542"/>
			<point x="569.094" y="542" type="curve" smooth="yes"/>
			<point x="617.094" y="542"/>
			<point x="650.094" y="565"/>
			<point x="659.094" y="608" type="curve" smooth="yes"/>
			<point x="670.094" y="665"/>
			<point x="636.094" y="713"/>
			<point x="533.094" y="713" type="curve" smooth="yes"/>
			<point x="416.094" y="713"/>
			<point x="274.094" y="708"/>
		</contour>
		<contour>
			<point x="638.094" y="146" type="curve" smooth="yes"/>
			<point x="666.094" y="287"/>
			<point x="648.094" y="428"/>
			<point x="511.094" y="428" type="curve" smooth="yes"/>
			<point x="428.094" y="428"/>
			<point x="320.094" y="355"/>
			<point x="245.094" y="257" type="curve"/>
			<point x="258.094" y="192" type="line"/>
			<point x="272.094" y="261"/>
			<point x="274.094" y="344"/>
			<point x="326.094" y="514" type="curve" smooth="yes"/>
			<point x="352.094" y="602"/>
			<point x="329.094" y="640"/>
			<point x="246.094" y="640" type="curve" smooth="yes"/>
			<point x="205.094" y="640"/>
			<point x="171.094" y="610"/>
			<point x="160.094" y="568" type="curve" smooth="yes"/>
			<point x="84.094" y="298"/>
			<point x="58.094" y="195"/>
			<point x="65.094" y="85" type="curve" smooth="yes"/>
			<point x="73.094" y="10"/>
			<point x="109.094" y="-10"/>
			<point x="154.094" y="-10" type="curve" smooth="yes"/>
			<point x="188.094" y="-10"/>
			<point x="214.094" y="20"/>
			<point x="258.094" y="76" type="curve" smooth="yes"/>
			<point x="333.094" y="172"/>
			<point x="397.094" y="221"/>
			<point x="454.094" y="254" type="curve"/>
			<point x="467.094" y="229"/>
			<point x="467.094" y="184"/>
			<point x="457.094" y="136" type="curve" smooth="yes"/>
			<point x="435.094" y="25"/>
			<point x="389.094" y="-31"/>
			<point x="342.094" y="-52" type="curve" smooth="yes"/>
			<point x="299.094" y="-71"/>
			<point x="252.094" y="-81"/>
			<point x="243.094" y="-125" type="curve" smooth="yes"/>
			<point x="237.094" y="-155"/>
			<point x="250.094" y="-197"/>
			<point x="315.094" y="-197" type="curve" smooth="yes"/>
			<point x="452.094" y="-197"/>
			<point x="600.094" y="-46"/>
		</contour>
	</outline>
</glyph>
<glyph name="gehookcyr" format="2">
	<unicode hex="0495"/>
	<advance width="550"/>
	<outline>
		<contour>
			<point x="208.917" y="124" type="line"/>
			<point x="213.917" y="181"/>
			<point x="220.917" y="226"/>
			<point x="228.917" y="267" type="curve" smooth="yes"/>
			<point x="239.917" y="320"/>
			<point x="251.917" y="365"/>
			<point x="266.917" y="415" type="curve"/>
			<point x="169.917" y="348" type="line"/>
			<point x="219.917" y="358"/>
			<point x="259.917" y="367"/>
			<point x="312.917" y="367" type="curve" smooth="yes"/>
			<point x="371.917" y="367"/>
			<point x="415.917" y="358"/>
			<point x="457.917" y="358" type="curve" smooth="yes"/>
			<point x="502.917" y="358"/>
			<point x="549.917" y="379"/>
			<point x="558.917" y="426" type="curve" smooth="yes"/>
			<point x="564.917" y="454"/>
			<point x="555.917" y="482"/>
			<point x="527.917" y="501" type="curve" smooth="yes"/>
			<point x="493.917" y="524"/>
			<point x="423.917" y="525"/>
			<point x="352.917" y="525" type="curve" smooth="yes"/>
			<point x="291.917" y="525"/>
			<point x="230.917" y="523"/>
			<point x="186.917" y="516" type="curve" smooth="yes"/>
			<point x="122.917" y="505"/>
			<point x="92.917" y="440"/>
			<point x="74.917" y="352" type="curve" smooth="yes"/>
			<point x="62.917" y="290"/>
			<point x="41.917" y="181"/>
			<point x="35.917" y="135" type="curve" smooth="yes"/>
			<point x="24.917" y="53"/>
			<point x="43.917" y="-9"/>
			<point x="111.917" y="-9" type="curve" smooth="yes"/>
			<point x="145.917" y="-9"/>
			<point x="165.917" y="13"/>
			<point x="192.917" y="42" type="curve" smooth="yes"/>
			<point x="250.917" y="102"/>
			<point x="300.917" y="148"/>
			<point x="367.917" y="174" type="curve"/>
			<point x="313.917" y="196" type="line"/>
			<point x="336.917" y="147"/>
			<point x="334.917" y="100"/>
			<point x="327.917" y="65" type="curve" smooth="yes"/>
			<point x="311.917" y="-13"/>
			<point x="253.917" y="-34"/>
			<point x="224.917" y="-56" type="curve" smooth="yes"/>
			<point x="205.917" y="-70"/>
			<point x="195.917" y="-86"/>
			<point x="191.917" y="-104" type="curve" smooth="yes"/>
			<point x="185.917" y="-135"/>
			<point x="196.917" y="-178"/>
			<point x="251.917" y="-178" type="curve" smooth="yes"/>
			<point x="347.917" y="-178"/>
			<point x="479.917" y="-76"/>
			<point x="509.917" y="77" type="curve" smooth="yes"/>
			<point x="528.917" y="172"/>
			<point x="513.917" y="303"/>
			<point x="394.917" y="303" type="curve" smooth="yes"/>
			<point x="323.917" y="303"/>
			<point x="248.917" y="268"/>
			<point x="194.917" y="210" type="curve"/>
		</contour>
	</outline>
</glyph>
<glyph name="Zhetailcyr" format="2">
	<unicode hex="0496"/>
	<advance width="943"/>
	<outline>
		<contour>
			<point x="800.682" y="157" type="curve" smooth="yes"/>
			<point x="778.682" y="157"/>
			<point x="709.682" y="300"/>
			<point x="714.682" y="326" type="curve" smooth="yes"/>
			<point x="723.682" y="370"/>
			<point x="851.682" y="481"/>
			<point x="951.682" y="554" type="curve" smooth="yes"/>
			<point x="986.682" y="580"/>
			<point x="1010.682" y="607"/>
			<point x="1016.682" y="634" type="curve" smooth="yes"/>
			<point x="1024.682" y="677"/>
			<point x="986.682" y="713"/>
			<point x="941.682" y="713" type="curve" smooth="yes"/>
			<point x="870.682" y="713"/>
			<point x="565.682" y="433"/>
			<point x="546.682" y="341" type="curve" smooth="yes"/>
			<point x="526.682" y="240"/>
			<point x="627.682" y="-12"/>
			<point x="731.682" y="-12" type="curve" smooth="yes"/>
			<point x="771.682" y="-12"/>
			<point x="780.682" y="0"/>
			<point x="789.682" y="16" type="curve"/>
			<point x="745.682" y="11" type="line"/>
			<point x="722.682" y="-36"/>
			<point x="707.682" y="-87"/>
			<point x="701.682" y="-119" type="curve" smooth="yes"/>
			<point x="695.682" y="-156"/>
			<point x="711.682" y="-197"/>
			<point x="766.682" y="-197" type="curve" smooth="yes"/>
			<point x="821.682" y="-197"/>
			<point x="849.682" y="-158"/>
			<point x="867.682" y="-106" type="curve" smooth="yes"/>
			<point x="894.682" y="-24"/>
			<point x="927.682" y="46"/>
			<point x="936.682" y="92" type="curve" smooth="yes"/>
			<point x="948.682" y="148"/>
			<point x="906.682" y="175"/>
			<point x="870.682" y="175" type="curve" smooth="yes"/>
			<point x="834.682" y="175"/>
			<point x="810.682" y="157"/>
		</contour>
		<contour>
			<point x="514.682" y="66" type="curve" smooth="yes"/>
			<point x="522.682" y="103"/>
			<point x="522.682" y="159"/>
			<point x="531.682" y="205" type="curve" smooth="yes"/>
			<point x="542.682" y="259"/>
			<point x="558.682" y="324"/>
			<point x="577.682" y="402" type="curve" smooth="yes"/>
			<point x="584.682" y="432"/>
			<point x="614.682" y="573"/>
			<point x="618.682" y="597" type="curve" smooth="yes"/>
			<point x="637.682" y="689"/>
			<point x="583.682" y="716"/>
			<point x="524.682" y="716" type="curve" smooth="yes"/>
			<point x="479.682" y="716"/>
			<point x="451.682" y="675"/>
			<point x="442.682" y="629" type="curve" smooth="yes"/>
			<point x="432.682" y="582"/>
			<point x="434.682" y="547"/>
			<point x="407.682" y="410" type="curve" smooth="yes"/>
			<point x="393.682" y="340"/>
			<point x="372.682" y="267"/>
			<point x="361.682" y="210" type="curve" smooth="yes"/>
			<point x="336.682" y="83"/>
			<point x="329.682" y="-15"/>
			<point x="402.682" y="-15" type="curve" smooth="yes"/>
			<point x="447.682" y="-15"/>
			<point x="505.682" y="21"/>
		</contour>
		<contour>
			<point x="426.682" y="366" type="curve" smooth="yes"/>
			<point x="441.682" y="439"/>
			<point x="288.682" y="706"/>
			<point x="211.682" y="706" type="curve" smooth="yes"/>
			<point x="166.682" y="706"/>
			<point x="118.682" y="664"/>
			<point x="109.682" y="621" type="curve" smooth="yes"/>
			<point x="104.682" y="594"/>
			<point x="120.682" y="569"/>
			<point x="138.682" y="547" type="curve" smooth="yes"/>
			<point x="180.682" y="498"/>
			<point x="264.682" y="383"/>
			<point x="258.682" y="356" type="curve" smooth="yes"/>
			<point x="254.682" y="333"/>
			<point x="114.682" y="217"/>
			<point x="22.682" y="144" type="curve" smooth="yes"/>
			<point x="-16.318" y="114"/>
			<point x="-26.318" y="97"/>
			<point x="-30.318" y="74" type="curve" smooth="yes"/>
			<point x="-39.318" y="30"/>
			<point x="-11.318" y="-12"/>
			<point x="32.682" y="-12" type="curve" smooth="yes"/>
			<point x="113.682" y="-12"/>
			<point x="410.682" y="283"/>
		</contour>
	</outline>
	<guideline x="179.8" y="356" angle="90" identifier="JUwCnAo7xy"/>
	<guideline x="81.8" y="424" angle="90" identifier="pv43GWLurq"/>
</glyph>
<glyph name="katailcyr" format="2">
	<unicode hex="049B"/>
	<advance width="677"/>
	<outline>
		<contour>
			<point x="202.433" y="58" type="curve" smooth="yes"/>
			<point x="209.433" y="94"/>
			<point x="199.433" y="129"/>
			<point x="218.433" y="225" type="curve" smooth="yes"/>
			<point x="230.433" y="284"/>
			<point x="267.433" y="375"/>
			<point x="278.433" y="452" type="curve" smooth="yes"/>
			<point x="285.433" y="498"/>
			<point x="267.433" y="533"/>
			<point x="220.433" y="533" type="curve" smooth="yes"/>
			<point x="180.433" y="533"/>
			<point x="116.433" y="506"/>
			<point x="109.433" y="459" type="curve" smooth="yes"/>
			<point x="98.433" y="386"/>
			<point x="62.433" y="282"/>
			<point x="51.433" y="225" type="curve" smooth="yes"/>
			<point x="21.433" y="77"/>
			<point x="16.433" y="-10"/>
			<point x="92.433" y="-10" type="curve" smooth="yes"/>
			<point x="138.433" y="-10"/>
			<point x="192.433" y="11"/>
		</contour>
		<contour>
			<point x="484.433" y="153" type="curve" smooth="yes"/>
			<point x="447.433" y="153"/>
			<point x="351.433" y="238"/>
			<point x="354.433" y="253" type="curve" smooth="yes"/>
			<point x="356.433" y="267"/>
			<point x="442.433" y="319"/>
			<point x="567.433" y="359" type="curve" smooth="yes"/>
			<point x="614.433" y="374"/>
			<point x="655.433" y="405"/>
			<point x="663.433" y="446" type="curve" smooth="yes"/>
			<point x="671.433" y="485"/>
			<point x="645.433" y="533"/>
			<point x="596.433" y="533" type="curve" smooth="yes"/>
			<point x="469.433" y="533"/>
			<point x="267.433" y="379"/>
			<point x="217.433" y="335" type="curve" smooth="yes"/>
			<point x="196.433" y="317"/>
			<point x="185.433" y="297"/>
			<point x="181.433" y="276" type="curve" smooth="yes"/>
			<point x="169.433" y="216"/>
			<point x="211.433" y="151"/>
			<point x="240.433" y="112" type="curve" smooth="yes"/>
			<point x="278.433" y="63"/>
			<point x="351.433" y="-6"/>
			<point x="423.433" y="-6" type="curve" smooth="yes"/>
			<point x="468.433" y="-6"/>
			<point x="476.433" y="2"/>
			<point x="502.433" y="20" type="curve"/>
			<point x="466.433" y="46" type="line"/>
			<point x="433.433" y="-8"/>
			<point x="415.433" y="-58"/>
			<point x="410.433" y="-84" type="curve" smooth="yes"/>
			<point x="402.433" y="-126"/>
			<point x="422.433" y="-162"/>
			<point x="477.433" y="-162" type="curve" smooth="yes"/>
			<point x="525.433" y="-162"/>
			<point x="551.433" y="-115"/>
			<point x="576.433" y="-53" type="curve" smooth="yes"/>
			<point x="604.433" y="15"/>
			<point x="629.433" y="59"/>
			<point x="639.433" y="111" type="curve" smooth="yes"/>
			<point x="648.433" y="155"/>
			<point x="606.433" y="176"/>
			<point x="573.433" y="176" type="curve" smooth="yes"/>
			<point x="524.433" y="176"/>
			<point x="501.433" y="153"/>
		</contour>
	</outline>
	<guideline x="37.8" y="263" angle="90" identifier="AEoq2U1whz"/>
	<guideline x="40.8" y="278" angle="90" identifier="lAjk0U2JTq"/>
</glyph>
<glyph name="Engecyr" format="2">
	<unicode hex="04A4"/>
	<advance width="914"/>
	<outline>
		<contour>
			<point x="190.895" y="236" type="curve" smooth="yes"/>
			<point x="251.895" y="236"/>
			<point x="346.895" y="266"/>
			<point x="618.895" y="266" type="curve" smooth="yes"/>
			<point x="649.895" y="266"/>
			<point x="672.895" y="289"/>
			<point x="679.895" y="324" type="curve" smooth="yes"/>
			<point x="690.895" y="382"/>
			<point x="641.895" y="429"/>
			<point x="538.895" y="429" type="curve" smooth="yes"/>
			<point x="388.895" y="429"/>
			<point x="242.895" y="427"/>
			<point x="91.895" y="383" type="curve" smooth="yes"/>
			<point x="61.895" y="375"/>
			<point x="52.895" y="359"/>
			<point x="47.895" y="334" type="curve" smooth="yes"/>
			<point x="37.895" y="283"/>
			<point x="64.895" y="236"/>
		</contour>
		<contour>
			<point x="706.895" y="625" type="curve"/>
			<point x="529.895" y="619" type="line"/>
			<point x="515.895" y="551"/>
			<point x="487.895" y="421"/>
			<point x="473.895" y="348" type="curve" smooth="yes"/>
			<point x="458.895" y="273"/>
			<point x="427.895" y="110"/>
			<point x="425.895" y="72" type="curve" smooth="yes"/>
			<point x="423.895" y="26"/>
			<point x="443.895" y="-15"/>
			<point x="489.895" y="-15" type="curve" smooth="yes"/>
			<point x="536.895" y="-15"/>
			<point x="587.895" y="18"/>
			<point x="596.895" y="64" type="curve" smooth="yes"/>
			<point x="602.895" y="93"/>
			<point x="615.895" y="199"/>
			<point x="636.895" y="304" type="curve" smooth="yes"/>
			<point x="649.895" y="371"/>
			<point x="697.895" y="587"/>
		</contour>
		<contour>
			<point x="626.895" y="705" type="curve" smooth="yes"/>
			<point x="541.895" y="698"/>
			<point x="508.895" y="677"/>
			<point x="498.895" y="627" type="curve" smooth="yes"/>
			<point x="489.895" y="581"/>
			<point x="526.895" y="532"/>
			<point x="572.895" y="532" type="curve" smooth="yes"/>
			<point x="610.895" y="532"/>
			<point x="656.895" y="551"/>
			<point x="757.895" y="551" type="curve" smooth="yes"/>
			<point x="806.895" y="551"/>
			<point x="848.895" y="542"/>
			<point x="900.895" y="542" type="curve" smooth="yes"/>
			<point x="948.895" y="542"/>
			<point x="981.895" y="565"/>
			<point x="990.895" y="608" type="curve" smooth="yes"/>
			<point x="1001.895" y="665"/>
			<point x="957.895" y="713"/>
			<point x="854.895" y="713" type="curve" smooth="yes"/>
			<point x="737.895" y="713"/>
			<point x="665.895" y="708"/>
		</contour>
		<contour>
			<point x="136.895" y="-12" type="curve" smooth="yes"/>
			<point x="182.895" y="-12"/>
			<point x="216.895" y="15"/>
			<point x="225.895" y="61" type="curve" smooth="yes"/>
			<point x="252.895" y="193"/>
			<point x="286.895" y="385"/>
			<point x="325.895" y="580" type="curve" smooth="yes"/>
			<point x="343.895" y="670"/>
			<point x="307.895" y="709"/>
			<point x="246.895" y="709" type="curve" smooth="yes"/>
			<point x="188.895" y="709"/>
			<point x="156.895" y="681"/>
			<point x="142.895" y="612" type="curve" smooth="yes"/>
			<point x="132.895" y="558"/>
			<point x="88.895" y="259"/>
			<point x="52.895" y="119" type="curve" smooth="yes"/>
			<point x="29.895" y="31"/>
			<point x="70.895" y="-12"/>
		</contour>
	</outline>
</glyph>
<glyph name="Estailcyr" format="2">
	<unicode hex="04AA"/>
	<advance width="621"/>
	<outline>
		<contour>
			<point x="213.494" y="21" type="curve" smooth="yes"/>
			<point x="207.494" y="-10"/>
			<point x="177.494" y="-86"/>
			<point x="169.494" y="-123" type="curve" smooth="yes"/>
			<point x="161.494" y="-163"/>
			<point x="187.494" y="-207"/>
			<point x="254.494" y="-207" type="curve" smooth="yes"/>
			<point x="297.494" y="-207"/>
			<point x="334.494" y="-168"/>
			<point x="342.494" y="-128" type="curve" smooth="yes"/>
			<point x="349.494" y="-95"/>
			<point x="355.494" y="-19"/>
			<point x="371.494" y="61" type="curve" smooth="yes"/>
			<point x="376.494" y="87"/>
			<point x="357.494" y="99"/>
			<point x="329.494" y="99" type="curve" smooth="yes"/>
			<point x="286.494" y="99"/>
			<point x="223.494" y="69"/>
		</contour>
		<component base="C" xOffset="-2.306"/>
	</outline>
	<anchor name="bottom" x="280.494" y="0"/>
	<anchor name="top" x="467.495" y="700"/>
</glyph>
<glyph name="estailcyr" format="2">
	<unicode hex="04AB"/>
	<advance width="539"/>
	<outline>
		<contour>
			<point x="124.409" y="-59" type="curve" smooth="yes"/>
			<point x="107.409" y="-143"/>
			<point x="136.409" y="-192"/>
			<point x="189.409" y="-192" type="curve" smooth="yes"/>
			<point x="232.409" y="-192"/>
			<point x="265.409" y="-153"/>
			<point x="273.409" y="-113" type="curve" smooth="yes"/>
			<point x="278.409" y="-90"/>
			<point x="285.409" y="-3"/>
			<point x="291.409" y="25" type="curve" smooth="yes"/>
			<point x="302.409" y="82"/>
			<point x="269.409" y="102"/>
			<point x="220.409" y="102" type="curve" smooth="yes"/>
			<point x="178.409" y="102"/>
			<point x="151.409" y="75"/>
		</contour>
		<component base="c" xOffset="-2.391"/>
	</outline>
	<anchor name="bottom" x="243.409" y="0"/>
	<anchor name="top" x="346.409" y="515"/>
</glyph>
<glyph name="Ustraightcyr" format="2">
	<unicode hex="04AE"/>
	<advance width="626"/>
	<outline>
		<contour>
			<point x="617.199" y="523" type="curve" smooth="yes"/>
			<point x="665.199" y="561"/>
			<point x="681.199" y="588"/>
			<point x="688.199" y="625" type="curve" smooth="yes"/>
			<point x="699.199" y="679"/>
			<point x="681.199" y="713"/>
			<point x="637.199" y="713" type="curve" smooth="yes"/>
			<point x="615.199" y="713"/>
			<point x="596.199" y="708"/>
			<point x="563.199" y="683" type="curve" smooth="yes"/>
			<point x="449.199" y="594"/>
			<point x="344.199" y="470"/>
			<point x="270.199" y="355" type="curve" smooth="yes"/>
			<point x="221.199" y="279"/>
			<point x="197.199" y="203"/>
			<point x="183.199" y="135" type="curve" smooth="yes"/>
			<point x="165.199" y="47"/>
			<point x="165.199" y="-16"/>
			<point x="230.199" y="-16" type="curve" smooth="yes"/>
			<point x="270.199" y="-16"/>
			<point x="312.199" y="1"/>
			<point x="323.199" y="53" type="curve" smooth="yes"/>
			<point x="339.199" y="136"/>
			<point x="359.199" y="225"/>
			<point x="379.199" y="281" type="curve" smooth="yes"/>
			<point x="399.199" y="335"/>
			<point x="507.199" y="437"/>
		</contour>
		<contour>
			<point x="246.199" y="661" type="curve" smooth="yes"/>
			<point x="231.199" y="704"/>
			<point x="203.199" y="710"/>
			<point x="173.199" y="710" type="curve" smooth="yes"/>
			<point x="133.199" y="710"/>
			<point x="98.199" y="676"/>
			<point x="88.199" y="627" type="curve" smooth="yes"/>
			<point x="80.199" y="586"/>
			<point x="88.199" y="559"/>
			<point x="101.199" y="532" type="curve" smooth="yes"/>
			<point x="150.199" y="440"/>
			<point x="179.199" y="430"/>
			<point x="242.199" y="274" type="curve" smooth="yes"/>
			<point x="250.199" y="253"/>
			<point x="267.199" y="242"/>
			<point x="293.199" y="242" type="curve" smooth="yes"/>
			<point x="335.199" y="242"/>
			<point x="371.199" y="290"/>
			<point x="380.199" y="335" type="curve" smooth="yes"/>
			<point x="383.199" y="351"/>
			<point x="383.199" y="366"/>
			<point x="379.199" y="379" type="curve" smooth="yes"/>
			<point x="331.199" y="531"/>
			<point x="292.199" y="535"/>
		</contour>
	</outline>
</glyph>
<glyph name="ustraightcyr" format="2">
	<unicode hex="04AF"/>
	<advance width="549"/>
	<outline>
		<contour>
			<point x="248.279" y="444" type="curve" smooth="yes"/>
			<point x="256.279" y="484"/>
			<point x="242.279" y="523"/>
			<point x="173.279" y="523" type="curve" smooth="yes"/>
			<point x="117.279" y="523"/>
			<point x="77.279" y="499"/>
			<point x="47.279" y="350" type="curve" smooth="yes"/>
			<point x="23.279" y="229"/>
			<point x="84.279" y="147"/>
			<point x="166.279" y="147" type="curve" smooth="yes"/>
			<point x="263.279" y="147"/>
			<point x="323.279" y="182"/>
			<point x="365.279" y="249" type="curve"/>
			<point x="326.279" y="284" type="line"/>
			<point x="309.279" y="198"/>
			<point x="137.279" y="-44"/>
			<point x="109.279" y="-183" type="curve" smooth="yes"/>
			<point x="98.279" y="-238"/>
			<point x="140.279" y="-267"/>
			<point x="178.279" y="-267" type="curve" smooth="yes"/>
			<point x="227.279" y="-267"/>
			<point x="258.279" y="-238"/>
			<point x="281.279" y="-190" type="curve"/>
			<point x="312.279" y="-113"/>
			<point x="349.279" y="-34"/>
			<point x="403.279" y="66" type="curve" smooth="yes"/>
			<point x="469.279" y="188"/>
			<point x="548.279" y="337"/>
			<point x="565.279" y="418" type="curve" smooth="yes"/>
			<point x="578.279" y="486"/>
			<point x="537.279" y="522"/>
			<point x="482.279" y="522" type="curve" smooth="yes"/>
			<point x="438.279" y="522"/>
			<point x="421.279" y="503"/>
			<point x="404.279" y="460" type="curve" smooth="yes"/>
			<point x="358.279" y="342"/>
			<point x="314.279" y="308"/>
			<point x="260.279" y="308" type="curve" smooth="yes"/>
			<point x="227.279" y="308"/>
			<point x="220.279" y="324"/>
			<point x="227.279" y="362" type="curve" smooth="yes"/>
			<point x="229.279" y="372"/>
			<point x="245.279" y="430"/>
		</contour>
	</outline>
</glyph>
<glyph name="Palochkacyr" format="2">
	<unicode hex="04C0"/>
	<advance width="345"/>
	<outline>
		<contour>
			<point x="137.531" y="-12" type="curve" smooth="yes"/>
			<point x="183.531" y="-12"/>
			<point x="217.531" y="15"/>
			<point x="226.531" y="61" type="curve" smooth="yes"/>
			<point x="253.531" y="193"/>
			<point x="287.531" y="385"/>
			<point x="326.531" y="580" type="curve" smooth="yes"/>
			<point x="344.531" y="670"/>
			<point x="308.531" y="709"/>
			<point x="247.531" y="709" type="curve" smooth="yes"/>
			<point x="189.531" y="709"/>
			<point x="157.531" y="681"/>
			<point x="143.531" y="612" type="curve" smooth="yes"/>
			<point x="135.531" y="569"/>
			<point x="105.531" y="369"/>
			<point x="75.531" y="219" type="curve" smooth="yes"/>
			<point x="69.531" y="189"/>
			<point x="53.531" y="120"/>
			<point x="50.531" y="107" type="curve" smooth="yes"/>
			<point x="34.531" y="27"/>
			<point x="74.531" y="-12"/>
		</contour>
	</outline>
</glyph>
<glyph name="chekhakascyr" format="2">
	<unicode hex="04CC"/>
	<advance width="602"/>
	<outline>
		<contour>
			<point x="477.642" y="312" type="curve"/>
			<point x="421.642" y="419" type="line"/>
			<point x="362.642" y="336"/>
			<point x="303.642" y="304"/>
			<point x="248.642" y="304" type="curve" smooth="yes"/>
			<point x="232.642" y="304"/>
			<point x="226.642" y="312"/>
			<point x="230.642" y="328" type="curve" smooth="yes"/>
			<point x="239.642" y="375"/>
			<point x="268.642" y="409"/>
			<point x="275.642" y="445" type="curve" smooth="yes"/>
			<point x="284.642" y="490"/>
			<point x="239.642" y="529"/>
			<point x="195.642" y="529" type="curve" smooth="yes"/>
			<point x="114.642" y="529"/>
			<point x="79.642" y="437"/>
			<point x="56.642" y="322" type="curve" smooth="yes"/>
			<point x="36.642" y="220"/>
			<point x="67.642" y="132"/>
			<point x="184.642" y="132" type="curve" smooth="yes"/>
			<point x="288.642" y="132"/>
			<point x="382.642" y="210"/>
		</contour>
		<contour>
			<point x="532.642" y="104" type="curve" smooth="yes"/>
			<point x="541.642" y="152"/>
			<point x="527.642" y="189"/>
			<point x="539.642" y="252" type="curve" smooth="yes"/>
			<point x="551.642" y="310"/>
			<point x="586.642" y="385"/>
			<point x="595.642" y="429" type="curve" smooth="yes"/>
			<point x="606.642" y="484"/>
			<point x="573.642" y="527"/>
			<point x="531.642" y="527" type="curve" smooth="yes"/>
			<point x="492.642" y="527"/>
			<point x="449.642" y="503"/>
			<point x="432.642" y="453" type="curve" smooth="yes"/>
			<point x="417.642" y="409"/>
			<point x="377.642" y="289"/>
			<point x="364.642" y="224" type="curve" smooth="yes"/>
			<point x="351.642" y="161"/>
			<point x="349.642" y="83"/>
			<point x="357.642" y="46" type="curve"/>
			<point x="418.642" y="139" type="line"/>
			<point x="352.642" y="127"/>
			<point x="295.642" y="100"/>
			<point x="277.642" y="70" type="curve" smooth="yes"/>
			<point x="256.642" y="34"/>
			<point x="244.642" y="-22"/>
			<point x="235.642" y="-67" type="curve" smooth="yes"/>
			<point x="224.642" y="-118"/>
			<point x="244.642" y="-162"/>
			<point x="300.642" y="-162" type="curve" smooth="yes"/>
			<point x="357.642" y="-162"/>
			<point x="383.642" y="-120"/>
			<point x="389.642" y="-89" type="curve" smooth="yes"/>
			<point x="392.642" y="-73"/>
			<point x="393.642" y="-48"/>
			<point x="397.642" y="-28" type="curve" smooth="yes"/>
			<point x="400.642" y="-17"/>
			<point x="405.642" y="-7"/>
			<point x="413.642" y="-4" type="curve" smooth="yes"/>
			<point x="469.642" y="17"/>
			<point x="519.642" y="39"/>
		</contour>
	</outline>
</glyph>
<glyph name="Abrevecyr" format="2">
	<unicode hex="04D0"/>
	<advance width="780"/>
	<outline>
		<contour>
			<point x="547" y="896" type="curve" smooth="yes"/>
			<point x="524" y="896"/>
			<point x="515" y="919"/>
			<point x="505" y="943" type="curve" smooth="yes"/>
			<point x="496" y="965"/>
			<point x="480" y="982"/>
			<point x="454" y="982" type="curve" smooth="yes"/>
			<point x="415" y="982"/>
			<point x="376" y="958"/>
			<point x="367" y="909" type="curve" smooth="yes"/>
			<point x="351" y="830"/>
			<point x="415" y="768"/>
			<point x="516" y="768" type="curve" smooth="yes"/>
			<point x="642" y="768"/>
			<point x="743" y="846"/>
			<point x="756" y="914" type="curve" smooth="yes"/>
			<point x="764" y="950"/>
			<point x="752" y="972"/>
			<point x="720" y="972" type="curve" smooth="yes"/>
			<point x="698" y="972"/>
			<point x="668" y="955"/>
			<point x="645" y="941" type="curve" smooth="yes"/>
			<point x="611" y="920"/>
			<point x="566" y="896"/>
		</contour>
		<component base="A" xOffset="-2.758"/>
	</outline>
	<anchor name="bottom" x="369.284" y="0"/>
	<anchor name="ogonek" x="647.284" y="0"/>
	<anchor name="ring" x="509.085" y="699"/>
	<anchor name="top" x="509.285" y="700"/>
</glyph>
<glyph name="obarcyr" format="2">
	<unicode hex="04E9"/>
	<advance width="664"/>
	<outline>
		<contour>
			<point x="290.749" y="-13" type="curve" smooth="yes"/>
			<point x="449.749" y="-13"/>
			<point x="597.749" y="108"/>
			<point x="628.749" y="266" type="curve" smooth="yes"/>
			<point x="659.749" y="420"/>
			<point x="574.749" y="516"/>
			<point x="394.749" y="516" type="curve" smooth="yes"/>
			<point x="309.749" y="516"/>
			<point x="177.749" y="427"/>
			<point x="161.749" y="344" type="curve" smooth="yes"/>
			<point x="149.749" y="284"/>
			<point x="163.749" y="280"/>
			<point x="181.749" y="280" type="curve" smooth="yes"/>
			<point x="216.749" y="280"/>
			<point x="237.749" y="323"/>
			<point x="284.749" y="351" type="curve" smooth="yes"/>
			<point x="309.749" y="368"/>
			<point x="340.749" y="379"/>
			<point x="369.749" y="379" type="curve" smooth="yes"/>
			<point x="453.749" y="379"/>
			<point x="487.749" y="322"/>
			<point x="473.749" y="251" type="curve" smooth="yes"/>
			<point x="455.749" y="162"/>
			<point x="372.749" y="113"/>
			<point x="306.749" y="113" type="curve" smooth="yes"/>
			<point x="223.749" y="113"/>
			<point x="176.749" y="179"/>
			<point x="192.749" y="259" type="curve" smooth="yes"/>
			<point x="200.749" y="302"/>
			<point x="238.749" y="353"/>
			<point x="287.749" y="369" type="curve" smooth="yes"/>
			<point x="372.749" y="397"/>
			<point x="406.749" y="418"/>
			<point x="416.749" y="470" type="curve" smooth="yes"/>
			<point x="425.749" y="515"/>
			<point x="391.749" y="533"/>
			<point x="352.749" y="533" type="curve" smooth="yes"/>
			<point x="226.749" y="533"/>
			<point x="64.749" y="397"/>
			<point x="38.749" y="266" type="curve" smooth="yes"/>
			<point x="6.749" y="104"/>
			<point x="110.749" y="-13"/>
		</contour>
		<contour>
			<point x="116.749" y="185" type="line"/>
			<point x="178.749" y="194"/>
			<point x="232.749" y="197"/>
			<point x="282.749" y="197" type="curve" smooth="yes"/>
			<point x="384.749" y="197"/>
			<point x="470.749" y="185"/>
			<point x="566.749" y="185" type="curve" smooth="yes"/>
			<point x="614.749" y="185"/>
			<point x="637.749" y="201"/>
			<point x="643.749" y="231" type="curve" smooth="yes"/>
			<point x="651.749" y="272"/>
			<point x="620.749" y="301"/>
			<point x="589.749" y="301" type="curve" smooth="yes"/>
			<point x="490.749" y="301"/>
			<point x="398.749" y="313"/>
			<point x="297.749" y="313" type="curve" smooth="yes"/>
			<point x="247.749" y="313"/>
			<point x="195.749" y="310"/>
			<point x="139.749" y="301" type="curve"/>
		</contour>
	</outline>
	<anchor name="top" x="397.749" y="515"/>
	<guideline x="37.8" y="263" angle="90" identifier="CB8mICpc1y"/>
	<guideline x="40.8" y="278" angle="90" identifier="ESe4gH2bJH"/>
</glyph>
<glyph name="thai:baht" format="2">
	<unicode hex="0E3F"/>
	<advance width="633"/>
	<outline>
		<contour>
			<point x="487.8000876371" y="700" type="curve" smooth="yes" identifier="PIgHLQs9TH"/>
			<point x="507.8000876371" y="798"/>
			<point x="475.8000876371" y="838"/>
			<point x="410.8000876371" y="838" type="curve" smooth="yes"/>
			<point x="361.8000876371" y="838"/>
			<point x="340.8000876371" y="808"/>
			<point x="333.8000876371" y="763" type="curve" smooth="yes"/>
			<point x="324.8000876371" y="712"/>
			<point x="314.8000876371" y="667"/>
			<point x="304.8000876371" y="623" type="curve"/>
			<point x="465.8000876371" y="607" type="line"/>
			<point x="474.8000876371" y="640"/>
			<point x="481.8000876371" y="670"/>
		</contour>
		<contour>
			<point x="193.8000876371" y="96" type="line"/>
			<point x="189.8000876371" y="50"/>
			<point x="187.8000876371" y="3"/>
			<point x="187.8000876371" y="-52" type="curve" smooth="yes"/>
			<point x="186.8000876371" y="-115"/>
			<point x="210.8000876371" y="-144"/>
			<point x="254.8000876371" y="-144" type="curve" smooth="yes"/>
			<point x="300.8000876371" y="-144"/>
			<point x="335.8000876371" y="-116"/>
			<point x="346.8000876371" y="-58" type="curve" smooth="yes" identifier="nLZJZDN8Ev"/>
			<point x="357.8000876371" y="-6"/>
			<point x="358.8000876371" y="38"/>
			<point x="364.8000876371" y="109" type="curve"/>
		</contour>
		<component base="B"/>
	</outline>
</glyph>
<glyph name="bullet" format="2">
	<unicode hex="2022"/>
	<advance width="500"/>
	<outline>
		<contour>
			<point x="220.09" y="104" type="curve" smooth="yes"/>
			<point x="313.09" y="104"/>
			<point x="387.09" y="160"/>
			<point x="407.09" y="257" type="curve" smooth="yes"/>
			<point x="428.09" y="353"/>
			<point x="395.09" y="412"/>
			<point x="310.09" y="412" type="curve" smooth="yes"/>
			<point x="276.09" y="412"/>
			<point x="246.09" y="398"/>
			<point x="225.09" y="381" type="curve"/>
			<point x="219.09" y="387"/>
			<point x="213.09" y="389"/>
			<point x="200.09" y="389" type="curve" smooth="yes"/>
			<point x="161.09" y="389"/>
			<point x="105.09" y="331"/>
			<point x="91.09" y="258" type="curve" smooth="yes"/>
			<point x="71.09" y="159"/>
			<point x="126.09" y="104"/>
		</contour>
	</outline>
</glyph>
<glyph name="rupee" format="2">
	<unicode hex="20A8"/>
	<advance width="1079"/>
	<outline>
		<contour>
			<point x="709" y="-10" type="curve" smooth="yes"/>
			<point x="876" y="-10"/>
			<point x="1007" y="34"/>
			<point x="1032" y="154" type="curve" smooth="yes"/>
			<point x="1062" y="320"/>
			<point x="857" y="295"/>
			<point x="831" y="338" type="curve"/>
			<point x="851" y="351"/>
			<point x="879" y="364"/>
			<point x="918" y="364" type="curve" smooth="yes"/>
			<point x="962" y="364"/>
			<point x="968" y="358"/>
			<point x="1003" y="358" type="curve" smooth="yes"/>
			<point x="1035" y="358"/>
			<point x="1059" y="380"/>
			<point x="1067" y="415" type="curve" smooth="yes"/>
			<point x="1079" y="475"/>
			<point x="1046" y="524"/>
			<point x="946" y="525" type="curve" smooth="yes"/>
			<point x="836" y="526"/>
			<point x="702" y="481"/>
			<point x="677" y="354" type="curve" smooth="yes"/>
			<point x="645" y="204"/>
			<point x="841" y="207"/>
			<point x="876" y="178" type="curve"/>
			<point x="848" y="156"/>
			<point x="792" y="150"/>
			<point x="715" y="150" type="curve" smooth="yes"/>
			<point x="586" y="150"/>
			<point x="467" y="176"/>
			<point x="395" y="225" type="curve"/>
			<point x="558" y="278"/>
			<point x="675" y="383"/>
			<point x="700" y="509" type="curve" smooth="yes"/>
			<point x="720" y="610"/>
			<point x="684" y="710"/>
			<point x="540" y="710" type="curve" smooth="yes"/>
			<point x="457" y="710"/>
			<point x="373" y="665"/>
			<point x="298" y="595" type="curve"/>
			<point x="284" y="664"/>
			<point x="251" y="692"/>
			<point x="201" y="692" type="curve" smooth="yes"/>
			<point x="137" y="692"/>
			<point x="110" y="656"/>
			<point x="114" y="601" type="curve" smooth="yes"/>
			<point x="122" y="497"/>
			<point x="135" y="427"/>
			<point x="110" y="335" type="curve"/>
			<point x="60" y="240"/>
			<point x="31" y="175"/>
			<point x="21" y="126" type="curve" smooth="yes"/>
			<point x="3" y="35"/>
			<point x="50" y="-13"/>
			<point x="111" y="-13" type="curve" smooth="yes"/>
			<point x="157" y="-13"/>
			<point x="184" y="15"/>
			<point x="194" y="65" type="curve" smooth="yes"/>
			<point x="276" y="472"/>
			<point x="488" y="540"/>
			<point x="512" y="540" type="curve" smooth="yes"/>
			<point x="526" y="540"/>
			<point x="532" y="529"/>
			<point x="529" y="515" type="curve" smooth="yes"/>
			<point x="521" y="477"/>
			<point x="435" y="364"/>
			<point x="223" y="323" type="curve" smooth="yes"/>
			<point x="182" y="315"/>
			<point x="151" y="237"/>
			<point x="168" y="206" type="curve"/>
			<point x="227" y="65"/>
			<point x="450" y="-10"/>
		</contour>
	</outline>
</glyph>
<glyph name="newsheqel" format="2">
	<unicode hex="20AA"/>
	<advance width="700"/>
	<outline>
		<contour>
			<point x="244.1084892969" y="700" type="curve" smooth="yes"/>
			<point x="174" y="700"/>
			<point x="131" y="661"/>
			<point x="120" y="604" type="curve" smooth="yes" identifier="TR9n5cCtx0"/>
			<point x="88" y="441"/>
			<point x="67" y="312"/>
			<point x="40.1084892969" y="173" type="curve" smooth="yes" identifier="fJTxeUhpki"/>
			<point x="28.1084892969" y="115"/>
			<point x="17.1084892969" y="88"/>
			<point x="10.1084892969" y="55" type="curve" smooth="yes" identifier="hGTvstHpu3"/>
			<point x="2" y="13"/>
			<point x="18" y="-9"/>
			<point x="56" y="-9" type="curve" smooth="yes"/>
			<point x="102" y="-9"/>
			<point x="128" y="24"/>
			<point x="141" y="88" type="curve" smooth="yes" identifier="bU3sVprolk"/>
			<point x="178" y="276"/>
			<point x="194" y="397"/>
			<point x="238" y="589" type="curve"/>
			<point x="272" y="594"/>
			<point x="305" y="597"/>
			<point x="334" y="597" type="curve" smooth="yes"/>
			<point x="408" y="597"/>
			<point x="436" y="568"/>
			<point x="419.1084892969" y="487" type="curve" smooth="yes" identifier="deGOV67M8U"/>
			<point x="403.1084892969" y="407"/>
			<point x="376.1084892969" y="291"/>
			<point x="361.1084892969" y="214" type="curve" smooth="yes" identifier="k4Hulg9GxI"/>
			<point x="349.1084892969" y="155"/>
			<point x="367.1084892969" y="141"/>
			<point x="395.1084892969" y="141" type="curve" smooth="yes"/>
			<point x="437.1084892969" y="141"/>
			<point x="466.1084892969" y="164"/>
			<point x="477.1084892969" y="222" type="curve" smooth="yes" identifier="Fvk6mg31yK"/>
			<point x="495.1084892969" y="310"/>
			<point x="508" y="368"/>
			<point x="530" y="478" type="curve" smooth="yes" identifier="6Qveow4on4"/>
			<point x="555" y="605"/>
			<point x="518" y="705"/>
			<point x="342" y="705" type="curve" smooth="yes"/>
			<point x="310" y="705"/>
			<point x="277" y="700"/>
		</contour>
		<contour>
			<point x="258.1084892969" y="-6" type="curve" smooth="yes"/>
			<point x="302" y="-6"/>
			<point x="343" y="-11"/>
			<point x="385" y="-11" type="curve" smooth="yes"/>
			<point x="539" y="-11"/>
			<point x="612" y="78"/>
			<point x="639" y="211" type="curve" smooth="yes" identifier="VL7CGfqUtz"/>
			<point x="663" y="330"/>
			<point x="678" y="426"/>
			<point x="694.1084892969" y="506" type="curve" smooth="yes" identifier="D9Oo7Zrjem"/>
			<point x="707.1084892969" y="572"/>
			<point x="717.1084892969" y="601"/>
			<point x="724.1084892969" y="635" type="curve" smooth="yes" identifier="ON0ZNdiv3q"/>
			<point x="734" y="686"/>
			<point x="715" y="706"/>
			<point x="675" y="706" type="curve" smooth="yes"/>
			<point x="637" y="706"/>
			<point x="611" y="683"/>
			<point x="597" y="613" type="curve" smooth="yes" identifier="VmXpGV8tbX"/>
			<point x="575" y="505"/>
			<point x="546.1084892969" y="337"/>
			<point x="524.1084892969" y="223" type="curve" smooth="yes" identifier="dAcQWovelA"/>
			<point x="506" y="131"/>
			<point x="459" y="96"/>
			<point x="388" y="96" type="curve" smooth="yes"/>
			<point x="360" y="96"/>
			<point x="328" y="99"/>
			<point x="295" y="102" type="curve"/>
			<point x="324" y="247"/>
			<point x="343" y="326"/>
			<point x="370.1084892969" y="465" type="curve" smooth="yes" identifier="O9LUm74Eqk"/>
			<point x="380.1084892969" y="517"/>
			<point x="368.1084892969" y="552"/>
			<point x="324.1084892969" y="552" type="curve" smooth="yes"/>
			<point x="293.1084892969" y="552"/>
			<point x="270.1084892969" y="530"/>
			<point x="261.1084892969" y="487" type="curve" smooth="yes" identifier="S2v1J1MhLJ"/>
			<point x="253.1084892969" y="447"/>
			<point x="248.1084892969" y="412"/>
			<point x="234.1084892969" y="341" type="curve" smooth="yes" identifier="rzSJIG03xV"/>
			<point x="219.1084892969" y="265"/>
			<point x="201.1084892969" y="194"/>
			<point x="183.1084892969" y="105" type="curve" smooth="yes" identifier="lTpOvBIMDp"/>
			<point x="170.1084892969" y="40"/>
			<point x="191.1084892969" y="-6"/>
		</contour>
	</outline>
</glyph>
<glyph name="peso" format="2">
	<unicode hex="20B1"/>
	<advance width="700"/>
	<outline>
		<contour>
			<point x="63" y="119" type="curve" smooth="yes"/>
			<point x="44" y="26"/>
			<point x="81" y="-10"/>
			<point x="133" y="-10" type="curve" smooth="yes"/>
			<point x="202" y="-10"/>
			<point x="222" y="29"/>
			<point x="233" y="86" type="curve" smooth="yes"/>
			<point x="270.694" y="272.376"/>
			<point x="263.222" y="357.121"/>
			<point x="285.208" y="466" type="curve" smooth="yes"/>
			<point x="296.208" y="521"/>
			<point x="340.208" y="551"/>
			<point x="395.208" y="551" type="curve" smooth="yes"/>
			<point x="459.919" y="551"/>
			<point x="496.663" y="506.816"/>
			<point x="478" y="417" type="curve" smooth="yes"/>
			<point x="460.2" y="327.998"/>
			<point x="401.261" y="261"/>
			<point x="335.208" y="261" type="curve" smooth="yes"/>
			<point x="273.208" y="261"/>
			<point x="264.208" y="278"/>
			<point x="237.208" y="278" type="curve" smooth="yes"/>
			<point x="204.208" y="278"/>
			<point x="173.208" y="259"/>
			<point x="166.208" y="224" type="curve" smooth="yes"/>
			<point x="155.112" y="168.523"/>
			<point x="226.481" y="117"/>
			<point x="341" y="117" type="curve" smooth="yes"/>
			<point x="490.053" y="117"/>
			<point x="616.759" y="238.045"/>
			<point x="647" y="392" type="curve" smooth="yes"/>
			<point x="685.002" y="578.755"/>
			<point x="592.709" y="708"/>
			<point x="411" y="708" type="curve" smooth="yes"/>
			<point x="246.028" y="708"/>
			<point x="139.948" y="600.742"/>
			<point x="117" y="486" type="curve" smooth="yes"/>
			<point x="93.633" y="365.826"/>
			<point x="104.28" y="325.401"/>
		</contour>
		<contour>
			<point x="112.208" y="483" type="curve" smooth="yes"/>
			<point x="68.208" y="473"/>
			<point x="47.208" y="449"/>
			<point x="42.208" y="423" type="curve" smooth="yes"/>
			<point x="35.208" y="388"/>
			<point x="64.208" y="368"/>
			<point x="95.208" y="368" type="curve" smooth="yes"/>
			<point x="112.208" y="368"/>
			<point x="141.208" y="371"/>
			<point x="182.208" y="373" type="curve" smooth="yes"/>
			<point x="230.208" y="376"/>
			<point x="252.208" y="395"/>
			<point x="259.208" y="429" type="curve" smooth="yes"/>
			<point x="265.208" y="462"/>
			<point x="244.208" y="489"/>
			<point x="184.208" y="489" type="curve" smooth="yes"/>
			<point x="169.208" y="489"/>
			<point x="134.208" y="488"/>
		</contour>
		<contour>
			<point x="110.208" y="331" type="curve" smooth="yes"/>
			<point x="61.208" y="328"/>
			<point x="36.208" y="308"/>
			<point x="29.208" y="275" type="curve" smooth="yes"/>
			<point x="21.208" y="236"/>
			<point x="54.208" y="213"/>
			<point x="91.208" y="213" type="curve" smooth="yes"/>
			<point x="102.923" y="213"/>
			<point x="122.199" y="215.31"/>
			<point x="136" y="216" type="curve" smooth="yes"/>
			<point x="199" y="219"/>
			<point x="232" y="250"/>
			<point x="240" y="289" type="curve" smooth="yes"/>
			<point x="245" y="314"/>
			<point x="232" y="334"/>
			<point x="181" y="334" type="curve" smooth="yes"/>
			<point x="161.552" y="334"/>
			<point x="134.397" y="333.341"/>
		</contour>
		<contour>
			<point x="264" y="486" type="curve" smooth="yes"/>
			<point x="246" y="482"/>
			<point x="236" y="466"/>
			<point x="234" y="453" type="curve" smooth="yes"/>
			<point x="228" y="432"/>
			<point x="244" y="420"/>
			<point x="280" y="420" type="curve" smooth="yes"/>
			<point x="381.066" y="420"/>
			<point x="484.379" y="416"/>
			<point x="647.208" y="416" type="curve" smooth="yes"/>
			<point x="696.208" y="416"/>
			<point x="719.208" y="441"/>
			<point x="727.208" y="479" type="curve" smooth="yes"/>
			<point x="733.208" y="512"/>
			<point x="712.208" y="539"/>
			<point x="652.208" y="539" type="curve" smooth="yes"/>
			<point x="578.582" y="539"/>
			<point x="329.517" y="500.436"/>
		</contour>
		<contour>
			<point x="260" y="381" type="curve" smooth="yes"/>
			<point x="241" y="382"/>
			<point x="231" y="371"/>
			<point x="227" y="355" type="curve" smooth="yes"/>
			<point x="222" y="332"/>
			<point x="241" y="316"/>
			<point x="281" y="305" type="curve" smooth="yes"/>
			<point x="360.745" y="284.494"/>
			<point x="500.261" y="257.41"/>
			<point x="593.208" y="262" type="curve" smooth="yes"/>
			<point x="656.208" y="265"/>
			<point x="690.208" y="298"/>
			<point x="698.208" y="339" type="curve" smooth="yes"/>
			<point x="703.208" y="364"/>
			<point x="690.208" y="384"/>
			<point x="639.208" y="384" type="curve" smooth="yes"/>
			<point x="545.245" y="384"/>
			<point x="328.235" y="381"/>
		</contour>
	</outline>
</glyph>
<glyph name="lari" format="2">
	<unicode hex="20BE"/>
	<advance width="700"/>
	<outline>
		<contour>
			<point x="518.9485788886" y="457" type="curve" smooth="yes" identifier="e1WPYW4T0J"/>
			<point x="509.9485788886" y="412"/>
			<point x="476.9485788886" y="394"/>
			<point x="467.9485788886" y="349" type="curve" smooth="yes" identifier="LLhlEymX5Z"/>
			<point x="460.9485788886" y="314"/>
			<point x="479" y="290"/>
			<point x="531" y="290" type="curve" smooth="yes"/>
			<point x="615" y="290"/>
			<point x="675" y="347"/>
			<point x="696" y="450" type="curve" smooth="yes" identifier="vf03jniDEq"/>
			<point x="725" y="596"/>
			<point x="650" y="701"/>
			<point x="483" y="701" type="curve" smooth="yes"/>
			<point x="278" y="701"/>
			<point x="138" y="591"/>
			<point x="101" y="409" type="curve" smooth="yes" identifier="IQpUkDylxU"/>
			<point x="72" y="266"/>
			<point x="151.9485788886" y="128"/>
			<point x="319.9485788886" y="100" type="curve"/>
			<point x="381.9485788886" y="162" type="line"/>
			<point x="327.9485788886" y="162"/>
			<point x="256.9485788886" y="166"/>
			<point x="185.9485788886" y="166" type="curve" smooth="yes"/>
			<point x="74.9485788886" y="166"/>
			<point x="10.9485788886" y="130"/>
			<point x="-2.0514211114" y="64" type="curve" smooth="yes" identifier="zcTCe7BEc7"/>
			<point x="-11.0514211114" y="20"/>
			<point x="11.9485788886" y="-7"/>
			<point x="49.9485788886" y="-7" type="curve" smooth="yes"/>
			<point x="89.9485788886" y="-7"/>
			<point x="115.9485788886" y="0"/>
			<point x="178.9485788886" y="0" type="curve" smooth="yes"/>
			<point x="288.9485788886" y="0"/>
			<point x="386.9485788886" y="-8"/>
			<point x="474.9485788886" y="-8" type="curve" smooth="yes"/>
			<point x="572.9485788886" y="-8"/>
			<point x="616.9485788886" y="42"/>
			<point x="628.9485788886" y="101" type="curve" smooth="yes" identifier="TCMWS23cKD"/>
			<point x="636.9485788886" y="142"/>
			<point x="617.9485788886" y="169"/>
			<point x="537.9485788886" y="169" type="curve" smooth="yes"/>
			<point x="324.9485788886" y="169"/>
			<point x="248" y="261"/>
			<point x="273" y="385" type="curve" smooth="yes" identifier="iAqGxmJIdV"/>
			<point x="290" y="468"/>
			<point x="347" y="531"/>
			<point x="449" y="531" type="curve" smooth="yes"/>
			<point x="508" y="531"/>
			<point x="528.9485788886" y="504"/>
		</contour>
		<contour>
			<point x="493.9485788886" y="720" type="curve" smooth="yes" identifier="i2BIuJwjrN"/>
			<point x="506.9485788886" y="784"/>
			<point x="477.9485788886" y="813"/>
			<point x="430.9485788886" y="813" type="curve" smooth="yes"/>
			<point x="375.9485788886" y="813"/>
			<point x="348.9485788886" y="784"/>
			<point x="337.9485788886" y="729" type="curve" smooth="yes" identifier="AItDQJrT8M"/>
			<point x="328.9485788886" y="683"/>
			<point x="312.9485788886" y="648"/>
			<point x="304.9485788886" y="611" type="curve" smooth="yes" identifier="LtP5AXjjUu"/>
			<point x="296.9485788886" y="568"/>
			<point x="316.9485788886" y="535"/>
			<point x="372.9485788886" y="534" type="curve" smooth="yes"/>
			<point x="419.9485788886" y="533"/>
			<point x="452.9485788886" y="561"/>
			<point x="462.9485788886" y="611" type="curve" smooth="yes" identifier="EOArnEmDxp"/>
			<point x="469.9485788886" y="644"/>
			<point x="486.9485788886" y="686"/>
		</contour>
		<contour>
			<point x="693.9485788886" y="720" type="curve" smooth="yes" identifier="5VA3VhyyUD"/>
			<point x="706.9485788886" y="784"/>
			<point x="675.9485788886" y="813"/>
			<point x="628.9485788886" y="813" type="curve" smooth="yes"/>
			<point x="574.9485788886" y="813"/>
			<point x="548.9485788886" y="783"/>
			<point x="536.9485788886" y="723" type="curve" smooth="yes" identifier="PUMUomfuXh"/>
			<point x="528.9485788886" y="684"/>
			<point x="510.9485788886" y="636"/>
			<point x="502.9485788886" y="595" type="curve" smooth="yes" identifier="TTZlQnauy0"/>
			<point x="493.9485788886" y="550"/>
			<point x="512.9485788886" y="515"/>
			<point x="568.9485788886" y="514" type="curve" smooth="yes"/>
			<point x="615.9485788886" y="513"/>
			<point x="648.9485788886" y="541"/>
			<point x="658.9485788886" y="591" type="curve" smooth="yes" identifier="Cx7jYn7MT4"/>
			<point x="666.9485788886" y="630"/>
			<point x="685.9485788886" y="680"/>
		</contour>
	</outline>
</glyph>
<glyph name="bitcoin" format="2">
	<unicode hex="20BF"/>
	<advance width="633"/>
	<outline>
		<contour>
			<point x="385.5106993929" y="700" type="curve" smooth="yes" identifier="CJtRm9jDkS"/>
			<point x="405.5106993929" y="798"/>
			<point x="373.5106993929" y="838"/>
			<point x="308.5106993929" y="838" type="curve" smooth="yes"/>
			<point x="259.5106993929" y="838"/>
			<point x="238.5106993929" y="808"/>
			<point x="231.5106993929" y="763" type="curve" smooth="yes"/>
			<point x="222.5106993929" y="712"/>
			<point x="212.5106993929" y="667"/>
			<point x="202.5106993929" y="623" type="curve"/>
			<point x="363.5106993929" y="607" type="line"/>
			<point x="372.5106993929" y="640"/>
			<point x="379.5106993929" y="670"/>
		</contour>
		<contour>
			<point x="99.5106993929" y="96" type="line"/>
			<point x="66.5106993929" y="-80"/>
			<point x="64.5106993929" y="-144"/>
			<point x="142.5106993929" y="-144" type="curve" smooth="yes"/>
			<point x="188.5106993929" y="-144"/>
			<point x="225.5106993929" y="-116"/>
			<point x="240.5106993929" y="-58" type="curve" smooth="yes"/>
			<point x="255.5106993929" y="-6"/>
			<point x="259.5106993929" y="38"/>
			<point x="271.5106993929" y="109" type="curve"/>
		</contour>
		<contour>
			<point x="601.5106993929" y="730" type="curve" smooth="yes" identifier="IPPedMGTe2"/>
			<point x="616.5106993929" y="807"/>
			<point x="591.5106993929" y="838"/>
			<point x="538.5106993929" y="838" type="curve" smooth="yes"/>
			<point x="473.5106993929" y="838"/>
			<point x="443.5106993929" y="792"/>
			<point x="433.5106993929" y="723" type="curve" smooth="yes"/>
			<point x="426.5106993929" y="686"/>
			<point x="419.5106993929" y="654"/>
			<point x="412.5106993929" y="623" type="curve"/>
			<point x="573.5106993929" y="607" type="line"/>
			<point x="585.5106993929" y="651"/>
			<point x="593.5106993929" y="690"/>
		</contour>
		<contour>
			<point x="301.5106993929" y="96" type="line"/>
			<point x="286.5106993929" y="-76"/>
			<point x="291.5106993929" y="-144"/>
			<point x="362.5106993929" y="-144" type="curve" smooth="yes"/>
			<point x="408.5106993929" y="-144"/>
			<point x="443.5106993929" y="-116"/>
			<point x="454.5106993929" y="-58" type="curve" smooth="yes" identifier="RaL1BlkzRs"/>
			<point x="465.5106993929" y="-6"/>
			<point x="466.5106993929" y="38"/>
			<point x="472.5106993929" y="109" type="curve"/>
		</contour>
		<component base="B" xOffset="-2.2893882442"/>
	</outline>
</glyph>
<glyph name="numero" format="2">
	<unicode hex="2116"/>
	<advance width="1290"/>
	<outline>
		<contour>
			<point x="929" y="98" type="curve" smooth="yes"/>
			<point x="985" y="98"/>
			<point x="1111" y="98"/>
			<point x="1181" y="98" type="curve" smooth="yes"/>
			<point x="1212" y="98"/>
			<point x="1234" y="118"/>
			<point x="1240" y="151" type="curve" smooth="yes"/>
			<point x="1248" y="191"/>
			<point x="1222" y="258"/>
			<point x="1110" y="258" type="curve" smooth="yes"/>
			<point x="1014" y="258"/>
			<point x="894" y="251"/>
			<point x="833" y="248" type="curve" smooth="yes"/>
			<point x="801" y="247"/>
			<point x="788" y="222"/>
			<point x="784" y="198" type="curve" smooth="yes"/>
			<point x="774" y="149"/>
			<point x="823" y="98"/>
		</contour>
		<contour>
			<point x="1059" y="551" type="curve" smooth="yes"/>
			<point x="1085" y="567"/>
			<point x="1090" y="579"/>
			<point x="1095" y="601" type="curve" smooth="yes"/>
			<point x="1103" y="643"/>
			<point x="1090" y="660"/>
			<point x="1049" y="660" type="curve" smooth="yes"/>
			<point x="1002" y="660"/>
			<point x="888" y="624"/>
			<point x="862" y="497" type="curve" smooth="yes"/>
			<point x="837" y="370"/>
			<point x="920" y="285"/>
			<point x="1047" y="285" type="curve" smooth="yes"/>
			<point x="1165" y="285"/>
			<point x="1285" y="344"/>
			<point x="1314" y="489" type="curve" smooth="yes"/>
			<point x="1340" y="617"/>
			<point x="1268" y="714"/>
			<point x="1136" y="714" type="curve" smooth="yes"/>
			<point x="996" y="714"/>
			<point x="939" y="656"/>
			<point x="929" y="607" type="curve" smooth="yes"/>
			<point x="924" y="576"/>
			<point x="936" y="528"/>
			<point x="992" y="528" type="curve" smooth="yes"/>
			<point x="1004" y="528"/>
			<point x="1019" y="541"/>
			<point x="1037" y="551" type="curve" smooth="yes"/>
			<point x="1057" y="563"/>
			<point x="1072" y="570"/>
			<point x="1123" y="570" type="curve" smooth="yes"/>
			<point x="1159" y="570"/>
			<point x="1173" y="540"/>
			<point x="1166" y="506" type="curve" smooth="yes"/>
			<point x="1155" y="455"/>
			<point x="1107" y="424"/>
			<point x="1058" y="424" type="curve" smooth="yes"/>
			<point x="1020" y="424"/>
			<point x="1001" y="449"/>
			<point x="1006" y="481" type="curve" smooth="yes"/>
			<point x="1011" y="508"/>
			<point x="1029" y="532"/>
		</contour>
		<component base="N" xOffset="-2.468"/>
	</outline>
	<anchor name="bottom" x="333.864" y="0"/>
	<anchor name="top" x="473.865" y="700"/>
</glyph>
<glyph name="arrowleftright" format="2">
	<unicode hex="2194"/>
	<advance width="1100"/>
	<outline>
		<contour>
			<point x="508" y="439" type="curve" smooth="yes"/>
			<point x="474" y="439"/>
			<point x="413" y="417"/>
			<point x="401" y="356" type="curve" smooth="yes" identifier="rB6YUiK5BQ"/>
			<point x="392" y="314"/>
			<point x="409" y="278"/>
			<point x="461" y="268" type="curve" smooth="yes"/>
			<point x="475" y="266"/>
			<point x="497" y="264"/>
			<point x="524" y="264" type="curve" smooth="yes"/>
			<point x="556" y="264"/>
			<point x="592" y="266"/>
			<point x="625" y="271" type="curve" smooth="yes"/>
			<point x="674" y="278"/>
			<point x="707" y="309"/>
			<point x="715" y="351" type="curve" smooth="yes" identifier="qeMUkLgsst"/>
			<point x="727" y="412"/>
			<point x="688" y="445"/>
			<point x="634" y="445" type="curve" smooth="yes"/>
			<point x="606" y="445"/>
			<point x="579" y="438"/>
			<point x="554" y="438" type="curve" smooth="yes"/>
			<point x="541" y="438"/>
			<point x="530" y="439"/>
		</contour>
		<contour>
			<point x="493" y="481" type="curve" smooth="yes"/>
			<point x="544" y="502"/>
			<point x="567" y="525"/>
			<point x="573" y="557" type="curve" smooth="yes"/>
			<point x="585" y="614"/>
			<point x="553" y="648"/>
			<point x="499" y="648" type="curve" smooth="yes"/>
			<point x="481" y="648"/>
			<point x="469" y="645"/>
			<point x="439" y="633" type="curve" smooth="yes"/>
			<point x="347" y="596"/>
			<point x="181" y="497"/>
			<point x="96" y="424" type="curve" smooth="yes"/>
			<point x="75" y="406"/>
			<point x="63" y="389"/>
			<point x="58" y="366" type="curve" smooth="yes"/>
			<point x="55" y="353"/>
			<point x="56" y="337"/>
			<point x="60" y="324" type="curve" smooth="yes"/>
			<point x="94" y="218"/>
			<point x="229" y="98"/>
			<point x="355" y="63" type="curve" smooth="yes"/>
			<point x="382" y="55"/>
			<point x="394" y="53"/>
			<point x="408" y="53" type="curve" smooth="yes"/>
			<point x="456" y="53"/>
			<point x="504" y="79"/>
			<point x="515" y="136" type="curve" smooth="yes"/>
			<point x="523" y="180"/>
			<point x="494" y="203"/>
			<point x="450" y="214" type="curve" smooth="yes"/>
			<point x="349" y="239"/>
			<point x="245" y="310"/>
			<point x="224" y="380" type="curve"/>
			<point x="209" y="305" type="line"/>
			<point x="263" y="351"/>
			<point x="364" y="427"/>
		</contour>
		<contour>
			<point x="820" y="633" type="curve" smooth="yes"/>
			<point x="797" y="645"/>
			<point x="779" y="649"/>
			<point x="756" y="649" type="curve" smooth="yes"/>
			<point x="714" y="649"/>
			<point x="673" y="623"/>
			<point x="666" y="585" type="curve" smooth="yes"/>
			<point x="658" y="541"/>
			<point x="670" y="517"/>
			<point x="702" y="500" type="curve" smooth="yes"/>
			<point x="792" y="454"/>
			<point x="868" y="386"/>
			<point x="915" y="308" type="curve"/>
			<point x="934" y="408" type="line"/>
			<point x="866" y="333"/>
			<point x="721" y="307"/>
			<point x="619" y="200" type="curve" smooth="yes"/>
			<point x="603" y="183"/>
			<point x="594" y="165"/>
			<point x="590" y="146" type="curve" smooth="yes"/>
			<point x="580" y="94"/>
			<point x="611" y="49"/>
			<point x="658" y="49" type="curve" smooth="yes"/>
			<point x="685" y="49"/>
			<point x="714" y="64"/>
			<point x="736" y="87" type="curve" smooth="yes"/>
			<point x="835" y="191"/>
			<point x="983" y="211"/>
			<point x="1050" y="283" type="curve" smooth="yes"/>
			<point x="1066" y="299"/>
			<point x="1073" y="311"/>
			<point x="1077" y="330" type="curve" smooth="yes"/>
			<point x="1081" y="351"/>
			<point x="1076" y="370"/>
			<point x="1066" y="387" type="curve" smooth="yes"/>
			<point x="1000" y="488"/>
			<point x="918" y="583"/>
		</contour>
	</outline>
</glyph>
<glyph name="lessequal" format="2">
	<unicode hex="2264"/>
	<advance width="700"/>
	<outline>
		<contour>
			<point x="599" y="483" type="curve" smooth="yes"/>
			<point x="652" y="490"/>
			<point x="671" y="526"/>
			<point x="677" y="558" type="curve" smooth="yes"/>
			<point x="685.889" y="599.483"/>
			<point x="656.954" y="634"/>
			<point x="592.807" y="634" type="curve" smooth="yes"/>
			<point x="570.807" y="634"/>
			<point x="535.807" y="629"/>
			<point x="497.807" y="620" type="curve" smooth="yes"/>
			<point x="389.807" y="597"/>
			<point x="267.807" y="556"/>
			<point x="179.806" y="518" type="curve" smooth="yes"/>
			<point x="132.806" y="499"/>
			<point x="113.806" y="482"/>
			<point x="105.806" y="438" type="curve" smooth="yes"/>
			<point x="97.806" y="398"/>
			<point x="109.806" y="375"/>
			<point x="139.806" y="357" type="curve" smooth="yes"/>
			<point x="210.806" y="316"/>
			<point x="321.807" y="277"/>
			<point x="474.807" y="258" type="curve" smooth="yes"/>
			<point x="507.807" y="253"/>
			<point x="529.807" y="251"/>
			<point x="566.807" y="251" type="curve" smooth="yes"/>
			<point x="612.909" y="251"/>
			<point x="645.871" y="272.373"/>
			<point x="654" y="312" type="curve" smooth="yes"/>
			<point x="663" y="356"/>
			<point x="655" y="394"/>
			<point x="596" y="398" type="curve" smooth="yes"/>
			<point x="476" y="405"/>
			<point x="383" y="421"/>
			<point x="316" y="451" type="curve"/>
			<point x="310" y="422" type="line"/>
			<point x="385" y="447"/>
			<point x="486" y="467"/>
		</contour>
		<contour>
			<point x="503.807" y="58" type="curve" smooth="yes"/>
			<point x="576.807" y="58"/>
			<point x="602.807" y="85"/>
			<point x="610.807" y="123" type="curve" smooth="yes"/>
			<point x="621.807" y="182"/>
			<point x="577.807" y="208"/>
			<point x="489.807" y="208" type="curve" smooth="yes"/>
			<point x="377.807" y="208"/>
			<point x="261.807" y="202"/>
			<point x="132.806" y="185" type="curve" smooth="yes"/>
			<point x="51.806" y="173"/>
			<point x="26.806" y="143"/>
			<point x="19.806" y="109" type="curve" smooth="yes"/>
			<point x="9.806" y="60"/>
			<point x="41.806" y="26"/>
			<point x="103.806" y="26" type="curve" smooth="yes"/>
			<point x="190.806" y="26"/>
			<point x="242.806" y="58"/>
		</contour>
	</outline>
	<guideline x="111.8" y="361" angle="0" identifier="rW7m8EbV2I"/>
</glyph>
<glyph name="greaterequal" format="2">
	<unicode hex="2265"/>
	<advance width="700"/>
	<outline>
		<contour>
			<point x="184" y="385" type="curve" smooth="yes"/>
			<point x="131" y="378"/>
			<point x="113" y="347"/>
			<point x="107" y="318" type="curve" smooth="yes"/>
			<point x="97.797" y="270.961"/>
			<point x="125.955" y="231"/>
			<point x="188.806" y="231" type="curve" smooth="yes"/>
			<point x="209.806" y="231"/>
			<point x="243.806" y="236"/>
			<point x="281.807" y="244" type="curve" smooth="yes"/>
			<point x="385.807" y="265"/>
			<point x="504.807" y="302"/>
			<point x="590.807" y="337" type="curve" smooth="yes"/>
			<point x="636.807" y="354"/>
			<point x="669.807" y="378"/>
			<point x="677.807" y="418" type="curve" smooth="yes"/>
			<point x="687.807" y="472"/>
			<point x="672.807" y="506"/>
			<point x="636.807" y="525" type="curve" smooth="yes"/>
			<point x="567.807" y="560"/>
			<point x="456.807" y="591"/>
			<point x="308.807" y="608" type="curve" smooth="yes"/>
			<point x="274.807" y="612"/>
			<point x="252.806" y="614"/>
			<point x="215.806" y="614" type="curve" smooth="yes"/>
			<point x="168.908" y="614"/>
			<point x="133.758" y="592.731"/>
			<point x="126" y="552" type="curve" smooth="yes"/>
			<point x="118" y="510"/>
			<point x="127" y="474"/>
			<point x="191" y="470" type="curve" smooth="yes"/>
			<point x="318" y="462"/>
			<point x="400" y="447"/>
			<point x="467" y="417" type="curve"/>
			<point x="473" y="446" type="line"/>
			<point x="398" y="421"/>
			<point x="297" y="401"/>
		</contour>
		<contour>
			<point x="503.807" y="58" type="curve" smooth="yes"/>
			<point x="576.807" y="58"/>
			<point x="602.807" y="85"/>
			<point x="610.807" y="123" type="curve" smooth="yes"/>
			<point x="621.807" y="182"/>
			<point x="577.807" y="208"/>
			<point x="489.807" y="208" type="curve" smooth="yes"/>
			<point x="377.807" y="208"/>
			<point x="261.807" y="202"/>
			<point x="132.806" y="185" type="curve" smooth="yes"/>
			<point x="51.806" y="173"/>
			<point x="26.806" y="143"/>
			<point x="19.806" y="109" type="curve" smooth="yes"/>
			<point x="9.806" y="60"/>
			<point x="41.806" y="26"/>
			<point x="103.806" y="26" type="curve" smooth="yes"/>
			<point x="190.806" y="26"/>
			<point x="242.806" y="58"/>
		</contour>
	</outline>
</glyph>
<glyph name="heartwhite" format="2">
	<unicode hex="2661"/>
	<advance width="899"/>
	<outline>
		<contour>
			<point x="442.939" y="470" type="curve" smooth="yes"/>
			<point x="458.939" y="429"/>
			<point x="511.939" y="415"/>
			<point x="557.939" y="439" type="curve" smooth="yes"/>
			<point x="588.129" y="454.751"/>
			<point x="604" y="515"/>
			<point x="589" y="550" type="curve" smooth="yes"/>
			<point x="542.597" y="654.654"/>
			<point x="469.158" y="708"/>
			<point x="371" y="708" type="curve" smooth="yes"/>
			<point x="239.1" y="708"/>
			<point x="120" y="623"/>
			<point x="92" y="478" type="curve" smooth="yes"/>
			<point x="46" y="251"/>
			<point x="316" y="-12"/>
			<point x="465" y="-12" type="curve" smooth="yes"/>
			<point x="656" y="-12"/>
			<point x="854.724" y="289.581"/>
			<point x="890" y="464" type="curve" smooth="yes"/>
			<point x="915.356" y="593.949"/>
			<point x="859.722" y="662"/>
			<point x="740" y="662" type="curve" smooth="yes"/>
			<point x="623.105" y="662"/>
			<point x="509.085" y="590.378"/>
			<point x="411.939" y="453" type="curve" smooth="yes"/>
			<point x="371.939" y="397"/>
			<point x="398" y="308"/>
			<point x="465" y="308" type="curve" smooth="yes"/>
			<point x="492" y="308"/>
			<point x="517.939" y="326"/>
			<point x="542.939" y="361" type="curve" smooth="yes"/>
			<point x="596.939" y="437"/>
			<point x="658.939" y="486"/>
			<point x="715.939" y="486" type="curve" smooth="yes"/>
			<point x="720" y="486"/>
			<point x="720" y="485"/>
			<point x="719" y="479" type="curve"/>
			<point x="700" y="386"/>
			<point x="572" y="163"/>
			<point x="477" y="163" type="curve" smooth="yes"/>
			<point x="403" y="163"/>
			<point x="241" y="326"/>
			<point x="268" y="458" type="curve" smooth="yes"/>
			<point x="278.475" y="510.374"/>
			<point x="320.25" y="540"/>
			<point x="363" y="540" type="curve" smooth="yes"/>
			<point x="402.45" y="540"/>
			<point x="427.073" y="511.252"/>
		</contour>
	</outline>
</glyph>
<glyph name="be-cy.loclSRB" format="2">
	<advance width="651"/>
	<outline>
		<contour>
			<point x="476.884" y="342" type="curve"/>
			<point x="474.884" y="469" type="line"/>
			<point x="223.884" y="461"/>
			<point x="73.884" y="390"/>
			<point x="46.884" y="253" type="curve" smooth="yes"/>
			<point x="17.884" y="109"/>
			<point x="97.884" y="-12"/>
			<point x="246.884" y="-12" type="curve" smooth="yes"/>
			<point x="381.884" y="-12"/>
			<point x="584.884" y="125"/>
			<point x="624.884" y="325" type="curve" smooth="yes"/>
			<point x="645.884" y="432"/>
			<point x="582.884" y="502"/>
			<point x="485.884" y="561" type="curve" smooth="yes"/>
			<point x="432.884" y="593"/>
			<point x="365.884" y="615"/>
			<point x="311.884" y="632" type="curve"/>
			<point x="332.884" y="595" type="line"/>
			<point x="382.884" y="604"/>
			<point x="439.884" y="608"/>
			<point x="498.884" y="608" type="curve" smooth="yes"/>
			<point x="534.884" y="608"/>
			<point x="583.884" y="603"/>
			<point x="622.884" y="603" type="curve" smooth="yes"/>
			<point x="706.884" y="603"/>
			<point x="754.884" y="659"/>
			<point x="760.884" y="691" type="curve" smooth="yes"/>
			<point x="769.884" y="736"/>
			<point x="738.884" y="750"/>
			<point x="693.884" y="757" type="curve" smooth="yes"/>
			<point x="659.884" y="762"/>
			<point x="588.884" y="766"/>
			<point x="476.884" y="766" type="curve" smooth="yes"/>
			<point x="314.884" y="766"/>
			<point x="169.884" y="755"/>
			<point x="148.884" y="652" type="curve" smooth="yes"/>
			<point x="133.884" y="577"/>
			<point x="201.884" y="536"/>
			<point x="346.884" y="475" type="curve" smooth="yes"/>
			<point x="412.884" y="447"/>
			<point x="462.884" y="388"/>
			<point x="448.884" y="321" type="curve" smooth="yes"/>
			<point x="426.884" y="211"/>
			<point x="345.884" y="160"/>
			<point x="280.884" y="160" type="curve" smooth="yes"/>
			<point x="219.884" y="160"/>
			<point x="210.884" y="218"/>
			<point x="217.884" y="254" type="curve" smooth="yes"/>
			<point x="229.884" y="315"/>
			<point x="366.884" y="339"/>
		</contour>
	</outline>
</glyph>
<glyph name="bracketangleleft.case" format="2">
	<advance width="385"/>
	<outline>
		<contour>
			<point x="55.121" y="264" type="curve" smooth="yes"/>
			<point x="67.121" y="177"/>
			<point x="100.121" y="102"/>
			<point x="118.121" y="2" type="curve" smooth="yes"/>
			<point x="128.121" y="-53"/>
			<point x="165.121" y="-80"/>
			<point x="215.121" y="-80" type="curve" smooth="yes"/>
			<point x="287.612" y="-80"/>
			<point x="328.088" y="-28.453"/>
			<point x="317" y="39" type="curve" smooth="yes"/>
			<point x="289" y="201"/>
			<point x="227" y="277"/>
			<point x="230" y="438" type="curve"/>
			<point x="192" y="250" type="line"/>
			<point x="258" y="408"/>
			<point x="362" y="506"/>
			<point x="430" y="620" type="curve" smooth="yes"/>
			<point x="489.196" y="719.698"/>
			<point x="460.458" y="782"/>
			<point x="388.121" y="782" type="curve" smooth="yes"/>
			<point x="326.121" y="782"/>
			<point x="289.121" y="752"/>
			<point x="254.121" y="688" type="curve" smooth="yes"/>
			<point x="216.121" y="622"/>
			<point x="156.121" y="556"/>
			<point x="103.121" y="469" type="curve" smooth="yes"/>
			<point x="77.121" y="428"/>
			<point x="63.121" y="402"/>
			<point x="56.121" y="365" type="curve" smooth="yes"/>
			<point x="51.121" y="339"/>
			<point x="48.121" y="311"/>
		</contour>
	</outline>
	<guideline x="-49.2" y="780" angle="0" identifier="8kbH9hZzzu"/>
	<guideline x="-49.2" y="-80" angle="0" identifier="IIQKCbLHlb"/>
</glyph>
<glyph name="brevetildecomb" format="2">
	<outline>
		<contour>
			<point x="-8.373" y="780" type="curve" smooth="yes"/>
			<point x="39.627" y="780"/>
			<point x="42.627" y="815"/>
			<point x="85.627" y="815" type="curve" smooth="yes"/>
			<point x="117.627" y="815"/>
			<point x="132.627" y="783"/>
			<point x="183.627" y="783" type="curve" smooth="yes"/>
			<point x="254.627" y="783"/>
			<point x="311.627" y="825"/>
			<point x="323.627" y="885" type="curve" smooth="yes"/>
			<point x="333.627" y="934"/>
			<point x="317.627" y="955"/>
			<point x="282.627" y="955" type="curve" smooth="yes"/>
			<point x="241.627" y="955"/>
			<point x="231.627" y="920"/>
			<point x="191.627" y="920" type="curve" smooth="yes"/>
			<point x="160.725" y="920"/>
			<point x="140.788" y="963"/>
			<point x="74" y="963" type="curve" smooth="yes"/>
			<point x="-8.225" y="963"/>
			<point x="-52.372" y="913.005"/>
			<point x="-62.373" y="861" type="curve" smooth="yes"/>
			<point x="-71.373" y="818"/>
			<point x="-52.373" y="780"/>
		</contour>
		<contour>
			<point x="-102" y="692" type="curve" smooth="yes"/>
			<point x="-111" y="618"/>
			<point x="-43" y="550"/>
			<point x="76" y="550" type="curve" smooth="yes"/>
			<point x="187" y="550"/>
			<point x="262" y="608"/>
			<point x="275" y="675" type="curve" smooth="yes"/>
			<point x="286" y="728"/>
			<point x="266" y="757"/>
			<point x="222" y="757" type="curve" smooth="yes"/>
			<point x="192" y="757"/>
			<point x="176" y="742"/>
			<point x="162" y="720" type="curve" smooth="yes"/>
			<point x="149" y="701"/>
			<point x="129" y="686"/>
			<point x="86" y="686" type="curve" smooth="yes"/>
			<point x="46" y="686"/>
			<point x="36" y="702"/>
			<point x="30" y="721" type="curve" smooth="yes"/>
			<point x="23" y="741"/>
			<point x="4" y="757"/>
			<point x="-24" y="757" type="curve" smooth="yes"/>
			<point x="-65" y="757"/>
			<point x="-96" y="733"/>
		</contour>
	</outline>
	<anchor name="_top" x="51.628" y="515"/>
</glyph>
<glyph name="five.pnum" format="2">
	<advance width="629"/>
	<outline>
		<contour>
			<point x="577.165" y="543" type="curve" smooth="yes"/>
			<point x="613.165" y="543"/>
			<point x="642.165" y="567"/>
			<point x="651.165" y="603" type="curve" smooth="yes"/>
			<point x="665.165" y="662"/>
			<point x="630.165" y="716"/>
			<point x="544.165" y="716" type="curve" smooth="yes"/>
			<point x="431.165" y="716"/>
			<point x="373.165" y="700"/>
			<point x="221.165" y="700" type="curve" smooth="yes"/>
			<point x="185.165" y="700"/>
			<point x="168.165" y="683"/>
			<point x="149.165" y="647" type="curve" smooth="yes"/>
			<point x="117.165" y="587"/>
			<point x="99.165" y="537"/>
			<point x="91.165" y="497" type="curve" smooth="yes"/>
			<point x="68.165" y="382"/>
			<point x="98.165" y="344"/>
			<point x="322.165" y="302" type="curve" smooth="yes"/>
			<point x="401.165" y="288"/>
			<point x="408.165" y="271"/>
			<point x="403.165" y="245" type="curve" smooth="yes"/>
			<point x="392.23" y="189.329"/>
			<point x="288.135" y="158"/>
			<point x="212" y="158" type="curve" smooth="yes"/>
			<point x="128.329" y="158"/>
			<point x="132.657" y="195"/>
			<point x="82.165" y="195" type="curve" smooth="yes"/>
			<point x="37.165" y="195"/>
			<point x="9" y="172"/>
			<point x="1" y="129" type="curve" smooth="yes"/>
			<point x="-15" y="50"/>
			<point x="37.658" y="-12"/>
			<point x="197" y="-12" type="curve" smooth="yes"/>
			<point x="405.068" y="-12"/>
			<point x="552.126" y="75.639"/>
			<point x="582" y="227" type="curve" smooth="yes"/>
			<point x="605" y="342"/>
			<point x="576.165" y="419"/>
			<point x="369.165" y="456" type="curve" smooth="yes"/>
			<point x="268.165" y="472"/>
			<point x="266.165" y="485"/>
			<point x="270.165" y="507" type="curve" smooth="yes"/>
			<point x="274.165" y="525"/>
			<point x="283.165" y="543"/>
			<point x="307.165" y="578" type="curve"/>
			<point x="223.165" y="531" type="line"/>
			<point x="379.165" y="529"/>
			<point x="444.165" y="543"/>
		</contour>
	</outline>
</glyph>
